<svg width="48" height="48" viewBox="0 0 48 48" fill="none" xmlns="http://www.w3.org/2000/svg">
    <path fill-rule="evenodd" clip-rule="evenodd"
        d="M24 48C37.2556 48 48 37.2556 48 24C48 10.7457 37.2556 0 24 0C10.7457 0 0 10.7457 0 24C0 37.2556 10.7457 48 24 48Z"
        fill="#5ECF87" />
    <path fill-rule="evenodd" clip-rule="evenodd"
        d="M33.269 15.3314C34.4097 13.9091 35.1817 12.2143 35.3514 10.3784H33.7296C31.8628 12.8256 28.438 14.5062 24 14.5062C19.5627 14.5062 16.1366 12.8256 14.2704 10.3784H12.6492C12.8183 12.2143 13.5903 13.9091 14.731 15.3314H7.78378C7.78378 18.5233 10.5221 21.2938 13.6566 21.2938C14.1485 21.2938 14.6258 21.2301 15.0813 21.1103L18.6746 35.7452C18.9457 36.848 19.918 37.6216 21.0345 37.6216H26.9655C28.082 37.6216 29.0549 36.848 29.3254 35.7452L32.9187 21.1103C33.3742 21.2301 33.8515 21.2938 34.344 21.2938C37.4785 21.2938 40.2162 18.5233 40.2162 15.3314H33.269Z"
        fill="#131F31" />
</svg>