<svg width="20" height="20" viewBox="0 0 20 20" fill="none" xmlns="http://www.w3.org/2000/svg">
    <g clip-path="url(#clip0_34_7943)">
        <path
            d="M9.99967 9.99996C10.9163 9.99996 11.6663 9.24996 11.6663 8.33329C11.6663 7.41663 10.9163 6.66663 9.99967 6.66663C9.08301 6.66663 8.33301 7.41663 8.33301 8.33329C8.33301 9.24996 9.08301 9.99996 9.99967 9.99996ZM9.99967 1.66663C13.4997 1.66663 16.6663 4.34996 16.6663 8.49996C16.6663 11.15 14.6247 14.2666 10.5497 17.8583C10.233 18.1333 9.75801 18.1333 9.44134 17.8583C5.37467 14.2666 3.33301 11.15 3.33301 8.49996C3.33301 4.34996 6.49967 1.66663 9.99967 1.66663Z"
            fill="#242325" />
    </g>
    <defs>
        <clipPath id="clip0_34_7943">
            <rect width="20" height="20" fill="white" />
        </clipPath>
    </defs>
</svg>