<svg width="279" height="64" viewBox="0 0 279 64" fill="none" xmlns="http://www.w3.org/2000/svg">
    <path fill-rule="evenodd" clip-rule="evenodd"
        d="M30.7363 64C29.879 64 29.046 63.8267 28.2593 63.484C11.0922 56.0154 0 39.0581 0 20.2844C0 17.9422 0.178623 15.5694 0.530906 13.2327C0.779544 11.5813 1.65777 10.1253 3.0024 9.13218C11.0911 3.15773 20.6822 0 30.7369 0C40.791 0 50.3815 3.15773 58.4713 9.13218C59.8154 10.1248 60.6931 11.5813 60.9428 13.2327C61.294 15.5694 61.4732 17.9416 61.4732 20.2844C61.4732 39.0581 50.3809 56.0154 33.2139 63.484C32.4272 63.8267 31.5936 64 30.7363 64Z"
        fill="#F6D700" />
    <path fill-rule="evenodd" clip-rule="evenodd"
        d="M59.9314 20.2846C59.9314 17.9661 59.7539 15.6897 59.4182 13.4653C59.2318 12.228 58.5615 11.1192 57.5575 10.3785C50.0466 4.83138 40.7758 1.54688 30.736 1.54688C20.6968 1.54688 11.4255 4.83138 3.91451 10.3785C2.91113 11.1192 2.2402 12.228 2.05441 13.4648C1.71866 15.6897 1.54004 17.9661 1.54004 20.2846C1.54004 39.0001 12.7927 55.0689 28.8704 62.0647C30.0607 62.5823 31.4119 62.5823 32.6011 62.0647C48.6799 55.0689 59.9314 39.0001 59.9314 20.2846Z"
        fill="#242325" />
    <path fill-rule="evenodd" clip-rule="evenodd"
        d="M37.1547 43.5961C37.6895 43.8446 37.931 44.473 37.7016 45.0183L36.4535 47.9828C36.2771 48.4002 35.8691 48.6709 35.4176 48.6709H26.0537C25.6027 48.6709 25.1959 48.4002 25.0189 47.9828L23.7707 45.0183C23.5414 44.473 23.7823 43.8446 24.3176 43.5961C24.3176 43.5961 29.5374 41.5489 37.1547 43.5961ZM42.9804 23.8746C43.4181 23.61 43.2318 22.9335 42.7207 22.9335H34.8696C34.1904 22.9335 33.7736 23.6792 34.127 24.2622L35.6293 26.7379C36.018 27.3767 36.8466 27.581 37.4861 27.1951L42.9804 23.8746ZM27.3454 24.2622C27.6988 23.6792 27.2809 22.9335 26.6022 22.9335H18.7522C18.2395 22.9335 18.0532 23.61 18.4909 23.8746L23.9868 27.1951C24.6253 27.581 25.4544 27.3767 25.842 26.7379L27.3454 24.2622ZM38.8445 13.3828C39.5761 13.3828 40.2591 13.7476 40.6666 14.3566L46.9013 23.651C47.3743 24.3579 47.3484 25.2885 46.8356 25.9672L42.0206 32.3431C41.9009 32.5019 41.7173 32.5988 41.5205 32.6082C41.3121 32.6204 41.252 32.5927 40.9791 32.4693C40.7559 32.3691 40.1296 32.1194 39.6174 31.9168C39.3715 31.8205 39.1416 32.084 39.274 32.3126C39.8782 33.3512 40.9692 35.2362 41.139 35.601C41.4218 36.2166 41.5161 36.835 41.2399 37.4229L39.3649 41.4138C39.0744 42.0316 38.3428 42.299 37.7253 42.0128L32.5249 39.6041C32.1638 39.4347 31.9295 39.0687 31.9295 38.669V36.5687C31.9295 36.3035 32.0552 36.0544 32.2685 35.8972L34.6259 34.1555C34.9506 33.9153 35.143 33.535 35.143 33.1297V32.8435C35.143 32.4881 34.8558 32.1997 34.5019 32.1997H26.9711C26.6171 32.1997 26.3288 32.4881 26.3288 32.8435V33.1297C26.3288 33.535 26.5212 33.9153 26.8459 34.1555L29.2038 35.8972C29.4172 36.0544 29.5418 36.3035 29.5418 36.5687V38.669C29.5418 39.0687 29.3091 39.4347 28.9475 39.6041L23.747 42.0128C23.129 42.299 22.398 42.0316 22.1074 41.4138L20.2319 37.4229C19.9568 36.835 20.05 36.2166 20.3339 35.601C20.502 35.2362 21.5925 33.3512 22.1973 32.3126C22.3302 32.084 22.0997 31.8205 21.8544 31.9168C21.3417 32.1194 20.7165 32.3691 20.4927 32.4693C20.2203 32.5927 20.1591 32.6204 19.9518 32.6082C19.7545 32.5988 19.5714 32.5019 19.4518 32.3431L14.6373 25.9672C14.124 25.2885 14.0975 24.3579 14.5717 23.651L20.8047 14.3566C21.2132 13.7476 21.8963 13.3828 22.6268 13.3828H38.8445Z"
        fill="#F6D700" />
    <path fill-rule="evenodd" clip-rule="evenodd"
        d="M251.405 52.4874C251.15 52.4874 250.892 52.4757 250.633 52.4508C246.578 52.0677 243.403 48.4466 243.403 44.2072V33.6733C243.403 32.3934 244.439 31.3526 245.714 31.3526H247.144V44.2753C247.144 46.5511 248.829 48.4992 250.98 48.7096C251.123 48.724 251.265 48.7301 251.405 48.7301L251.59 48.7273C253.838 48.6349 255.666 46.6663 255.665 44.3384L255.663 33.6738C255.662 33.0538 255.902 32.4703 256.338 32.0319C256.775 31.594 257.356 31.3526 257.974 31.3526H259.404L259.405 44.6069C259.351 47.6041 257.678 50.2536 254.93 51.6918C253.92 52.22 252.735 52.4874 251.405 52.4874ZM131.051 52.1109L129.739 47.7375H120.619L119.306 52.1109H115.399L120.464 35.2267L120.686 34.507C121.091 32.8949 122.331 31.6172 123.926 31.1649C123.933 31.1627 124.596 30.9756 125.178 30.9756C125.768 30.9756 126.363 31.145 126.429 31.1638C128.026 31.6172 129.266 32.8921 129.666 34.4915L129.894 35.2289L134.958 52.1109H131.051ZM125.178 34.7318C124.77 34.7318 124.456 35.0041 124.292 35.4979L121.746 43.9808H128.612L126.076 35.5306C125.961 35.1425 125.667 34.7318 125.178 34.7318ZM109.013 52.1109C108.162 52.1109 107.383 51.6437 106.978 50.8913L103.644 44.6799H99.8V52.1054H96.0589L96.0611 33.6716C96.0611 32.3922 97.0976 31.3515 98.3716 31.3509L105.244 31.3504C108.819 31.4301 111.729 34.4195 111.729 38.0146C111.729 40.5722 110.233 42.9361 107.917 44.0361L107.624 44.1762L111.884 52.1109H109.013ZM99.8 35.1071V40.9243H105.016C106.431 40.9243 107.654 39.9561 107.926 38.6219C108.104 37.7489 107.889 36.8581 107.336 36.1778C106.782 35.4963 105.964 35.1049 105.091 35.1049L99.8 35.1071ZM264.514 52.1076V50.6716C264.514 49.3922 265.551 48.3509 266.825 48.3509H272.897C274.2 48.3509 275.26 47.2868 275.26 45.9792C275.26 44.6711 274.2 43.6071 272.897 43.6071H269.528C266.163 43.6071 263.424 40.8584 263.424 37.4798C263.424 34.1007 266.163 31.3515 269.528 31.3515H277.646V32.787C277.646 34.0663 276.609 35.1071 275.335 35.1071H269.528C268.225 35.1071 267.165 36.1711 267.165 37.4798C267.165 38.7874 268.225 39.8509 269.528 39.8509H272.897C276.263 39.8509 279 42.6001 279 45.9792C279 49.3579 276.263 52.1076 272.897 52.1076H264.514ZM161.146 52.1076V50.6716C161.146 49.3922 162.183 48.3509 163.457 48.3509H169.528C170.832 48.3509 171.891 47.2868 171.891 45.9792C171.891 44.6711 170.832 43.6071 169.528 43.6071H166.159C162.794 43.6071 160.056 40.8584 160.056 37.4798C160.056 34.1007 162.794 31.3515 166.159 31.3515H174.277V32.787C174.277 34.0663 173.241 35.1071 171.967 35.1071H166.159C164.857 35.1071 163.797 36.1711 163.797 37.4798C163.797 38.7874 164.857 39.8509 166.159 39.8509H169.528C172.894 39.8509 175.632 42.6001 175.632 45.9792C175.632 49.3579 172.894 52.1076 169.528 52.1076H161.146ZM226.649 52.1054V33.6733C226.649 32.3934 227.686 31.3526 228.96 31.3526H230.391V48.3492H240.175V49.7847C240.175 51.0646 239.139 52.1054 237.864 52.1054H226.649ZM207.049 52.1054V33.6722C207.049 32.3922 208.085 31.3515 209.359 31.3509L216.234 31.3504C218.002 31.3913 219.715 32.162 220.929 33.4646C222.198 34.8281 222.829 36.6057 222.704 38.4713C222.472 41.9529 219.455 44.6799 215.835 44.6799H210.79V52.1054H207.049ZM210.79 35.1071V40.9243H216.006C217.42 40.9243 218.644 39.9561 218.916 38.6219C219.094 37.7489 218.879 36.8581 218.326 36.1778C217.771 35.4963 216.953 35.1049 216.08 35.1049L210.79 35.1071ZM193.357 52.1054V35.1071H187.398V33.6722C187.398 32.3922 188.435 31.3515 189.71 31.3515H203.059V32.787C203.059 34.0663 202.022 35.1071 200.748 35.1071H197.099V52.1054H193.357ZM179.667 52.1054V33.6733C179.667 32.3934 180.705 31.3526 181.978 31.3526H183.409V49.7847C183.409 51.0646 182.372 52.1054 181.098 52.1054H179.667ZM151.795 52.1054L142.743 37.6127V49.7847C142.743 51.0646 141.706 52.1054 140.432 52.1054H139.002V33.7115C139.002 32.4321 140.039 31.3908 141.313 31.3908H143.274L152.326 45.884V33.7115C152.326 32.4321 153.362 31.3908 154.637 31.3908H156.066V49.7847C156.066 51.0646 155.03 52.1054 153.756 52.1054H151.795ZM82.3678 52.1054V35.1071H76.4082V33.6722C76.4082 32.3922 77.4452 31.3515 78.7198 31.3515H92.0686V32.787C92.0686 34.0663 91.0321 35.1071 89.7575 35.1071H86.1095V52.1054H82.3678Z"
        fill="white" />
    <path fill-rule="evenodd" clip-rule="evenodd"
        d="M83.3667 9.30566V17.35H82.2828V10.1621H79.3885L79.3835 13.0962C79.3835 14.5693 79.1944 15.6466 78.8168 16.3281C78.4392 17.0096 77.8118 17.35 76.9352 17.35H76.6436V16.4991H76.8696C77.3757 16.4991 77.7401 16.2373 77.9639 15.7119C78.1878 15.1871 78.3013 14.3152 78.3052 13.0962L78.3107 9.30566H83.3667ZM84.6562 14.3059C84.6562 13.4223 84.8943 12.6938 85.3718 12.1214C85.8475 11.5484 86.4953 11.2616 87.3134 11.2616C88.1382 11.2616 88.7909 11.5473 89.2689 12.1181C89.7475 12.6894 89.9873 13.4185 89.9873 14.3059V14.4277C89.9873 15.319 89.748 16.0481 89.2717 16.6155C88.7953 17.1824 88.1459 17.4658 87.3245 17.4658C86.503 17.4658 85.8525 17.1813 85.374 16.6122C84.8954 16.0436 84.6562 15.3151 84.6562 14.4277V14.3059ZM85.74 14.4277C85.74 15.061 85.8729 15.5841 86.1381 15.9966C86.4043 16.409 86.8002 16.6155 87.3245 16.6155C87.841 16.6155 88.2341 16.409 88.5021 15.9966C88.7689 15.5841 88.9034 15.061 88.9034 14.4277V14.3059C88.9034 13.6798 88.7683 13.1588 88.4993 12.7425C88.2292 12.3262 87.8344 12.1181 87.3134 12.1181C86.7963 12.1181 86.4043 12.3262 86.1381 12.7425C85.8729 13.1588 85.74 13.6798 85.74 14.3059V14.4277ZM94.9969 12.2342H92.296V17.35H91.2122V11.3723H94.9969V12.2342ZM99.6108 11.3722H100.695V17.35H99.6108V13.1072L99.5778 13.0961L96.948 17.35H95.8697V11.3722H96.948V15.6155L96.9811 15.6261L99.6108 11.3722ZM104.508 16.6155C104.841 16.6155 105.133 16.5042 105.383 16.2811C105.632 16.0585 105.757 15.7845 105.757 15.4606H106.736L106.752 15.4939C106.767 16.0098 106.547 16.4671 106.092 16.8668C105.637 17.2665 105.109 17.4663 104.508 17.4663C103.671 17.4663 103.026 17.1807 102.57 16.6094C102.116 16.0386 101.889 15.3283 101.889 14.4769V14.2449C101.889 13.4018 102.117 12.6943 102.573 12.1213C103.03 11.5484 103.675 11.2621 104.508 11.2621C105.171 11.2621 105.715 11.4681 106.139 11.8805C106.562 12.2929 106.767 12.7995 106.752 13.3996L106.742 13.4328H105.757C105.757 13.068 105.638 12.758 105.401 12.5022C105.165 12.2464 104.866 12.118 104.508 12.118C103.975 12.118 103.588 12.3256 103.344 12.7397C103.1 13.1543 102.979 13.6554 102.979 14.2449V14.4769C102.979 15.0776 103.098 15.5841 103.339 15.9965C103.578 16.409 103.968 16.6155 104.508 16.6155ZM112.453 12.2175H110.489V17.3499H109.405V12.2175H107.467V11.3721H112.453V12.2175ZM117.219 11.3722H118.303V17.35H117.219V13.1072L117.187 13.0961L114.556 17.35H113.478V11.3722H114.556V15.6155L114.589 15.6261L117.219 11.3722ZM124.29 17.3499H123.206V15.2119C122.997 15.2673 122.782 15.3082 122.563 15.337C122.343 15.3641 122.108 15.3774 121.859 15.3774C121.14 15.3774 120.576 15.1881 120.167 14.8094C119.757 14.4297 119.553 13.8678 119.553 13.1237V11.3666H120.637V13.1237C120.637 13.602 120.739 13.9541 120.946 14.1789C121.15 14.4037 121.454 14.516 121.859 14.516C122.1 14.516 122.332 14.5022 122.551 14.4745C122.771 14.4468 122.99 14.4059 123.206 14.3505V11.3721H124.29V17.3499ZM128.245 17.4661C127.39 17.4661 126.724 17.1915 126.245 16.6429C125.767 16.0943 125.527 15.3718 125.527 14.4772V14.2342C125.527 13.3761 125.774 12.6658 126.267 12.1039C126.761 11.5426 127.363 11.2619 128.074 11.2619C128.87 11.2619 129.468 11.5105 129.865 12.0076C130.264 12.5048 130.462 13.1657 130.462 13.9912V14.5652H126.655L126.639 14.5935C126.639 15.1936 126.771 15.6802 127.035 16.055C127.298 16.4281 127.702 16.6152 128.245 16.6152C128.612 16.6152 128.933 16.5626 129.211 16.4575C129.487 16.3528 129.725 16.2083 129.923 16.0245L130.347 16.7309C130.134 16.938 129.853 17.1118 129.505 17.2535C129.157 17.3953 128.737 17.4661 128.245 17.4661ZM128.074 12.1178C127.697 12.1178 127.384 12.2645 127.137 12.5573C126.889 12.8502 126.738 13.225 126.682 13.6817L126.694 13.7094H129.379V13.6208C129.379 13.1862 129.272 12.8275 129.06 12.5429C128.846 12.2595 128.518 12.1178 128.074 12.1178ZM133.992 16.6155C134.326 16.6155 134.618 16.5042 134.867 16.2811C135.116 16.0585 135.242 15.7845 135.242 15.4606H136.22L136.237 15.4939C136.252 16.0098 136.031 16.4671 135.577 16.8668C135.122 17.2665 134.594 17.4663 133.992 17.4663C133.156 17.4663 132.511 17.1807 132.055 16.6094C131.6 16.0386 131.373 15.3283 131.373 14.4769V14.2449C131.373 13.4018 131.601 12.6943 132.058 12.1213C132.515 11.5484 133.159 11.2621 133.992 11.2621C134.656 11.2621 135.2 11.4681 135.624 11.8805C136.047 12.2929 136.252 12.7995 136.237 13.3996L136.226 13.4328H135.242C135.242 13.068 135.123 12.758 134.886 12.5022C134.649 12.2464 134.351 12.118 133.992 12.118C133.46 12.118 133.072 12.3256 132.829 12.7397C132.584 13.1543 132.463 13.6554 132.463 14.2449V14.4769C132.463 15.0776 132.583 15.5841 132.823 15.9965C133.062 16.409 133.453 16.6155 133.992 16.6155ZM139.1 14.8144H138.544V17.3499H137.46V11.3721H138.544V13.8971H139.006L141.135 11.3721H142.407L142.417 11.4003L139.947 14.2397L142.604 17.3222L142.593 17.3499H141.262L139.1 14.8144ZM146.997 17.3499C146.961 17.17 146.933 17.0106 146.912 16.8727C146.892 16.7343 146.88 16.5954 146.876 16.4553C146.674 16.7421 146.412 16.9829 146.087 17.1761C145.763 17.3698 145.413 17.4662 145.039 17.4662C144.418 17.4662 143.947 17.3067 143.622 16.9879C143.297 16.6695 143.135 16.2305 143.135 15.6703C143.135 15.0995 143.365 14.6528 143.826 14.3311C144.286 14.0084 144.91 13.8473 145.699 13.8473H146.876V13.2566C146.876 12.9062 146.77 12.6294 146.557 12.4251C146.344 12.2203 146.044 12.1178 145.655 12.1178C145.303 12.1178 145.018 12.2064 144.802 12.3836C144.586 12.5602 144.478 12.7716 144.478 13.0185L143.448 13.0302L143.437 12.9964C143.412 12.5618 143.614 12.1643 144.045 11.8034C144.477 11.4419 145.033 11.262 145.715 11.262C146.39 11.262 146.933 11.4341 147.344 11.7785C147.755 12.1228 147.96 12.6188 147.96 13.2671V16.1458C147.96 16.359 147.971 16.5655 147.993 16.7648C148.015 16.9635 148.056 17.1584 148.114 17.3499H146.997ZM145.198 16.5544C145.591 16.5544 145.945 16.4536 146.26 16.251C146.575 16.0484 146.781 15.8159 146.876 15.5546V14.5819H145.66C145.224 14.5819 144.875 14.6932 144.613 14.9135C144.35 15.135 144.219 15.3946 144.219 15.693C144.219 15.9576 144.301 16.168 144.467 16.3224C144.632 16.4774 144.875 16.5544 145.198 16.5544ZM154.202 11.3722V17.35H153.118V15.0298H151.648L150.24 17.35H149.074L150.581 14.8693C150.203 14.7337 149.913 14.5183 149.709 14.2232C149.505 13.9287 149.404 13.5877 149.404 13.2007C149.404 12.6632 149.606 12.2242 150.012 11.8832C150.417 11.5427 150.975 11.3722 151.687 11.3722H154.202ZM150.493 13.2124C150.493 13.477 150.584 13.7034 150.763 13.8916C150.942 14.0793 151.212 14.1734 151.572 14.1734H153.118V12.2175H151.687C151.295 12.2175 150.998 12.3161 150.796 12.5132C150.594 12.7102 150.493 12.9428 150.493 13.2124ZM159.761 14.8144H159.206V17.3499H158.122V11.3721H159.206V13.8971H159.668L161.797 11.3721H163.068L163.079 11.4003L160.609 14.2397L163.266 17.3222L163.255 17.3499H161.924L159.761 14.8144ZM166.179 11.2616C167.004 11.2616 167.657 11.5473 168.135 12.1181C168.614 12.6894 168.853 13.4185 168.853 14.3059V14.4277C168.853 15.319 168.615 16.0481 168.138 16.6155C167.661 17.1824 167.012 17.4658 166.191 17.4658C165.369 17.4658 164.719 17.1813 164.24 16.6122C163.762 16.0436 163.522 15.3151 163.522 14.4277V14.3059C163.522 13.4223 163.76 12.6938 164.237 12.1214C164.714 11.5484 165.362 11.2616 166.179 11.2616ZM166.179 12.1181C165.662 12.1181 165.271 12.3262 165.005 12.7425C164.738 13.1588 164.606 13.6798 164.606 14.3059V14.4277C164.606 15.061 164.738 15.5841 165.005 15.9966C165.271 16.409 165.666 16.6155 166.191 16.6155C166.708 16.6155 167.1 16.409 167.368 15.9966C167.636 15.5841 167.77 15.061 167.77 14.4277V14.3059C167.77 13.6798 167.634 13.1588 167.365 12.7425C167.095 12.3262 166.7 12.1181 166.179 12.1181ZM173.439 15.9248H173.473L175.421 11.372H176.774V17.3497H175.69V13.2011L175.657 13.19L173.83 17.3497H173.083L171.223 13.0959L171.189 13.107V17.3497H170.106V11.372H171.503L173.439 15.9248ZM183.147 17.3499H182.064V12.2341H179.406V17.3499H178.322V11.3721H183.147V17.3499ZM186.963 11.262C187.637 11.262 188.18 11.4341 188.591 11.7785C189.002 12.1228 189.207 12.6188 189.207 13.2671V16.1458C189.207 16.359 189.219 16.5655 189.24 16.7648C189.263 16.9635 189.303 17.1584 189.361 17.3499H188.245C188.208 17.17 188.179 17.0106 188.159 16.8727C188.14 16.7343 188.127 16.5954 188.124 16.4553C187.921 16.7421 187.658 16.9829 187.334 17.1761C187.009 17.3698 186.66 17.4662 186.286 17.4662C185.665 17.4662 185.194 17.3067 184.869 16.9879C184.545 16.6695 184.382 16.2305 184.382 15.6703C184.382 15.0995 184.612 14.6528 185.073 14.3311C185.533 14.0084 186.158 13.8473 186.947 13.8473H188.124V13.2566C188.124 12.9062 188.017 12.6294 187.804 12.4251C187.591 12.2203 187.291 12.1178 186.901 12.1178C186.55 12.1178 186.266 12.2064 186.05 12.3836C185.833 12.5602 185.725 12.7716 185.725 13.0185L184.696 13.0302L184.685 12.9964C184.659 12.5618 184.862 12.1643 185.293 11.8034C185.724 11.4419 186.281 11.262 186.963 11.262ZM188.124 14.5819H186.907C186.471 14.5819 186.122 14.6932 185.859 14.9135C185.597 15.135 185.466 15.3946 185.466 15.693C185.466 15.9576 185.548 16.168 185.714 16.3224C185.878 16.4774 186.122 16.5544 186.445 16.5544C186.837 16.5544 187.192 16.4536 187.507 16.251C187.823 16.0484 188.028 15.8159 188.124 15.5546V14.5819ZM195.5 17.3499H194.416V14.8094H191.764V17.3499H190.681V11.3721H191.764V13.958H194.416V11.3721H195.5V17.3499ZM200.738 11.3722H201.822V17.35H200.738V13.1072L200.705 13.0961L198.075 17.35H196.997V11.3722H198.075V15.6155L198.108 15.6261L200.738 11.3722ZM207.995 11.3722V17.35H206.911V15.0298H205.442L204.033 17.35H202.867L204.374 14.8693C203.996 14.7337 203.706 14.5183 203.502 14.2232C203.298 13.9287 203.197 13.5877 203.197 13.2007C203.197 12.6632 203.399 12.2242 203.805 11.8832C204.21 11.5427 204.768 11.3722 205.48 11.3722H207.995ZM206.911 12.2175H205.48C205.088 12.2175 204.791 12.3161 204.588 12.5132C204.387 12.7102 204.286 12.9428 204.286 13.2124C204.286 13.477 204.376 13.7034 204.556 13.8916C204.735 14.0793 205.005 14.1734 205.365 14.1734H206.911V12.2175Z"
        fill="white" />
</svg>