<svg width="48" height="63" viewBox="0 0 48 63" fill="none" xmlns="http://www.w3.org/2000/svg">
    <g id="Pin">
        <path id="b-2"
            d="M28.1345 54.0279C30.0257 56.223 29.8575 59.5086 27.7521 61.5009C25.6466 63.4931 22.3425 63.4931 20.237 61.5009C18.1316 59.5086 17.9634 56.223 19.8545 54.0279C22.8545 49.2269 18.12 48.0647 14.4 47.7931H3.27273C1.46525 47.7931 0 46.3342 0 44.5345V3.25862C0 1.45893 1.46525 0 3.27273 0H44.7273C46.5347 0 48 1.45893 48 3.25862V44.5345C48 46.3342 46.5347 47.7931 44.7273 47.7931H33.5891C29.88 48.0647 25.0909 49.2378 28.1345 54.0279Z"
            fill="#F6D700" />
        <g id="svg/logo-lion-ru-color">
            <path id="Shape"
                d="M38.7266 18.0635C38.7283 16.8376 38.6438 15.6132 38.4735 14.4008C38.3749 13.7411 38.036 13.15 37.5309 12.7568C29.4824 6.43329 18.525 6.43329 10.4764 12.7568C9.97235 13.1506 9.63449 13.7416 9.53658 14.4008C7.9787 25.375 13.5329 36.0937 23.0611 40.5006C23.6615 40.7789 24.343 40.7789 24.9435 40.5006C33.3108 36.6287 38.727 27.8119 38.7266 18.0635Z"
                fill="#242424" />
            <path id="Shape_2" fill-rule="evenodd" clip-rule="evenodd"
                d="M29.0199 14.8795C28.8116 14.55 28.4631 14.3536 28.0912 14.3562H19.9109C19.5429 14.3576 19.1993 14.5535 18.9933 14.8795L15.8485 19.8711C15.6104 20.2505 15.6238 20.7496 15.8819 21.1138L18.3037 24.5357C18.364 24.6211 18.4567 24.6734 18.5567 24.6784C18.6544 24.6858 18.7518 24.6598 18.8348 24.6041C18.9488 24.5506 19.263 24.4168 19.5216 24.3068C19.5771 24.2821 19.6411 24.2984 19.6803 24.347C19.7195 24.3957 19.725 24.4658 19.694 24.5208C19.3881 25.0768 18.8403 26.0906 18.7542 26.2868C18.5985 26.5875 18.58 26.9478 18.7041 27.2649L19.6439 29.4114C19.7145 29.5725 19.8421 29.6969 19.9986 29.7572C20.1552 29.8174 20.3277 29.8085 20.4781 29.7324L23.1001 28.4214C23.2829 28.3303 23.3999 28.1345 23.4004 27.9189V26.7922C23.4006 26.6502 23.3377 26.5167 23.2308 26.4324L22.0519 25.5108C21.8879 25.3823 21.7909 25.1781 21.7905 24.9608V24.8062C21.7919 24.6198 21.9304 24.4677 22.1047 24.4614H25.9168C26.0949 24.4614 26.2393 24.6158 26.2393 24.8062V24.9608C26.2351 25.1814 26.1315 25.3862 25.9613 25.5108L24.7768 26.4324C24.6648 26.5191 24.6003 26.6593 24.6044 26.807V27.9338C24.6049 28.1494 24.7219 28.3452 24.9047 28.4362L27.5212 29.7265C27.6715 29.8026 27.8441 29.8115 28.0006 29.7512C28.1571 29.691 28.2848 29.5665 28.3553 29.4054L29.2979 27.2649C29.4202 26.9482 29.4008 26.5892 29.2451 26.2897C29.1668 26.1115 28.7056 25.2615 28.3945 24.6882L28.3053 24.5238C28.2742 24.4688 28.2798 24.3987 28.319 24.35C28.3582 24.3013 28.4222 24.2851 28.4777 24.3097L28.5772 24.352L28.5772 24.3521C28.8125 24.452 29.0672 24.5602 29.1644 24.607C29.2475 24.6625 29.3448 24.6886 29.4425 24.6814C29.5424 24.676 29.635 24.6238 29.6955 24.5387L32.1229 21.1138C32.381 20.7496 32.3944 20.2505 32.1563 19.8711L29.0199 14.8795ZM22.3011 19.7151C22.3789 19.863 22.3761 20.0442 22.2938 20.1892L21.5458 21.5181C21.3502 21.8621 20.9314 21.9724 20.6088 21.7649L17.8282 19.9811C17.7322 19.9169 17.6871 19.7929 17.7172 19.6763C17.7474 19.5596 17.8457 19.478 17.9589 19.4757H21.9184C22.0771 19.4757 22.2234 19.5673 22.3011 19.7151ZM30.1793 19.9811C30.2798 19.9197 30.3286 19.7933 30.2977 19.6741C30.2669 19.5548 30.1643 19.4731 30.0487 19.4757H26.0864C25.9282 19.4768 25.7829 19.5688 25.7057 19.7164C25.6286 19.8641 25.6317 20.0446 25.7138 20.1892L26.4729 21.5181C26.6685 21.8621 27.0873 21.9724 27.4099 21.7649L30.1793 19.9811ZM27.5184 31.3587C27.631 31.0654 27.5087 30.7293 27.2403 30.5946H27.2375C23.3976 29.4946 20.7645 30.5946 20.7645 30.5946C20.4961 30.7293 20.3738 31.0654 20.4864 31.3587L21.1176 32.9492C21.2044 33.1753 21.4118 33.3215 21.6403 33.3178H26.3672C26.5958 33.3215 26.8031 33.1753 26.89 32.9492L27.5184 31.3587Z"
                fill="#F6D700" />
        </g>
        <path id="Shape_3"
            d="M24.0002 59.7414C25.2052 59.7414 26.182 58.7688 26.182 57.569C26.182 56.3692 25.2052 55.3966 24.0002 55.3966C22.7952 55.3966 21.8184 56.3692 21.8184 57.569C21.8184 58.7688 22.7952 59.7414 24.0002 59.7414Z"
            fill="#242424" />
    </g>
</svg>