<svg width="28" height="28" viewBox="0 0 28 28" fill="none" xmlns="http://www.w3.org/2000/svg">
    <path
        d="M21.2875 22.25C21.4403 22.25 21.6007 22.2463 21.7687 22.239C21.9368 22.2311 22.0972 22.2194 22.25 22.2042V16.8417L17.6667 15.925L15.0083 18.5833C13.8472 17.8806 12.7814 17.0479 11.811 16.0854C10.8412 15.1229 10.0354 14.0917 9.39375 12.9917L12.0062 10.3562L11.1583 5.75H5.79583C5.76528 5.90278 5.75 6.06319 5.75 6.23125V6.7125C5.75 8.68333 6.18939 10.6044 7.06817 12.4756C7.94633 14.3474 9.10744 16.009 10.5515 17.4604C11.9949 18.9118 13.6523 20.0729 15.5235 20.9438C17.3953 21.8146 19.3167 22.25 21.2875 22.25Z"
        fill="white" />
</svg>