<svg width="24" height="24" viewBox="0 0 24 24" fill="none" xmlns="http://www.w3.org/2000/svg">
    <path
        d="M12 2C9.34844 2 6.80312 3.05422 4.92969 4.92891C3.05469 6.80359 2 9.34891 2 12C2 14.6511 3.05469 17.1964 4.92969 19.0711C6.80312 20.9458 9.34844 22 12 22C14.6516 22 17.1969 20.9458 19.0703 19.0711C20.9453 17.1964 22 14.6511 22 12C22 9.34891 20.9453 6.80359 19.0703 4.92891C17.1969 3.05422 14.6516 2 12 2Z"
        fill="url(#paint0_linear_34_8137)" />
    <path
        d="M6.52772 11.894C9.44334 10.624 11.3871 9.78663 12.3589 9.3821C15.1371 8.22694 15.7136 8.02632 16.0902 8.0196C16.173 8.01819 16.3574 8.03866 16.4777 8.136C16.5777 8.21803 16.6058 8.32897 16.6199 8.40678C16.6324 8.4846 16.6496 8.66194 16.6355 8.80038C16.4855 10.3816 15.834 14.2188 15.5027 15.9899C15.3636 16.7393 15.0871 16.9906 14.8199 17.0151C14.2386 17.0685 13.798 16.6313 13.2355 16.2627C12.3558 15.6857 11.8589 15.3266 11.0043 14.7637C10.0168 14.113 10.6574 13.7554 11.2199 13.171C11.3667 13.018 13.9261 10.6907 13.9745 10.4796C13.9808 10.4532 13.9871 10.3548 13.9277 10.3029C13.8699 10.2508 13.7839 10.2687 13.7214 10.2827C13.6323 10.3027 12.2276 11.2321 9.50264 13.0707C9.10421 13.3448 8.74328 13.4783 8.41828 13.4713C8.06203 13.4637 7.37457 13.2694 6.86364 13.1035C6.23864 12.8999 5.74018 12.7923 5.78393 12.4465C5.8058 12.2665 6.05428 12.0823 6.52772 11.894Z"
        fill="white" />
    <defs>
        <linearGradient id="paint0_linear_34_8137" x1="12" y1="2" x2="12" y2="22"
            gradientUnits="userSpaceOnUse">
            <stop stop-color="#2AABEE" />
            <stop offset="1" stop-color="#229ED9" />
        </linearGradient>
    </defs>
</svg>