<svg width="24" height="24" viewBox="0 0 24 24" fill="none" xmlns="http://www.w3.org/2000/svg">
<path d="M12 2C9.34844 2 6.80312 3.05422 4.92969 4.92891C3.05469 6.80359 2 9.34891 2 12C2 14.6511 3.05469 17.1964 4.92969 19.0711C6.80312 20.9458 9.34844 22 12 22C14.6516 22 17.1969 20.9458 19.0703 19.0711C20.9453 17.1964 22 14.6511 22 12C22 9.34891 20.9453 6.80359 19.0703 4.92891C17.1969 3.05422 14.6516 2 12 2V2Z" fill="#0077FF"/>
<path d="M12.5359 17C8.43598 17 6.09744 13.997 6 9H8.05372C8.12117 12.6677 9.63523 14.2212 10.8345 14.5415V9H12.7683V12.1632C13.9525 12.027 15.1968 10.5856 15.6165 9H17.5503C17.3921 9.82233 17.0768 10.6009 16.6241 11.2871C16.1715 11.9733 15.5911 12.5524 14.9194 12.988C15.6692 13.386 16.3314 13.9494 16.8625 14.641C17.3935 15.3326 17.7812 16.1366 18 17H15.8713C15.6749 16.2501 15.2757 15.5787 14.7237 15.0702C14.1717 14.5616 13.4915 14.2384 12.7683 14.1411V17H12.5359Z" fill="white"/>
</svg>
