<svg width="142" height="47" viewBox="0 0 142 47" fill="none" xmlns="http://www.w3.org/2000/svg">
<path d="M5.87276 37.2767L6.92801 37.2307C7.15741 37.2307 7.70798 37.1846 7.70798 36.6316C7.70798 36.3091 7.43269 36.0787 6.97389 36.0787H5.87276V37.2767ZM5.87276 39.0738L7.11153 39.0277C7.6621 39.0277 7.93738 38.7973 7.93738 38.4287C7.93738 37.9679 7.43269 37.8757 7.01977 37.8757H5.82688V39.0738H5.87276ZM5.18455 39.6728L5.13867 35.4797L7.01977 35.4336C7.8915 35.4336 8.44206 35.8944 8.44206 36.5395C8.44206 37.0003 8.21266 37.3228 7.79974 37.5532C8.39618 37.6454 8.67147 37.9679 8.67147 38.5208C8.67147 39.2581 8.07502 39.7189 7.11153 39.7189H5.18455V39.6728Z" fill="white"/>
<path d="M5.9186 37.9222H7.06561C7.43266 37.9222 7.89146 38.0143 7.89146 38.4291C7.89146 38.8898 7.3409 38.9359 7.1115 38.9359H5.9186V37.9222ZM5.9186 36.1251H6.97385C7.24914 36.1251 7.66206 36.1712 7.66206 36.5859C7.66206 37.0467 7.20326 37.0928 6.92797 37.0928H5.9186V36.1251ZM7.01973 35.3418H5.18452H5.04688V35.48V39.6271V39.7653H5.18452H7.06561C8.07498 39.7653 8.71731 39.2585 8.71731 38.4751C8.71731 38.0143 8.48791 37.6457 8.0291 37.4614C8.35027 37.231 8.48791 36.9085 8.48791 36.5398C8.53379 35.8026 7.93734 35.3418 7.01973 35.3418ZM5.78096 39.0742H7.1115C7.66206 39.0742 8.0291 38.8438 8.0291 38.4291C8.0291 38.0143 7.70794 37.784 7.06561 37.784H5.82684V39.0742H5.78096ZM5.78096 37.2771H6.92797C7.43266 37.2771 7.7997 37.0467 7.7997 36.632C7.7997 36.2634 7.52442 36.033 6.97385 36.033H5.78096V37.2771ZM7.01973 35.48C7.84558 35.48 8.39615 35.8947 8.39615 36.5398C8.39615 37.0467 8.07498 37.3232 7.75382 37.5075C8.25851 37.6457 8.62555 37.9683 8.62555 38.5212C8.62555 39.2585 8.0291 39.6732 7.1115 39.6732H5.2304V35.5261H7.01973V35.48Z" fill="white"/>
<path d="M12.7556 37.5532L13.8567 37.5071C14.4073 37.5071 14.7284 37.2307 14.7284 36.8159C14.7284 36.3552 14.4073 36.1248 13.8567 36.1248H12.7556V37.5532ZM14.8661 39.6728L13.7191 38.1061L12.7097 38.1522L12.7556 39.6267L12.1132 39.6728L12.0215 35.4797L13.9026 35.4336C14.8661 35.4336 15.4625 35.9405 15.4625 36.7699C15.4625 37.461 15.0496 37.9218 14.3614 38.0601L15.6002 39.5807L15.6919 39.6728H14.8661Z" fill="white"/>
<path d="M12.8463 36.1712H13.9016C14.2228 36.1712 14.7274 36.2634 14.7274 36.8163C14.7274 37.231 14.4063 37.4614 13.9016 37.4614H12.8463V36.1712ZM13.9016 35.3418H12.1123H11.9746V35.48V39.6271V39.7653H12.1123H12.7087H12.8463V39.6271V38.2447H13.6722L14.7274 39.7192L14.7733 39.7653H14.8192H15.5533H15.8286L15.6909 39.5349L14.5898 38.0604C15.1862 37.8761 15.5533 37.3692 15.5533 36.7241C15.5533 35.8947 14.911 35.3418 13.9016 35.3418ZM12.7087 37.5536H13.8557C14.4063 37.5536 14.8192 37.2771 14.8192 36.7702C14.8192 36.2634 14.4522 36.033 13.8557 36.033H12.7087V37.5536ZM13.9016 35.48C14.8192 35.48 15.4156 35.9869 15.4156 36.7702C15.4156 37.4614 14.9568 37.8761 14.3604 38.0143L15.5533 39.6271H14.8192L13.7181 38.1065H12.6628V39.6271H12.0664V35.48H13.9016Z" fill="white"/>
<path d="M19.9584 38.0604L21.5643 37.9683L20.7384 36.3094L19.9584 38.0604ZM22.2525 39.6732L21.7478 38.5673L19.729 38.6134L19.2702 39.6271L18.582 39.6732L20.3714 35.3879L20.9678 35.3418L22.9407 39.6732H22.2525Z" fill="white"/>
<path d="M20.096 37.9233L20.7383 36.4949L21.3807 37.9233H20.096ZM21.1054 35.2969H21.0136H20.4631H20.3713L20.3254 35.389L18.4902 39.5822L18.3984 39.7665H18.582H19.1784H19.2702L19.316 39.6743L19.729 38.7067H21.656L22.0689 39.6743L22.1148 39.7665H22.2065H22.8488H23.0324L22.9406 39.5822L21.1054 35.389V35.2969ZM19.9125 38.0155H21.5642L20.7383 36.1263L19.9125 38.0155ZM21.0136 35.4351L22.8488 39.6282H22.2065L21.7477 38.5684H19.6372L19.1784 39.6282H18.582L20.4172 35.4351H21.0136Z" fill="white"/>
<path d="M29.2722 39.674L26.7488 36.4946L26.8864 39.6279L26.2441 39.674L26.1523 35.4808L26.7947 35.3887L29.2263 38.522L29.1346 35.4808L29.7769 35.3887L29.8228 39.674H29.2722Z" fill="white"/>
<path d="M29.9135 35.3418H29.7759H29.1795H29.0418V35.48V38.1987L26.8854 35.3879L26.8396 35.3418H26.7937H26.2431H26.1055V35.48V39.6271V39.7653H26.2431H26.8396H26.9772V39.6271V36.8163L29.2253 39.6732L29.2712 39.7192H29.3171H29.8218H29.9594V39.6271V35.48V35.3418H29.9135ZM29.7759 35.48V39.6271H29.2712L26.7937 36.4477V39.6271H26.1972V35.48H26.7478L29.1336 38.5673V35.48H29.7759Z" fill="white"/>
<path d="M34.1345 39.0738L34.9603 39.0277C35.8321 39.0277 36.4744 38.4287 36.4744 37.5532C36.4744 36.6777 35.8321 36.0787 34.9603 36.0787H34.1345V39.0738ZM33.4922 39.6728L33.4004 35.4797L34.9603 35.4336C36.2909 35.4336 37.2085 36.3091 37.2085 37.5532C37.2085 38.7973 36.245 39.7189 34.9603 39.7189H33.4922V39.6728Z" fill="white"/>
<path d="M34.2272 36.1712H35.0072C35.833 36.1712 36.4295 36.7242 36.4295 37.5536C36.4295 38.383 35.833 38.9359 35.0072 38.9359H34.2272V36.1712ZM34.9613 35.3418H33.4931H33.3555V35.48V39.6271V39.7653H33.4931H34.9613C36.2918 39.7653 37.3012 38.8438 37.3012 37.5536C37.3012 36.2634 36.3377 35.3418 34.9613 35.3418ZM34.0896 39.0742H34.9613C35.9248 39.0742 36.5212 38.4291 36.5212 37.5536C36.5212 36.6781 35.9248 36.033 34.9613 36.033H34.0896V39.0742ZM34.9613 35.48C36.2459 35.48 37.1635 36.3555 37.1635 37.5536C37.1635 38.7055 36.2459 39.6271 34.9613 39.6271H33.4931V35.48H34.9613Z" fill="white"/>
<path d="M46.9826 39.7653C45.7438 39.7653 44.8262 38.7977 44.8262 37.5536C44.8262 36.3094 45.7438 35.3418 46.9826 35.3418C47.8084 35.3418 48.3131 35.6643 48.6343 36.033L48.2672 36.5859C47.8084 36.2173 47.4414 36.0791 46.9826 36.0791C46.1567 36.0791 45.5603 36.7242 45.5603 37.5996C45.5603 38.4751 46.1567 39.1202 46.9826 39.1202C47.5331 39.1202 47.8543 38.8898 48.1754 38.5673L48.6343 38.9359C48.3131 39.3967 47.8543 39.7653 46.9826 39.7653Z" fill="white"/>
<path d="M46.9825 35.25C45.6979 35.25 44.7344 36.2176 44.7344 37.5539C44.7344 38.8441 45.6979 39.8118 46.9366 39.8118C47.8084 39.8118 48.313 39.4431 48.6801 39.0284L48.7719 38.9363L48.6801 38.8441L48.3131 38.4755L48.2213 38.3833L48.1295 38.4755C47.7625 38.798 47.4872 39.0284 46.9366 39.0284C46.1567 39.0284 45.6061 38.3833 45.6061 37.5539C45.6061 36.7245 46.2026 36.0794 46.9366 36.0794C47.3496 36.0794 47.7166 36.2176 48.0836 36.5863L48.1754 36.6784L48.2672 36.5863L48.6801 36.1255L48.7719 36.0333L48.6801 35.9412C48.3589 35.6186 47.8542 35.25 46.9825 35.25ZM46.9825 35.3882C47.7166 35.3882 48.1754 35.6647 48.5883 36.0333L48.1754 36.4941C47.8542 36.1716 47.4413 35.9412 46.9366 35.9412C46.0649 35.9412 45.4685 36.6324 45.4685 37.5078C45.4685 38.3833 46.1108 39.1206 46.9366 39.1206C47.4872 39.1206 47.8084 38.8902 48.1754 38.5676L48.5425 38.9363C48.1295 39.3971 47.6248 39.6735 46.8908 39.6735C45.6979 39.6735 44.7803 38.752 44.7803 37.5539C44.872 36.3559 45.7896 35.3882 46.9825 35.3882Z" fill="white"/>
<path d="M53.8644 36.033C53.0385 36.033 52.4421 36.6781 52.4421 37.5536C52.4421 38.4291 53.0844 39.0742 53.9103 39.0742C54.7361 39.0742 55.3325 38.4291 55.3325 37.5536C55.3325 36.6781 54.6902 36.033 53.8644 36.033ZM53.8644 39.7653C52.6256 39.7653 51.6621 38.7977 51.6621 37.5536C51.6621 36.3094 52.6256 35.3418 53.8644 35.3418C55.1031 35.3418 56.0666 36.3094 56.0666 37.5536C56.0666 38.7977 55.1031 39.7653 53.8644 39.7653Z" fill="white"/>
<path d="M53.8643 38.9824C53.0844 38.9824 52.4879 38.3373 52.4879 37.5078C52.4879 36.6784 53.0844 36.0333 53.8643 36.0333C54.6443 36.0333 55.2407 36.6784 55.2407 37.5078C55.2407 38.3833 54.6443 38.9824 53.8643 38.9824ZM53.8643 35.25C52.5797 35.25 51.5703 36.2637 51.5703 37.5539C51.5703 38.8441 52.5338 39.8118 53.8185 39.8118C55.1031 39.8118 56.1125 38.798 56.1125 37.5078C56.1125 36.2176 55.149 35.25 53.8643 35.25ZM53.8643 39.1206C54.7361 39.1206 55.3784 38.4294 55.3784 37.5539C55.3784 36.6784 54.7361 35.9412 53.8643 35.9412C52.9926 35.9412 52.3503 36.6324 52.3503 37.5539C52.3503 38.4294 52.9926 39.1206 53.8643 39.1206ZM53.8643 35.3882C55.149 35.3882 55.9748 36.3559 55.9748 37.5078C55.9748 38.6598 55.1031 39.6735 53.8185 39.6735C52.5338 39.6735 51.708 38.7059 51.708 37.5539C51.7538 36.402 52.6256 35.3882 53.8643 35.3882Z" fill="white"/>
<path d="M62.5808 39.674L60.0574 36.4946L60.195 39.6279L59.5527 39.674L59.4609 35.4808L60.1033 35.3887L62.5349 38.522L62.4432 35.4808L63.0855 35.3887L63.1314 39.674H62.5808Z" fill="white"/>
<path d="M63.2241 35.3418H63.0865H62.49H62.3524V35.48V38.1987L60.196 35.3879L60.1501 35.3418H60.1042H59.5537H59.416V35.48V39.6271V39.7653H59.5537H60.1501H60.2877V39.6271V36.8163L62.5359 39.6732L62.5818 39.7192H62.6276H63.1323H63.27V39.6271V35.48V35.3418H63.2241ZM63.0865 35.48V39.6271H62.5818L60.1042 36.4477V39.6271H59.5078V35.48H60.0583L62.4441 38.5673V35.48H63.0865Z" fill="white"/>
<path d="M67.8578 39.674L67.7661 36.0338L66.4814 36.0798L66.4355 35.4808L69.7848 35.3887L69.8766 36.0338L68.4543 36.0798L68.5002 39.674H67.8578Z" fill="white"/>
<path d="M69.9224 35.3418H69.7848H66.4814H66.3438V35.48V36.033V36.1712H66.4814H67.6743V39.6271V39.7653H67.8119H68.4084H68.546V39.6271V36.1712H69.7848H69.9224V36.033V35.48V35.3418ZM69.7848 35.48V36.033H68.4542V39.6271H67.8578V36.033H66.5273V35.48H69.7848Z" fill="white"/>
<path d="M73.6841 38.0604L75.2899 37.9683L74.464 36.3094L73.6841 38.0604ZM75.9781 39.6732L75.4734 38.5673L73.4547 38.6134L73.0417 39.6271L72.3535 39.6732L74.1429 35.3879L74.7393 35.3418L76.7122 39.6732H75.9781Z" fill="white"/>
<path d="M73.8226 37.9233L74.4649 36.4949L75.1072 37.9233H73.8226ZM74.832 35.2969H74.7402H74.1896H74.0979L74.052 35.389L72.2168 39.5822L72.125 39.7665H72.3085H72.905H72.9967L73.0426 39.6743L73.4555 38.7067H75.3825L75.7954 39.6743L75.8413 39.7665H75.9331H76.5754H76.7589L76.6672 39.5822L74.832 35.389V35.2969ZM73.6391 38.0155H75.2908L74.4649 36.1263L73.6391 38.0155ZM74.7402 35.4351L76.5754 39.6282H75.9331L75.4743 38.5684H73.4097L72.9508 39.6282H72.3544L74.1896 35.4351H74.7402Z" fill="white"/>
<path d="M81.6212 39.7653C80.3825 39.7653 79.4648 38.7977 79.4648 37.5536C79.4648 36.3094 80.3825 35.3418 81.6212 35.3418C82.4471 35.3418 82.9518 35.6643 83.2729 36.033L82.9059 36.5859C82.4471 36.2173 82.08 36.0791 81.6212 36.0791C80.7954 36.0791 80.1989 36.7242 80.1989 37.5996C80.1989 38.4751 80.7954 39.1202 81.6212 39.1202C82.1718 39.1202 82.493 38.8898 82.8141 38.5673L83.3188 38.9359C82.9518 39.3967 82.493 39.7653 81.6212 39.7653Z" fill="white"/>
<path d="M81.6212 35.25C80.3365 35.25 79.373 36.2176 79.373 37.5539C79.373 38.8441 80.3365 39.8118 81.5753 39.8118C82.447 39.8118 82.9517 39.4431 83.3188 39.0284L83.4105 38.9363L83.3188 38.8441L82.9517 38.4755L82.86 38.3833L82.7682 38.4755C82.447 38.798 82.1259 39.0284 81.6212 39.0284C80.8412 39.0284 80.2907 38.3833 80.2907 37.5539C80.2907 36.7245 80.8871 36.0794 81.6212 36.0794C82.0341 36.0794 82.4012 36.2176 82.7682 36.5863L82.86 36.6784L82.9517 36.5863L83.3646 36.1255L83.4564 36.0333L83.3646 35.9412C82.9976 35.6186 82.4929 35.25 81.6212 35.25ZM81.6212 35.3882C82.3553 35.3882 82.8141 35.6647 83.227 36.0333L82.8141 36.4941C82.4929 36.1716 82.08 35.9412 81.5753 35.9412C80.7036 35.9412 80.1071 36.6324 80.1071 37.5078C80.1071 38.3833 80.7495 39.1206 81.5753 39.1206C82.1259 39.1206 82.447 38.8902 82.8141 38.5676L83.1811 38.9363C82.7682 39.3971 82.2635 39.6735 81.5294 39.6735C80.3365 39.6735 79.4189 38.752 79.4189 37.5539C79.5107 36.3559 80.3824 35.3882 81.6212 35.3882Z" fill="white"/>
<path d="M87.7231 39.674L87.6313 36.0338L86.3467 36.0798L86.3008 35.4808L89.65 35.3887L89.7418 36.0338L88.3195 36.0798L88.3654 39.674H87.7231Z" fill="white"/>
<path d="M89.7877 35.3418H89.65H86.3466H86.209V35.48V36.033V36.1712H86.3466H87.5395V39.6271V39.7653H87.6772H88.2736H88.4112V39.6271V36.1712H89.6041H89.7418V36.033V35.48V35.3418H89.7877ZM89.65 35.48V36.033H88.3195V39.6271H87.723V36.033H86.3925V35.48H89.65Z" fill="white"/>
<path d="M97.4502 39.674L97.4043 35.4808L98.0466 35.3887L98.1384 39.0749L100.295 38.9828L100.387 39.6279V39.674H97.4502Z" fill="white"/>
<path d="M98.1842 35.3418H98.0466H97.4501H97.3125V35.48V39.6271V39.7653H97.4501H100.295H100.432V39.6271V39.0742V38.9359H100.295H98.1842V35.48V35.3418ZM98.0466 35.48V39.0742H100.295V39.6271H97.4501V35.48H98.0466Z" fill="white"/>
<path d="M103.736 39.674L103.645 35.4808L106.719 35.3887L106.81 35.9877L104.333 36.0798L104.379 37.2318L106.489 37.1857L106.535 37.7847L104.333 37.8769L104.379 39.0749L106.764 39.0289L106.856 39.6279V39.674H103.736Z" fill="white"/>
<path d="M106.856 35.3418H106.718H103.69H103.553V35.48V39.6271V39.7653H103.69H106.764H106.902V39.6271V39.0742V38.9359H106.764H104.424V37.9222H106.443H106.581V37.784V37.231V37.0928H106.443H104.424V36.1251H106.718H106.856V35.9869V35.48V35.3418ZM106.718 35.48V36.033H104.287V37.2771H106.443V37.784H104.287V39.0742H106.764V39.6271H103.69V35.48H106.718Z" fill="white"/>
<path d="M113.325 39.674L110.802 36.4946L110.939 39.6279L110.251 39.674L110.205 35.4808L110.847 35.3887L113.279 38.522L113.187 35.4808L113.83 35.3887L113.876 39.674H113.325Z" fill="white"/>
<path d="M113.967 35.3418H113.83H113.233H113.096V35.48V38.1987L110.939 35.3879L110.893 35.3418H110.847H110.297H110.113V35.48V39.6271V39.7653H110.251H110.847H110.985V39.6271V36.8163L113.233 39.6732L113.279 39.7192H113.325H113.83H113.967V39.6271V35.48V35.3418ZM113.83 35.48V39.6271H113.325L110.847 36.4477V39.6271H110.251V35.48H110.801L113.187 38.5673V35.48H113.83Z" fill="white"/>
<path d="M118.968 39.7661C118.326 39.7661 117.729 39.5357 117.225 39.0749L117.592 38.5681C118.142 38.9367 118.509 39.121 119.014 39.121C119.473 39.121 119.794 38.8906 119.794 38.5681C119.794 38.2916 119.656 38.1073 118.83 37.923C117.959 37.7387 117.408 37.4161 117.408 36.6328C117.408 35.8955 118.005 35.3887 118.876 35.3887C119.473 35.3887 119.932 35.573 120.39 35.9416L120.069 36.4946C119.61 36.2181 119.243 36.0798 118.876 36.0798C118.463 36.0798 118.188 36.3102 118.188 36.5867C118.188 36.9093 118.326 37.0475 119.197 37.2779C120.161 37.5083 120.574 37.8769 120.574 38.522C120.482 39.2132 119.886 39.7661 118.968 39.7661Z" fill="white"/>
<path d="M118.784 35.2969C117.913 35.2969 117.27 35.8498 117.27 36.5871C117.27 37.4165 117.867 37.739 118.739 37.9233C119.564 38.1077 119.656 38.292 119.656 38.5224C119.656 38.7988 119.381 39.0292 118.968 39.0292C118.509 39.0292 118.096 38.891 117.683 38.4763L117.592 38.3841L117.5 38.4763L117.133 38.891L117.041 38.9831L117.133 39.0753C117.637 39.5361 118.234 39.7665 118.922 39.7665C119.886 39.7665 120.482 39.2135 120.482 38.4302C120.482 37.5547 119.748 37.2782 119.06 37.0939C118.188 36.9096 118.096 36.7253 118.096 36.4949C118.096 36.2184 118.372 36.0341 118.739 36.0341C119.106 36.0341 119.473 36.1724 119.794 36.4488L119.886 36.541L119.977 36.4488L120.299 35.9881L120.39 35.8959L120.299 35.8037C119.886 35.4351 119.427 35.2969 118.784 35.2969ZM118.784 35.389C119.381 35.389 119.84 35.5733 120.253 35.8959L119.931 36.3567C119.564 36.0802 119.197 35.8959 118.784 35.8959C118.28 35.8959 118.005 36.1724 118.005 36.4949C118.005 36.8635 118.188 37.0479 119.06 37.2322C119.977 37.4165 120.39 37.7851 120.39 38.4302C120.39 39.1675 119.794 39.6282 118.968 39.6282C118.326 39.6282 117.775 39.3979 117.27 38.9831L117.637 38.5684C118.05 38.9371 118.463 39.1214 119.014 39.1214C119.519 39.1214 119.84 38.891 119.84 38.5224C119.84 38.1537 119.656 37.9694 118.83 37.7851C117.913 37.6008 117.454 37.2782 117.454 36.541C117.408 35.8959 118.004 35.389 118.784 35.389Z" fill="white"/>
<path d="M123.924 39.674L123.832 35.4808L126.952 35.3887L126.998 35.9877L124.52 36.0798L124.566 37.2318L126.677 37.1857L126.723 37.7847L124.52 37.8769L124.566 39.0749L126.952 39.0289L127.044 39.6279V39.674H123.924Z" fill="white"/>
<path d="M127.089 35.3418H126.951H123.923H123.785V35.48V39.6271V39.7653H123.923H126.997H127.134V39.6271V39.0742V38.9359H126.997H124.657V37.9222H126.676H126.813V37.784V37.231V37.0928H126.676H124.657V36.1251H126.951H127.089V35.9869V35.48V35.3418ZM126.951 35.48V36.033H124.519V37.2771H126.676V37.784H124.519V39.0742H126.997V39.6271H123.923V35.48H126.951Z" fill="white"/>
<path d="M131.906 39.7661C131.263 39.7661 130.667 39.5357 130.162 39.0749L130.529 38.5681C131.034 38.9367 131.447 39.121 131.951 39.121C132.41 39.121 132.731 38.8906 132.731 38.5681C132.731 38.2916 132.594 38.1073 131.768 37.923C130.896 37.7387 130.346 37.4161 130.346 36.6328C130.346 35.8955 130.942 35.3887 131.814 35.3887C132.41 35.3887 132.869 35.573 133.328 35.9416L133.007 36.4946C132.548 36.2181 132.181 36.0798 131.814 36.0798C131.401 36.0798 131.126 36.3102 131.126 36.5867C131.126 36.9093 131.263 37.0475 132.135 37.2779C133.098 37.5083 133.511 37.8769 133.511 38.522C133.42 39.2132 132.777 39.7661 131.906 39.7661Z" fill="white"/>
<path d="M131.722 35.2969C130.85 35.2969 130.208 35.8498 130.208 36.5871C130.208 37.4165 130.804 37.739 131.676 37.9233C132.502 38.1077 132.594 38.292 132.594 38.5224C132.594 38.7988 132.318 39.0292 131.906 39.0292C131.447 39.0292 131.034 38.891 130.621 38.4763L130.529 38.3841L130.437 38.4763L130.07 38.891L129.979 38.9831L130.07 39.0753C130.575 39.5361 131.171 39.7665 131.86 39.7665C132.823 39.7665 133.42 39.2135 133.42 38.4302C133.42 37.5547 132.685 37.2782 131.997 37.0939C131.126 36.9096 131.034 36.7253 131.034 36.4949C131.034 36.2184 131.309 36.0341 131.676 36.0341C132.043 36.0341 132.41 36.1724 132.731 36.4488L132.823 36.541L132.915 36.4488L133.236 35.9881L133.328 35.8959L133.236 35.8037C132.823 35.4351 132.364 35.2969 131.722 35.2969ZM131.722 35.389C132.318 35.389 132.777 35.5733 133.19 35.8959L132.869 36.3567C132.502 36.0802 132.089 35.8959 131.722 35.8959C131.217 35.8959 130.942 36.1724 130.942 36.4949C130.942 36.8635 131.126 37.0479 131.997 37.2322C132.915 37.4165 133.328 37.7851 133.328 38.4302C133.328 39.1675 132.731 39.6282 131.906 39.6282C131.263 39.6282 130.713 39.3979 130.208 38.9831L130.575 38.5684C130.988 38.9371 131.401 39.1214 131.951 39.1214C132.456 39.1214 132.777 38.891 132.777 38.5224C132.777 38.1537 132.594 37.9694 131.768 37.7851C130.85 37.6008 130.391 37.2782 130.391 36.541C130.346 35.8959 130.942 35.389 131.722 35.389Z" fill="white"/>
<path d="M40.0536 28.8912C42.1183 28.8912 44.8252 28.5226 46.3851 26.8638L46.431 26.9099V29.7667C44.5499 30.3197 41.8888 30.8265 39.8701 30.8265C33.5386 30.7805 27.3906 27.0942 27.3906 19.1226C27.3906 13.1324 32.1163 7.23438 40.0536 7.23438C41.843 7.23438 44.3664 7.74124 45.8346 8.29418V10.5981L45.7887 10.6442C44.3205 9.35398 41.7971 8.84712 39.6407 8.84712C34.5939 8.84712 30.5564 12.7177 30.5564 18.754C30.5105 26.0344 34.915 28.8452 40.0536 28.8912Z" fill="white"/>
<path d="M118.877 7.74219V30.2745H133.329V28.2932H121.722V19.2157H131.448V17.4647H121.722V9.58532H132.641V7.74219H118.877Z" fill="white"/>
<path d="M66.6637 7.74139V22.0718C66.6637 26.2649 64.645 29.0757 59.9193 29.0757C54.9183 29.0757 53.8631 25.5277 53.8631 22.2561V7.74139H50.8809V22.3943C50.8809 27.3708 54.3219 30.7806 59.9193 30.7806C65.5167 30.7806 68.7284 26.91 68.7284 21.9796V7.69531H66.6637V7.74139Z" fill="white"/>
<path d="M90.523 7.74219L82.9986 26.9108L75.2907 7.74219H72.0332L81.3469 30.3667H83.5033L92.7253 7.74219H90.523Z" fill="white"/>
<path d="M23.5358 30.2741H26.885L16.6996 7.60352H13.2127V7.78783C14.2679 8.47901 14.3138 9.40057 13.7174 11.0133L5.18359 30.2741H7.5235L10.414 23.5006H20.6453L23.5358 30.2741ZM11.1481 21.7496L15.5067 11.3359L19.9571 21.7496H11.1481Z" fill="white"/>
<path d="M111.717 7.74139V22.0718C111.717 26.2649 109.699 29.0757 104.973 29.0757C99.972 29.0757 98.9168 25.5277 98.9168 22.2561V7.74139H95.8887V22.3943C95.8887 27.3708 99.3297 30.7806 104.927 30.7806C110.525 30.7806 113.736 26.91 113.736 21.9796V7.69531H111.717V7.74139Z" fill="white"/>
</svg>
