<svg width="162" height="33" viewBox="0 0 162 33" fill="none" xmlns="http://www.w3.org/2000/svg">
<path d="M135.934 21.5469C136.673 21.5469 137.261 22.1266 137.261 22.8294C137.261 23.5519 136.672 24.1212 135.93 24.1212C135.753 24.1216 135.577 24.0884 135.413 24.0236C135.25 23.9587 135.101 23.8635 134.976 23.7435C134.851 23.6234 134.751 23.4808 134.684 23.3239C134.617 23.167 134.583 22.999 134.584 22.8294C134.584 22.1266 135.189 21.5469 135.93 21.5469H135.934ZM135.923 21.808C135.363 21.808 134.91 22.2671 134.91 22.8375C134.91 23.4132 135.363 23.8647 135.932 23.8647C136.5 23.8722 136.956 23.4143 136.956 22.8375C136.956 22.2671 136.5 21.808 135.932 21.808H135.923ZM135.696 23.5768H135.379V22.1516C135.499 22.1353 135.632 22.1104 135.857 22.1104C136.111 22.1104 136.272 22.1516 136.372 22.2282C136.454 22.2903 136.5 22.3854 136.5 22.534C136.5 22.7075 136.375 22.8253 136.21 22.8683V22.8758C136.347 22.8973 136.429 23.0145 136.453 23.2234C136.485 23.4468 136.515 23.5304 136.537 23.5768H136.208C136.17 23.5269 136.148 23.401 136.12 23.2101C136.096 23.054 136.002 22.9896 135.837 22.9896H135.696V23.5768ZM135.696 22.7557H135.845C136.029 22.7557 136.17 22.6959 136.17 22.5502C136.17 22.4324 136.084 22.3419 135.868 22.3419C135.795 22.3419 135.732 22.3419 135.696 22.3495V22.7557ZM33.1833 29.4456C33.1833 31.1164 33.384 31.2226 35.467 31.3183V31.9213H27.1328V31.3183C28.8427 31.2237 29.0398 31.1164 29.0398 29.4456V24.3324C29.0398 22.6582 28.8427 22.5497 27.259 22.458V21.8539H34.5881C36.9488 21.8539 38.3287 22.068 39.3302 22.5189C40.4117 22.9983 41.1147 23.7126 41.1147 24.7485C41.1147 26.8284 38.6029 27.8962 35.7939 28.0517C35.5161 28.0639 35.2656 28.0639 35.0648 28.0639L33.1833 27.801V29.4456ZM33.1833 27.0268C33.5374 27.1059 33.8994 27.148 34.263 27.1522C35.0648 27.1522 36.6213 26.7785 36.6213 24.7357C36.6213 23.1224 35.1934 22.6245 34.0598 22.6245C33.2342 22.6245 33.1833 22.7075 33.1833 23.1869V27.0268Z" fill="white"/>
<path d="M45.9847 29.3701C45.9847 31.0918 46.1818 31.2012 47.882 31.2999V31.9213H39.9023V31.2999C41.6014 31.2024 41.799 31.0918 41.799 29.3701V24.101C41.799 22.3757 41.602 22.2639 39.9023 22.1694V21.5469H47.8826V22.1694C46.1824 22.2639 45.9853 22.3769 45.9853 24.101L45.9847 29.3701Z" fill="white"/>
<path d="M60.3504 24.9318C59.5253 22.9263 57.9249 22.3994 56.0913 22.3994C52.9966 22.3994 51.0875 24.536 51.0875 26.9029C51.0875 29.9271 53.4076 31.8655 56.0651 31.8655C58.3135 31.8655 59.602 30.9459 60.9173 29.1386L62.0537 29.2531C61.7188 30.2201 61.1007 31.6359 60.6597 32.2613C60.0161 32.377 57.6904 32.7193 55.9647 32.7193C49.0219 32.7193 46.2852 29.9271 46.2852 27.2802C46.2852 23.8786 50.4682 21.5469 56.4299 21.5469C58.5735 21.5469 60.2974 21.8713 61.0221 21.9753C61.2285 22.8808 61.3308 23.6022 61.4861 24.8334L60.3504 24.9318ZM71.518 29.8459C71.518 31.6181 71.7251 31.7307 73.8924 31.8323V32.4718H64.8565V31.8323C66.924 31.7319 67.1304 31.6181 67.1304 29.8459V22.6475H66.6914C64.9631 22.6475 64.264 22.8439 63.853 23.1387C63.5436 23.3837 63.2312 23.8134 62.8981 24.7324H61.8136C61.9177 23.3542 62.0693 22.2191 62.1229 21.7974H76.5748C76.601 22.072 76.7289 23.4674 76.8605 24.6844L75.7223 24.7312C75.3368 23.7481 75.0512 23.3178 74.6651 23.039C74.2267 22.7441 73.3741 22.6463 72.1361 22.6463H71.518V29.8459ZM85.3918 21.7931V22.4339C83.6854 22.5312 83.4821 22.6475 83.4821 24.4222V27.7708C83.4821 30.1025 84.7687 31.4383 87.067 31.4383C89.7008 31.4383 91.144 29.9917 91.144 27.2784V26.2935C91.144 24.6838 91.0405 23.7777 90.9382 23.2692C90.8103 22.6961 90.1124 22.4825 88.411 22.4333V21.7931H94.9385V22.4339C93.6973 22.4665 93.0288 22.698 92.8978 23.2698C92.798 23.7783 92.6945 24.6844 92.6945 26.2941V27.5603C92.6945 28.9742 92.2791 30.4694 90.8371 31.4882C89.7008 32.2755 87.7356 32.7193 85.9331 32.7193C84.0746 32.7193 82.3195 32.5063 81.0553 31.8317C79.6895 31.1262 79.0926 29.945 79.0926 28.0213V24.4228C79.0926 22.6469 78.8856 22.5318 77.0806 22.4345V21.7931H85.3918ZM101.452 29.8459C101.452 31.6181 101.657 31.7307 103.44 31.8323V32.4718H95.2859V31.8323C97.1164 31.7319 97.324 31.6181 97.324 29.8459V24.4222C97.324 22.6463 97.1164 22.5312 95.3863 22.4339V21.7931H103.442C105.453 21.7931 106.798 21.9396 107.805 22.3533C108.835 22.7608 109.609 23.4982 109.609 24.4689C109.609 25.9174 108.19 26.7724 106.279 27.2482C106.641 27.7056 107.595 28.8413 108.347 29.599C109.223 30.47 109.79 31.0253 110.205 31.3571C110.669 31.703 111.081 31.9129 111.724 32.0459L111.674 32.6214L110.564 32.6048C106.899 32.5562 106.05 32.0637 105.015 31.1114C104.243 30.4042 103.523 29.3842 102.874 28.4664C102.638 28.1174 102.277 27.8718 101.793 27.8718H101.455V29.8459H101.452ZM101.452 27.0998H101.813C102.635 27.0998 103.258 27.0494 103.748 26.8216C104.808 26.2959 105.192 25.5222 105.192 24.717C105.192 23.1387 103.62 22.6106 102.612 22.6106C101.526 22.6106 101.452 22.6623 101.452 23.3178V27.0998Z" fill="white"/>
<path d="M112.919 24.1004C112.919 22.3751 112.734 22.2627 111.165 22.1694V21.5469H122.282C122.306 21.8178 122.425 22.9821 122.542 24.1781L121.511 24.226C121.276 23.4456 121.016 22.9983 120.647 22.7429C120.266 22.4702 119.493 22.3763 118.252 22.3763H117.85C116.956 22.3763 116.913 22.3763 116.913 22.9349V26.0164H118.083C120.103 26.0164 120.173 25.9208 120.411 24.708H121.439V28.4761H120.411C120.173 27.0696 120.103 26.9715 118.083 26.9715H116.913V29.5746C116.913 30.4083 116.956 30.8066 117.378 30.9495C117.754 31.0787 118.297 31.0918 119.02 31.0918C119.962 31.0918 120.993 30.9973 121.511 30.6134C121.911 30.3293 122.306 29.7337 122.659 28.9712L123.694 29.0789C123.575 29.8629 123.082 31.4895 122.871 31.9213H110.926V31.2999C112.734 31.2024 112.92 31.0918 112.92 29.3695L112.919 24.1004Z" fill="white"/>
<path d="M124.685 29.0767C125.215 30.0342 126.706 31.8654 129.177 31.8654C130.493 31.8654 131.503 31.3036 131.503 30.2336C131.503 29.2594 130.544 28.6846 128.973 28.2531L128.598 28.1376C126.502 27.5277 124.177 26.6578 124.177 24.8915C124.177 23.0295 126.25 21.5132 130.215 21.5132C130.997 21.5132 131.808 21.5786 132.541 21.7114C133.122 21.8052 133.52 21.875 133.849 21.9429C133.951 22.5806 134.131 23.3894 134.41 24.5099L133.296 24.6248C132.743 23.5376 131.855 22.3676 129.86 22.3676C128.574 22.3676 127.662 23.0109 127.662 23.8061C127.662 24.6248 128.625 25.1218 130.267 25.5817L130.823 25.7478C133.145 26.4257 135.139 27.2813 135.139 29.2076C135.139 31.2363 132.64 32.7192 128.727 32.7192C127.711 32.7192 126.678 32.5902 125.998 32.4402C125.236 32.2741 124.708 32.142 124.408 32.0438C124.204 31.285 123.878 30.3966 123.572 29.2897L124.685 29.0767ZM0.00366159 17.3243H161.993V18.2398H0.00366159V17.3243ZM157.644 7.68389L157.083 7.52214C155.422 7.06343 154.457 6.57878 154.457 5.76385C154.457 4.98533 155.373 4.35005 156.677 4.35005C158.686 4.35005 159.577 5.50702 160.135 6.57817L161.256 6.46519C160.978 5.35576 160.801 4.56243 160.699 3.92714C160.257 3.84544 159.814 3.77073 159.37 3.70304C158.599 3.56915 157.817 3.50346 157.034 3.50671C153.029 3.50671 150.942 5.00262 150.942 6.83747C150.942 8.57601 153.286 9.44034 155.402 10.0404L155.782 10.1546C157.362 10.5794 158.33 11.1462 158.33 12.1049C158.33 13.1594 157.31 13.7144 155.984 13.7144C153.495 13.7144 151.984 11.9105 151.45 10.9653L150.33 11.1783C150.607 12.1525 150.897 12.9538 151.101 13.6447C150.257 13.5478 149.585 13.2965 148.395 12.2685C146.816 10.9017 145.162 9.22734 143.602 7.68204C144.658 6.88686 145.906 6.05895 147.265 5.21191C148.571 4.38215 149.346 4.36363 150.776 4.26423V3.60055H144.056V4.08766L145.011 4.14878C145.686 4.20003 145.413 4.64392 145.061 4.93656C143.601 6.17132 142.073 7.37582 140.243 8.70751V6.17132C140.243 4.41673 140.446 4.18274 142.102 4.08766V3.60055H134.272V4.08766C136.034 4.18274 136.235 4.41673 136.235 6.17132V11.7148C136.235 12.7501 136.161 13.3341 135.77 13.5545C135.185 13.8305 134.765 13.6552 134.336 13.3341C133.929 13.0069 133.377 12.3352 132.517 11.4727C131.785 10.7232 130.85 9.48232 130.495 9.02978C132.364 8.55563 133.758 7.71291 133.758 6.27998C133.758 5.32242 132.996 4.52909 131.989 4.12224C131.005 3.71724 129.691 3.60055 127.723 3.60055H119.695L119.844 4.08766C121.536 4.18274 121.59 4.41673 121.59 6.17132V11.7148C121.59 13.4718 121.388 13.704 119.593 13.8027V14.3182H127.723V13.8027C125.981 13.704 125.775 13.4718 125.775 11.7148V9.64407H126.107C126.584 9.64407 126.939 9.88608 127.166 10.2281C127.795 11.1412 128.505 12.2685 129.258 12.9649C130.27 13.9108 131.089 14.5183 134.603 14.4448C134.87 14.4448 135.873 14.3726 136.103 14.317H142.229V13.8015C140.449 13.7027 140.197 13.4706 140.246 11.7135V9.11436H140.3C142.123 10.8838 144.748 13.2761 145.699 14.317H151.467V13.9744C151.783 14.0639 152.216 14.1627 152.777 14.2824C153.469 14.4269 154.507 14.5603 155.532 14.5603C159.478 14.5603 162 13.0989 162 11.0949C161.998 9.19709 159.988 8.35004 157.644 7.68389ZM128.025 8.60502C127.543 8.82913 126.939 8.88099 126.13 8.88099H125.774V5.08288C125.774 4.4334 125.854 4.26423 126.914 4.26423C127.898 4.26423 129.438 4.96311 129.438 6.52507C129.437 7.31841 129.057 8.08334 128.025 8.60502ZM116.796 8.86741C116.796 5.59839 115.117 4.03457 112.903 4.03457C110.922 4.03457 109.101 5.94289 109.101 8.78592C109.101 10.9338 110.377 13.5181 112.903 13.5181C115.112 13.5181 116.796 11.1721 116.796 8.86741ZM23.3779 4.1599C23.8126 4.83531 24.1025 5.61753 24.1025 6.48742C24.1025 11.9796 17.3819 14.3084 9.16952 14.3084H0V13.5953C2.59545 13.4619 2.87868 13.1878 2.87868 10.8072V3.53573C2.87868 1.15327 2.59545 1.00139 0.285059 0.868035V0.0061751H10.6638C15.0355 0.0061751 18.6626 0.536502 21.0438 1.97191C21.7602 2.40937 22.4019 2.96124 22.9439 3.60611L30.7169 3.60055C32.6519 3.60055 33.9404 3.75058 34.9097 4.16175C35.9004 4.57478 36.6457 5.31501 36.6457 6.28491C36.6457 7.73761 35.2833 8.59144 33.4454 9.06929C33.7945 9.53171 34.7138 10.6677 35.4304 11.4252C36.274 12.2982 36.8185 12.8575 37.2159 13.1872C37.4472 13.3662 37.6676 13.5107 37.9123 13.6268C39.2656 13.5126 39.4225 13.2384 39.4225 11.6728V6.23614C39.4225 4.45624 39.2235 4.22225 37.5437 4.12162V3.59994H49.4252C49.4545 3.87961 49.5796 5.08226 49.7048 6.31702L48.6012 6.36826C48.3509 5.5595 48.0732 4.98163 47.6746 4.71492C47.2735 4.4371 46.4452 4.33832 45.1139 4.33832H44.6878C43.7368 4.33832 43.6886 4.45562 43.6886 5.03287V8.21422H44.9387C47.0959 8.21422 47.171 8.11359 47.4237 6.8634H48.5255V10.751H47.4237C47.171 9.30081 47.0953 9.20018 44.9387 9.20018H43.688V11.887C43.688 12.7439 43.7362 13.2743 44.1885 13.4249C44.5896 13.5539 45.1652 13.5694 45.9422 13.5694C46.9445 13.5694 48.371 13.4724 48.9222 13.0761C49.117 12.9409 49.3117 12.6217 49.4978 12.3698C49.5503 12.2858 49.6083 12.1988 49.6633 12.0994L54.599 3.58203L56.3027 3.3536L57.9849 6.46457C58.9923 8.3339 60.0122 10.1964 61.0443 12.0518C61.377 12.6556 61.767 13.2718 61.9416 13.2452C62.096 13.2088 62.1229 12.9983 62.1656 12.8242C62.2944 12.3149 62.4525 11.4413 62.5795 9.94165L62.859 6.61521C63.0403 4.53712 62.8346 4.24016 60.8056 4.12039V3.5987H66.8413L71.3357 10.1219L75.2661 3.5987H80.5181L80.0883 2.75227C79.1355 0.900755 78.5031 0.900756 76.8813 0.76555V0.0172865H87.8777V0.76555L86.7503 0.856305C85.4459 0.968668 85.3385 1.09399 85.7645 2.0071L89.1144 9.44219L89.1858 9.32427L93.8017 0H96.2666L101.626 9.32427L101.696 9.44219C102.929 6.83253 104.235 3.71662 104.729 2.4016C105.188 1.1298 105.081 0.945825 103.565 0.856305L102.227 0.76555V0.0172865H110.656V0.76555C108.682 0.945825 108.361 0.922983 107.164 2.88501C107.087 3.01281 106.519 4.0747 105.67 5.74162C107.059 4.2877 109.184 3.18753 112.888 3.18753C117.601 3.18753 121.583 5.3644 121.583 8.58403C121.583 12.063 117.827 14.4794 112.879 14.4794C107.679 14.4794 104.312 11.8493 104.312 8.85876C104.312 8.70874 104.32 8.5544 104.338 8.40005C103.465 10.1719 102.468 12.0994 101.453 14.3164H98.735L93.5539 5.40453H93.4862L88.7579 14.3164H86.0441L80.8111 4.17718C79.5329 4.31856 79.4633 4.66059 79.5304 6.15095L79.7862 11.6709C79.8649 13.5015 79.9174 13.6669 81.7645 13.783V14.3065H73.7237V13.783C75.6519 13.6669 75.7294 13.5015 75.7038 11.6709L75.6269 5.87251H75.5231L70.5654 14.1232H69.1804L64.4797 6.45037H64.429L64.2483 10.1059C64.1714 11.5203 64.1958 12.3136 64.3002 12.823C64.4046 13.4342 64.9668 13.7009 66.635 13.7824V14.3059H55.735V13.7824L56.4778 13.7163C57.3898 13.6342 57.4374 13.3527 57.1175 12.755L56.2294 11.0801H52.1818L51.4426 12.6581C51.0953 13.3656 51.1191 13.6527 52.2569 13.7348L52.9735 13.7824V14.3059H38.5722C38.397 14.3615 38.0753 14.4183 37.5626 14.4374C34.0424 14.3917 33.222 13.8929 32.2295 12.9378C31.4866 12.2303 30.7919 11.2079 30.1699 10.2868C29.9459 9.94041 29.6017 9.69285 29.1292 9.69285H28.8075V11.6703C28.8075 13.4496 29.0041 13.6836 30.7163 13.7824V14.3059H22.878V13.7824C24.639 13.6836 24.8393 13.4496 24.8393 11.6703V6.23367C24.8393 4.66553 24.683 4.29572 23.508 4.16669L23.3779 4.1599ZM17.5614 7.17147C17.5614 2.43124 13.6865 1.10943 10.6638 1.10943C9.84646 1.10943 9.38622 1.17549 9.13595 1.26316C8.95649 1.30699 8.92353 1.81509 8.92353 2.36518V10.8313C8.92353 12.7896 9.70241 13.2878 11.4091 13.2878C14.4691 13.2885 17.5614 11.0733 17.5614 7.17147ZM32.4046 6.53248C32.4046 4.94952 30.889 4.30436 29.9239 4.30436C28.8832 4.30436 28.8081 4.47167 28.8081 5.13412V8.92112H29.1548C29.9459 8.92112 30.5435 8.87173 31.016 8.6396C32.0335 8.11421 32.4046 7.34125 32.4046 6.53248ZM55.7631 10.0911L54.2053 6.94366H54.132L52.6042 10.0911H55.7631Z" fill="white"/>
</svg>
