<svg width="92" height="32" viewBox="0 0 92 32" fill="none" xmlns="http://www.w3.org/2000/svg">
<path d="M0 1.14062V30.8826H9.32195V20.1493H15.7844L18.2952 13.6291H9.32195V7.61079H20.2593L22.6448 1.14062H0ZM25.4797 1.14062L25.4551 30.8826H34.6765V1.14062H25.4797ZM70.7961 21.1762L74.351 8.78873L78.0299 21.1773L70.7961 21.1762ZM79.273 1.14169H69.7274L59.1367 30.8826H68.0372L69.1797 26.8958H79.5458L80.7396 30.8826H89.9118L79.273 1.14062V1.14169ZM41.0159 1.14062V30.8826H50.3379V20.1493H56.8004L59.3357 13.6291H50.3379V7.60973H61.2752L63.6865 1.14062H41.0159Z" fill="white"/>
</svg>
