<svg width="159" height="38" viewBox="0 0 159 38" fill="none" xmlns="http://www.w3.org/2000/svg">
<g clip-path="url(#clip0_134_8426)">
<mask id="mask0_134_8426" style="mask-type:luminance" maskUnits="userSpaceOnUse" x="0" y="0" width="159" height="38">
<path d="M159 0H0V38H159V0Z" fill="white"/>
</mask>
<g mask="url(#mask0_134_8426)">
<path fill-rule="evenodd" clip-rule="evenodd" d="M19.0446 6.54883C23.3524 6.54883 27.1505 8.71224 29.3933 12.0027L30.3295 13.7124H26.055L25.2662 12.7669C23.6739 11.1924 21.4742 10.2186 19.0446 10.2186C14.1853 10.2186 10.246 14.1139 10.246 18.919C10.246 23.7242 14.1853 27.6195 19.0446 27.6195C22.6891 27.6195 25.816 25.4284 27.1517 22.3056L27.6387 20.7545H14.0216V17.2335H31.3954L31.4603 17.6543C31.5029 18.0701 31.5247 18.4921 31.5247 18.919C31.5247 25.751 25.9372 31.2893 19.0446 31.2893C12.152 31.2893 6.56445 25.751 6.56445 18.919C6.56445 12.0871 12.152 6.54883 19.0446 6.54883Z" fill="white"/>
<path fill-rule="evenodd" clip-rule="evenodd" d="M41.9396 11.9144L38.8425 18.7934H45.0368L41.9396 11.9144ZM40.4205 6.79156H43.4587L54.3792 31.0469H50.5536L46.6209 22.3118H37.2584L33.3256 31.0469H29.5L35.0129 18.8024V18.7934H35.0169L40.4205 6.79156Z" fill="white"/>
<path fill-rule="evenodd" clip-rule="evenodd" d="M59.7245 10.3094V18.7929H67.8379C68.3451 18.7434 68.6973 18.6631 69.1735 18.4594C70.7053 17.8155 71.7802 16.3081 71.7802 14.5512C71.7802 12.7943 70.7053 11.2868 69.1735 10.6429C68.6664 10.429 68.2831 10.2767 67.6519 10.2786L59.7245 10.3094ZM56.1621 6.79102H68.396V6.87963L69.0849 6.94867C72.6406 7.67229 75.3155 10.8011 75.3155 14.5512C75.3155 17.3637 73.8109 19.8268 71.5585 21.1878L71.0527 21.4376H71.1062L76.7462 31.0463H72.0397L66.9125 22.3113H59.7245V31.0463H56.1893V22.3113H56.1621V18.7929H56.1893V10.3094H56.1621V6.79102Z" fill="white"/>
<path d="M107.054 6.79102H103.488V31.0463H107.054V6.79102Z" fill="white"/>
<path fill-rule="evenodd" clip-rule="evenodd" d="M78.7723 6.84632H80.2473H81.7422L82.312 7.56125L95.5736 24.2004V30.0816L82.312 13.4425V31.0463H78.7723V9.00135V6.84632ZM95.5736 6.79102H99.1133V28.6415V31.0463H96.3425L95.5736 30.0816L95.5736 24.2004V6.79102Z" fill="white"/>
<path fill-rule="evenodd" clip-rule="evenodd" d="M141.898 10.3094V18.7929H150.012C150.519 18.7434 150.871 18.6631 151.348 18.4594C152.879 17.8155 153.954 16.3081 153.954 14.5512C153.954 12.7943 152.879 11.2868 151.348 10.6429C150.84 10.429 150.457 10.2767 149.826 10.2786L141.898 10.3094ZM138.336 6.79102H150.57V6.87963L151.259 6.94867C154.815 7.67229 157.49 10.8011 157.49 14.5512C157.49 17.3637 155.985 19.8268 153.733 21.1878L153.226 21.4376H153.28L158.92 31.0463H154.213L149.087 22.3113H141.898V31.0463H138.363V22.3113H138.336V18.7929H138.363V10.3094H138.336V6.79102Z" fill="white"/>
<path fill-rule="evenodd" clip-rule="evenodd" d="M122.615 31.2891C126.923 31.2891 130.721 29.1256 132.964 25.8351L133.9 24.1255H129.625L128.836 25.071C127.244 26.6455 125.045 27.6193 122.615 27.6193C117.756 27.6193 113.816 23.724 113.816 18.9188C113.816 14.1137 117.756 10.2184 122.615 10.2184C126.259 10.2184 129.386 12.4095 130.722 15.5322L131.209 17.0834H117.592V20.6044H134.966L135.031 20.1836C135.073 19.7678 135.095 19.3458 135.095 18.9188C135.095 12.0869 129.507 6.54864 122.615 6.54864C115.722 6.54864 110.135 12.0869 110.135 18.9188C110.135 25.7507 115.722 31.2891 122.615 31.2891Z" fill="white"/>
</g>
</g>
<defs>
<clipPath id="clip0_134_8426">
<rect width="159" height="38" fill="white"/>
</clipPath>
</defs>
</svg>
