<svg width="97" height="31" viewBox="0 0 97 31" fill="none" xmlns="http://www.w3.org/2000/svg">
<g clip-path="url(#clip0_134_8459)">
<path d="M96.3663 1.09091C94.3423 0.515165 91.79 0 88.6219 0C71.9593 0 67.735 9.72727 67.0309 16.3333C66.2682 23.7576 71.2259 31 83.4587 31C88.6219 31 91.966 30.0606 93.1689 29.6667C93.4622 29.5758 93.6968 29.3031 93.7556 29.0001L94.4302 25.2727C94.5476 24.697 94.0195 24.2424 93.4915 24.4243C92.1714 24.8485 89.7953 25.4546 86.803 25.4546C80.9652 25.4546 76.7409 21.8183 77.269 15.5758C77.7971 9.54552 81.7279 4.9394 87.1551 4.9394C90.4113 4.9394 91.8781 6.697 91.7607 9.06071C91.7607 9.06071 91.7607 9.09094 91.7607 9.18188C91.7314 9.6061 92.0834 9.96974 92.4941 9.96974H94.7236C95.0757 9.96974 95.369 9.72727 95.4277 9.39399L96.9825 2.1516C97.0704 1.66666 96.8064 1.21222 96.3663 1.09091Z" fill="white"/>
<path d="M26.5642 1.47922L26.1445 3.30355C26.0544 3.7156 26.2944 4.12753 26.7142 4.24519C27.434 4.50998 27.584 5.18683 26.9542 5.71641L16.4872 14.2496L18.2867 6.21665C18.5866 4.98087 19.6063 4.48063 20.2361 4.27467C20.2661 4.27467 20.2962 4.24519 20.3261 4.24519C20.5961 4.15688 20.806 3.95092 20.8659 3.65664L21.2858 1.74414C21.3758 1.30274 21.0459 0.861328 20.566 0.861328H7.06985C6.68005 0.861328 6.35004 1.12612 6.29011 1.47922L5.84023 3.42133C5.75021 3.80378 5.99019 4.21571 6.38013 4.3335C6.47003 4.36284 6.49999 4.36284 6.49999 4.39232C7.3398 4.71594 8.32957 5.45162 7.90967 7.36425L4.70051 21.8119C3.86083 25.7548 2.48126 26.5786 1.19157 26.7258H1.16161C0.801632 26.7552 0.531762 27.02 0.441788 27.3438L0.0219092 29.1975C-0.0980563 29.6684 0.291832 30.1391 0.771667 30.1391H14.9576C15.3175 30.1391 15.6174 29.9037 15.6775 29.58L16.1573 27.4026C16.2473 27.0495 16.0373 26.6964 15.7074 26.5493C15.6775 26.5493 15.6475 26.5198 15.6174 26.5198C14.8977 26.2255 13.9079 25.6371 14.1779 24.4895L15.8274 17.1039C21.4657 27.226 23.3552 30.1391 30.1332 30.1391H36.2515C36.6115 30.1391 36.9114 29.9037 36.9713 29.58L37.3912 27.6969C37.5112 27.226 37.1513 26.7552 36.6415 26.7552C35.1119 26.7258 34.3621 26.3727 32.8325 24.46L24.9748 14.0143L35.2018 5.68707C36.5814 4.62777 38.2309 4.3335 39.1608 4.21571C39.1608 4.21571 39.1907 4.21571 39.2507 4.21571C39.5805 4.18636 39.8505 3.95092 39.9105 3.65664L40.3303 1.80297C40.4203 1.33208 40.0905 0.920157 39.6106 0.920157H27.314C26.9842 0.861329 26.6543 1.12612 26.5642 1.47922Z" fill="white"/>
<path d="M63.9112 9.49141H66.3148C66.6754 9.49141 66.9758 9.25586 67.0359 8.93178L68.6583 1.7449C68.7485 1.27367 68.418 0.861328 67.9372 0.861328H42.7598C42.3693 0.861328 42.0388 1.12639 41.9487 1.47984L41.498 3.3944C41.4078 3.77724 41.6182 4.1602 42.0087 4.27798C42.0388 4.27798 42.0689 4.30749 42.0989 4.30749C42.9402 4.63143 44.0818 5.39723 43.5711 7.3413L38.6438 29.2554C38.5536 29.6973 38.8842 30.1391 39.3649 30.1391H50.6916C51.0522 30.1391 51.3527 29.9034 51.4127 29.5795L51.8934 27.3999C51.9536 27.0758 51.8033 26.7518 51.5029 26.6045C51.4727 26.575 51.4427 26.575 51.3827 26.5457C50.6616 26.1922 49.61 25.3969 49.9405 23.8653C49.9706 23.6591 51.0522 18.9169 51.0522 18.9169H60.6665C61.027 18.9169 61.3274 18.6812 61.3876 18.3573L62.2889 14.3514C62.379 13.8802 62.0485 13.4678 61.5678 13.4678H52.284L54.0267 5.72131H60.5163C62.6194 5.72131 63.2503 6.78167 63.1301 8.63721C63.1301 8.63721 63.1301 8.66672 63.1301 8.72561C63.1001 9.10858 63.4605 9.49141 63.9112 9.49141Z" fill="white"/>
</g>
<defs>
<clipPath id="clip0_134_8459">
<rect width="97" height="31" fill="white"/>
</clipPath>
</defs>
</svg>
