<svg width="141" height="37" viewBox="0 0 141 37" fill="none" xmlns="http://www.w3.org/2000/svg">
<g clip-path="url(#clip0_134_8456)">
<path d="M33.5873 0.0239759C35.9601 -0.101938 38.3736 0.264759 40.5609 1.20304C42.6455 2.08665 44.5207 3.49545 45.8737 5.31182C46.9482 6.74655 47.6833 8.40375 48.0244 10.1601C48.6082 13.1936 48.1172 16.4685 46.4547 19.1005C45.6569 20.3706 44.6279 21.4816 43.4203 22.3765C41.9551 23.4738 40.2576 24.2487 38.4841 24.7026C36.3096 25.2465 34.0467 25.3456 31.8326 24.9936C29.5514 24.633 27.3335 23.7632 25.485 22.3787C23.8675 21.1754 22.5456 19.5733 21.7179 17.7398C20.7454 15.6064 20.4554 13.1947 20.7598 10.8797C21.023 8.86232 21.8038 6.94623 23.0271 5.31569C24.353 3.54847 26.1715 2.16783 28.1972 1.28422C29.9021 0.544999 31.7274 0.118421 33.5851 0.0250802L33.5873 0.0239759ZM33.2601 2.62841C30.5012 2.90785 27.8545 4.2896 26.1304 6.46051C24.738 8.20162 23.9802 10.3606 23.9808 12.585C23.9624 14.6519 24.6042 16.6712 25.8138 18.3522C27.0319 20.0515 28.806 21.3344 30.785 22.0181C33.0623 22.8039 35.5339 22.8377 37.832 22.1142C39.6994 21.5282 41.4035 20.4155 42.6555 18.915C43.8137 17.5347 44.5636 15.8618 44.8217 14.0827C45.1261 12.0173 44.7751 9.85467 43.7914 8.00793C42.8564 6.25438 41.4202 4.81529 39.6639 3.87209C37.7253 2.81342 35.4547 2.39646 33.2601 2.62952V2.62841ZM86.0797 0.346493C86.1614 0.274148 86.2158 0.137188 86.3374 0.129457C88.0856 0.129457 89.8336 0.129457 91.5814 0.129457C88.9938 1.04988 86.4041 1.96405 83.8124 2.87196C84.5606 2.02424 85.326 1.18979 86.0797 0.345941V0.346493ZM13.2935 10.4439C14.3238 8.0731 14.9087 5.50566 16.2646 3.28007C17.1838 3.40764 18.1137 3.31155 19.0374 3.36512C17.8154 5.73098 16.589 8.09519 15.3581 10.4577C14.6699 10.4622 13.9817 10.4356 13.2935 10.4439ZM0 3.41538H2.94386V21.198C8.05841 21.198 13.1731 21.198 18.2881 21.198C18.2881 21.9391 18.2881 22.6803 18.2881 23.4214C12.1922 23.4214 6.09639 23.4214 0.000555989 23.4214C0.000555989 16.7534 0.000555989 10.085 0.000555989 3.41593L0 3.41538ZM51.9753 3.41538C56.2245 3.41243 60.4736 3.41243 64.7228 3.41538C65.9387 3.40267 67.1718 3.52583 68.3238 3.93229C69.2764 4.26364 70.1651 4.80761 70.841 5.55813C71.603 6.40984 72.0945 7.46667 72.2535 8.59553C72.3313 9.09643 72.2808 9.60616 72.2086 10.1048C72.0257 11.2661 71.485 12.3424 70.6611 13.1853C69.6746 14.1794 68.3876 14.8576 67.0312 15.2005C69.0679 17.9338 71.1021 20.6688 73.1339 23.4054C71.9431 23.4054 70.7524 23.4054 69.5619 23.4054C67.64 20.7133 65.7169 18.0222 63.7924 15.3319C63.6719 15.1425 63.4269 15.1066 63.2209 15.0939C60.4544 15.0939 57.6875 15.0939 54.9203 15.0939C54.9203 17.8644 54.9203 20.6351 54.9203 23.4059C53.9383 23.4026 52.9568 23.4092 51.9764 23.4026C51.9798 16.7387 51.9798 10.0761 51.9764 3.41482L51.9753 3.41538ZM54.9192 5.7481C54.9192 8.07199 54.9192 10.3959 54.9192 12.7198C57.6879 12.7198 60.457 12.7198 63.2264 12.7198C63.9455 12.7652 64.6674 12.7341 65.3799 12.627C66.3953 12.4646 67.4434 12.13 68.1771 11.3772C68.9109 10.6245 69.1325 9.48135 68.9036 8.479C68.7337 7.73733 68.2205 7.10775 67.5784 6.71179C66.6341 6.11977 65.5093 5.8834 64.4123 5.78234C63.7047 5.70779 62.9943 5.7608 62.285 5.74865C59.828 5.74939 57.3731 5.74976 54.9203 5.74976L54.9192 5.7481ZM76.7332 3.41482H95.0074C95.0074 4.12355 95.0074 4.83228 95.0074 5.54101C89.931 5.54101 84.8546 5.54101 79.7782 5.54101C79.7693 7.71413 79.7782 9.8867 79.7743 12.0576H91.2043C91.2043 12.7987 91.2043 13.5404 91.2043 14.2816C87.4087 14.2816 83.6132 14.2816 79.8176 14.2816V21.1577C84.8811 21.1577 89.9447 21.1577 95.0085 21.1577C95.0085 21.9126 95.0085 22.6681 95.0085 23.4219C88.9127 23.4219 82.8168 23.4219 76.721 23.4219C76.721 18.6681 76.721 13.9143 76.721 9.16049C76.7377 7.24582 76.7365 5.33115 76.7343 3.41703L76.7332 3.41482ZM106.596 3.41482C107.898 3.41482 109.2 3.41482 110.502 3.41482L110.528 3.43139C113.886 10.0945 117.241 16.758 120.594 23.4219C119.562 23.4258 118.531 23.4219 117.499 23.4219C116.595 21.7283 115.693 20.0348 114.792 18.3412C110.638 18.3357 106.485 18.3412 102.33 18.3379C101.422 20.03 100.525 21.7282 99.6159 23.4186C98.5484 23.4186 97.4801 23.4186 96.411 23.4186C99.8126 16.7544 103.208 10.0866 106.597 3.41538L106.596 3.41482ZM103.747 15.7975C106.938 15.8012 110.128 15.8012 113.318 15.7975C111.687 12.6044 110.057 9.40992 108.43 6.21421C106.87 9.40919 105.309 12.6036 103.747 15.7975ZM122.726 3.41538C123.689 3.41538 124.651 3.41538 125.614 3.41538C125.614 9.31015 125.614 15.2051 125.614 21.1002C130.743 21.1002 135.872 21.1002 141 21.1002V23.3766C134.909 23.3766 128.818 23.3766 122.726 23.3766V3.41538ZM87.8599 29.2974C88.6831 28.7114 89.729 28.5667 90.7177 28.5562C91.6208 28.5701 92.5451 28.6352 93.3916 28.9738C93.9259 29.1847 94.4258 29.5371 94.7036 30.049C94.8908 30.377 94.9685 30.7542 94.9985 31.1264C94.5897 31.1264 94.1814 31.1264 93.7732 31.1264C93.7121 31.1126 93.5866 31.1623 93.5849 31.0662C93.556 30.6416 93.3033 30.2605 92.9584 30.017C92.5784 29.7541 92.1224 29.6238 91.6692 29.5547C91.0178 29.4591 90.3545 29.4791 89.7101 29.6138C89.3174 29.7099 88.9069 29.8546 88.6387 30.1716C88.5235 30.307 88.4435 30.4685 88.4057 30.6418C88.3678 30.815 88.3732 30.9949 88.4215 31.1657C88.522 31.4683 88.8103 31.6538 89.1008 31.756C89.514 31.9002 89.9534 31.9399 90.3822 32.0183C91.1598 32.1487 91.9386 32.279 92.7184 32.4093C93.2433 32.4944 93.7676 32.6302 94.2381 32.8832C94.6086 33.082 94.9402 33.3741 95.1268 33.7557C95.2567 34.0394 95.3169 34.3498 95.3024 34.6612C95.288 34.9726 95.1992 35.2761 95.0435 35.5467C94.743 36.0437 94.2248 36.3607 93.6943 36.5667C92.6429 36.9632 91.4981 37.0317 90.3855 36.9831C89.4913 36.9356 88.5653 36.7926 87.7977 36.3044C87.43 36.0769 87.0851 35.793 86.8579 35.4208C86.6307 35.0486 86.5552 34.6117 86.5679 34.1854H87.9677C87.9677 34.5687 88.0971 34.9585 88.3693 35.238C88.6925 35.5903 89.1519 35.7792 89.6068 35.9007C90.3483 36.084 91.1237 36.0885 91.8802 36.0111C92.374 35.9504 92.88 35.8515 93.3111 35.5931C93.5682 35.4407 93.7871 35.1938 93.8365 34.8923C93.876 34.5869 93.8332 34.2434 93.6088 34.0136C93.34 33.7441 92.9606 33.6364 92.6045 33.5354C91.8025 33.3338 90.981 33.2294 90.1678 33.082C89.494 32.9599 88.8003 32.8964 88.1637 32.6286C87.7838 32.4673 87.415 32.2387 87.1812 31.8924C86.9609 31.5532 86.879 31.1431 86.9523 30.7459C87.0295 30.1611 87.3839 29.6348 87.8627 29.2963L87.8599 29.2974ZM46.3242 28.7374C47.9209 28.7352 49.518 28.7352 51.1155 28.7374C51.6393 28.7274 52.1708 28.7457 52.6813 28.86C53.3656 29.008 54.0516 29.3233 54.4782 29.8949C54.9436 30.5168 54.9397 31.4064 54.542 32.0603C54.2582 32.5314 53.7927 32.8738 53.2834 33.0731C52.6507 33.3233 51.9603 33.3879 51.2838 33.3763C50.149 33.3763 49.0137 33.3763 47.8789 33.3763V36.7578H46.3237C46.3237 34.0838 46.3237 31.4103 46.3237 28.7374H46.3242ZM47.8795 29.6762C47.8795 30.5963 47.8795 31.5169 47.8795 32.4375C48.9744 32.4375 50.0694 32.4375 51.1644 32.4375C51.7304 32.4066 52.3419 32.3453 52.804 31.9852C53.1929 31.6826 53.3117 31.1298 53.1929 30.6686C53.1034 30.3224 52.819 30.0562 52.4952 29.9214C51.9753 29.7005 51.3971 29.6724 50.8389 29.6773C49.8531 29.6773 48.8674 29.6773 47.8817 29.6773L47.8795 29.6762ZM69.1953 28.7374H74.4437C75.2574 28.7551 76.1022 28.9031 76.7877 29.3653C77.1631 29.6193 77.4803 29.9816 77.6158 30.4185C77.8186 31.0475 77.668 31.7649 77.2587 32.2801C76.8249 32.8263 76.1561 33.1306 75.4812 33.267C76.3416 34.4162 77.2131 35.5566 78.0757 36.7042C77.4864 36.7004 76.8971 36.7097 76.3077 36.6992C75.5523 35.624 74.7797 34.5609 74.0199 33.489C73.9936 33.4493 73.9565 33.4178 73.9129 33.3983C73.8694 33.3787 73.8211 33.3719 73.7738 33.3785C72.7647 33.3785 71.7559 33.3785 70.7472 33.3785C70.7472 34.5046 70.7472 35.6312 70.7472 36.7572C70.2278 36.7633 69.7085 36.7606 69.1919 36.7572C69.1953 34.0838 69.1919 31.4109 69.1919 28.7374H69.1953ZM70.7505 29.6762C70.7505 30.5966 70.7505 31.5171 70.7505 32.4375H73.3339C73.9393 32.4375 74.5614 32.4552 75.1441 32.263C75.4707 32.1564 75.789 31.962 75.9556 31.6555C76.0447 31.4817 76.0957 31.291 76.1052 31.0962C76.1148 30.9013 76.0827 30.7067 76.0111 30.525C75.8617 30.1793 75.5218 29.9612 75.1741 29.8485C74.5975 29.6608 73.9838 29.674 73.385 29.6779C72.5063 29.6779 71.6276 29.6779 70.7488 29.6779L70.7505 29.6762ZM59.9599 28.7374C60.6086 28.7374 61.2574 28.7374 61.9039 28.7374C63.4284 31.411 64.9526 34.0847 66.4764 36.7583C65.8476 36.7484 65.2122 36.781 64.5878 36.7429C64.1679 35.9736 63.7624 35.1966 63.3447 34.4234C61.6645 34.4234 59.9837 34.4234 58.3035 34.4234C57.8686 35.2026 57.4259 35.9775 56.9893 36.7556C56.3978 36.7556 55.8057 36.7556 55.2119 36.7556C56.7912 34.0816 58.3722 31.4083 59.9549 28.7357L59.9599 28.7374ZM58.8456 33.4432C60.1387 33.4454 61.432 33.4454 62.7254 33.4432C62.1028 32.2724 61.4868 31.0977 60.8675 29.9253C60.1854 31.0933 59.5255 32.274 58.8456 33.4426V33.4432ZM81.6506 28.7921C82.1412 28.7921 82.6321 28.7921 83.1231 28.7921C83.1231 29.2747 83.1231 29.758 83.1231 30.2412C82.6332 30.2412 82.1433 30.2412 81.6539 30.2412C81.6495 29.758 81.6539 29.2742 81.6539 28.7904L81.6506 28.7921ZM81.6645 31.0707C82.1544 31.0707 82.6448 31.0707 83.1358 31.0707C83.1358 32.9807 83.1358 34.8908 83.1358 36.8009H81.6639V31.0707H81.6645Z" fill="white"/>
</g>
<defs>
<clipPath id="clip0_134_8456">
<rect width="141" height="37" fill="white"/>
</clipPath>
</defs>
</svg>
