<svg width="165" height="30" viewBox="0 0 165 30" fill="none" xmlns="http://www.w3.org/2000/svg">
<g clip-path="url(#clip0_134_8316)">
<path d="M16.4449 0.382812V15.5464C16.4449 16.2555 15.9021 16.7464 15.2508 16.7464H13.4597C13.3512 16.7464 13.2969 16.8555 13.2969 16.9101V29.6192C13.7311 29.6192 14.1653 29.7283 14.6538 29.7283C22.741 29.7283 29.3084 23.1283 29.3084 15.001C29.3084 7.52827 23.7179 1.25554 16.4449 0.382812ZM16.1192 23.0737C15.088 23.0737 14.3281 22.201 14.3281 21.2737C14.3281 20.2374 15.1965 19.4737 16.1192 19.4737C17.1505 19.4737 17.9104 20.3464 17.9104 21.2737C18.0189 22.2555 17.1505 23.0737 16.1192 23.0737ZM20.4071 23.0737C19.3758 23.0737 18.616 22.201 18.616 21.2737C18.616 20.2374 19.4844 19.4737 20.4071 19.4737C21.4383 19.4737 22.1982 20.3464 22.1982 21.2737C22.1982 22.201 21.4926 23.0737 20.4071 23.0737ZM24.7492 23.0737C23.7179 23.0737 22.9581 22.201 22.9581 21.2737C22.9581 20.2374 23.8265 19.4737 24.7492 19.4737C25.7804 19.4737 26.5403 20.3464 26.5403 21.2737C26.5403 22.201 25.7804 23.0737 24.7492 23.0737Z" fill="white"/>
<path d="M14.6546 0.328125C6.56743 0.328125 0 6.92813 0 15.0554C0 22.2009 4.93914 28.0372 11.5609 29.4009V16.1463C11.5609 15.5463 12.1036 15.0554 12.6464 14.9463H13.2434H14.4375C14.5461 14.9463 14.6003 14.8372 14.6003 14.7827L14.6546 0.328125ZM11.8322 12.4372C10.801 12.4372 10.0411 11.5645 10.0411 10.6372C10.0411 9.60085 10.9095 8.83722 11.8322 8.83722C12.8635 8.83722 13.6234 9.70994 13.6234 10.6372C13.6234 11.5645 12.8092 12.4372 11.8322 12.4372Z" fill="white"/>
<path d="M161.363 8.3457V13.9093H153.981V8.3457H150.236V23.073H153.981V17.1275H161.363V23.073H164.999V8.3457H161.363Z" fill="white"/>
<path d="M100.357 10.0377C99.7602 8.72862 98.5661 8.01953 97.372 8.01953C96.1779 8.01953 94.9296 8.72862 94.3868 10.0377L88.4707 23.1286H92.3786L93.6812 20.0195H101.28L102.583 23.1286H106.49L100.357 10.0377ZM94.7125 17.0741L96.9378 11.6741C97.0464 11.5104 97.1006 11.5104 97.2092 11.5104C97.3177 11.5104 97.4806 11.5104 97.4806 11.6741L99.7059 17.0741H94.7125Z" fill="white"/>
<path d="M56.7194 5.72837C54.9825 5.72837 53.897 6.65565 53.0829 8.51019L48.3608 19.5829L43.5845 8.45565C42.8246 6.65565 41.6848 5.67383 39.948 5.67383C38.3197 5.67383 36.6914 6.76474 36.6914 9.32837V23.0193H40.3279V9.81928L45.1585 20.7829C45.7556 22.3647 46.8954 23.292 48.3608 23.292C49.9348 23.292 50.9661 22.3647 51.5631 20.7829L56.3937 9.81928V23.1829H60.0302V9.49201C59.9759 6.92837 58.3477 5.72837 56.7194 5.72837Z" fill="white"/>
<path d="M66.4348 19.9656C66.272 19.9656 66.0549 19.8019 66.0549 19.5837V16.9656H75.1733V13.9656H66.0549V11.7292C66.0549 11.5656 66.2177 11.3474 66.4348 11.3474H75.499V8.23828H64.6437C63.3411 8.23828 62.4727 9.27465 62.4727 10.4201V20.7292C62.4727 21.8201 63.3954 22.911 64.6437 22.911H75.499V19.8019H66.4348V19.9656Z" fill="white"/>
<path d="M81.6311 23.073V11.8366C81.6311 11.673 81.7939 11.4548 82.011 11.4548H91.0751V8.3457H80.2199C78.9172 8.3457 78.0488 9.38207 78.0488 10.5275V23.0184L81.6311 23.073Z" fill="white"/>
<path d="M147.849 15.7656C147.849 10.6383 145.624 8.23828 140.088 8.23828H138.785C133.249 8.23828 131.023 10.6928 131.023 15.7656C131.023 20.7837 133.249 23.2928 138.785 23.2928H139.979C145.624 23.1837 147.849 20.7837 147.849 15.7656ZM139.979 20.1837H138.785C135.8 20.1837 134.551 18.8201 134.551 15.7656C134.551 12.8201 135.583 11.3474 138.785 11.3474H139.979C143.073 11.3474 144.213 12.8201 144.213 15.7656C144.213 18.7656 143.073 20.1837 139.979 20.1837Z" fill="white"/>
<path d="M120.874 6.05469H113.601C108.173 6.05469 106.002 8.83651 106.002 13.582C106.002 14.3456 106.111 15.0547 106.165 15.6547C106.762 19.0365 108.77 21.1092 113.818 21.1092H115.446V23.0183H119.083V21.1092H120.657C125.759 21.1092 127.767 19.0365 128.31 15.6547C128.418 15.0547 128.472 14.3456 128.472 13.582C128.418 8.83651 126.193 6.05469 120.874 6.05469ZM115.337 18.0547H113.709C111.212 18.0547 110.344 17.1274 109.801 15.6001C109.638 15.0547 109.638 14.2911 109.638 13.5274C109.638 10.4183 111.104 9.10923 113.166 9.10923H115.392V18.0547H115.337ZM124.673 15.7638C124.13 17.2365 123.208 18.2183 120.765 18.2183H119.137V9.21832H121.362C123.425 9.21832 124.89 10.5274 124.89 13.6365C124.836 14.4547 124.836 15.1092 124.673 15.7638Z" fill="white"/>
</g>
<defs>
<clipPath id="clip0_134_8316">
<rect width="165" height="30" fill="white"/>
</clipPath>
</defs>
</svg>
