<svg width="140" height="37" viewBox="0 0 140 37" fill="none" xmlns="http://www.w3.org/2000/svg">
<g clip-path="url(#clip0_134_8464)">
<path fill-rule="evenodd" clip-rule="evenodd" d="M123.544 10.916C123.544 10.5985 123.419 10.294 123.196 10.0694C122.974 9.84489 122.672 9.71875 122.357 9.71875H120.599C120.284 9.7197 119.982 9.84664 119.759 10.0717C119.537 10.2969 119.412 10.6018 119.412 10.9196V29.4377C119.412 29.7555 119.537 30.0604 119.759 30.2855C119.982 30.5106 120.284 30.6376 120.599 30.6385H122.357C122.672 30.6376 122.974 30.5106 123.197 30.2855C123.419 30.0604 123.544 29.7555 123.544 29.4377V10.916Z" fill="white"/>
<path fill-rule="evenodd" clip-rule="evenodd" d="M125.789 11.4102V12.301C125.789 12.3879 125.806 12.474 125.839 12.5543C125.872 12.6346 125.921 12.7076 125.982 12.7689C126.043 12.8302 126.116 12.8787 126.195 12.9117C126.275 12.9446 126.361 12.9614 126.447 12.9609H138.578C138.843 12.9609 139.098 12.8545 139.285 12.6651C139.473 12.4758 139.578 12.2189 139.578 11.9511V10.4618C139.582 10.3281 139.558 10.1951 139.509 10.0709C139.459 9.94679 139.386 9.83414 139.291 9.73991C139.197 9.64567 139.085 9.57184 138.962 9.52296C138.838 9.47407 138.706 9.45115 138.574 9.45563C138.574 9.45563 126.847 10.6132 126.472 10.6565C126.283 10.6729 126.108 10.761 125.981 10.9029C125.854 11.0449 125.786 11.23 125.789 11.421V11.4102Z" fill="white"/>
<path fill-rule="evenodd" clip-rule="evenodd" d="M115.967 30.6389C115.323 30.6604 114.682 30.5498 114.081 30.3137C113.481 30.0777 112.934 29.7211 112.474 29.2656C112.014 28.8101 111.651 28.2651 111.406 27.6637C111.161 27.0623 111.04 26.417 111.049 25.7668V18.3596H110.184C109.963 18.3596 109.752 18.2711 109.595 18.1135C109.439 17.9559 109.352 17.7422 109.352 17.5194V16.268C109.352 16.1577 109.374 16.0485 109.416 15.9467C109.459 15.845 109.52 15.7526 109.598 15.6749C109.676 15.5972 109.768 15.5357 109.869 15.4939C109.97 15.4521 110.079 15.4309 110.188 15.4313H111.049V10.8911C111.049 10.7375 111.078 10.5854 111.136 10.4434C111.195 10.3014 111.28 10.1724 111.387 10.0638C111.495 9.95524 111.623 9.86919 111.764 9.81064C111.904 9.75209 112.055 9.7222 112.207 9.72268H113.919C114.072 9.72173 114.224 9.75133 114.366 9.80981C114.508 9.86828 114.637 9.95447 114.745 10.0634C114.854 10.1723 114.94 10.3019 114.999 10.4445C115.058 10.5872 115.088 10.7402 115.088 10.8947V15.4458H117.762C117.871 15.4453 117.979 15.4666 118.081 15.5084C118.182 15.5501 118.274 15.6116 118.351 15.6893C118.429 15.767 118.491 15.8594 118.533 15.9611C118.575 16.0629 118.597 16.1721 118.598 16.2824V17.523C118.598 17.6331 118.576 17.7422 118.534 17.844C118.493 17.9457 118.431 18.0381 118.354 18.1158C118.276 18.1936 118.185 18.2551 118.084 18.297C117.983 18.3388 117.874 18.3601 117.765 18.3596H115.088V25.2115C115.088 26.5602 115.899 27.4762 117.343 27.4762H117.59C117.709 27.4752 117.826 27.4979 117.936 27.5429C118.046 27.588 118.146 27.6544 118.23 27.7385C118.315 27.8226 118.382 27.9227 118.428 28.033C118.474 28.1433 118.497 28.2617 118.498 28.3813V29.7301C118.498 29.8497 118.474 29.9682 118.429 30.0787C118.383 30.1892 118.317 30.2895 118.233 30.374C118.149 30.4584 118.049 30.5253 117.939 30.5707C117.83 30.6162 117.712 30.6393 117.594 30.6389H115.967Z" fill="white"/>
<path fill-rule="evenodd" clip-rule="evenodd" d="M87.7028 18.0703C89.4899 18.0703 91.059 19.3613 91.2162 21.1067H84.218C84.3185 20.2531 84.7317 19.4682 85.3766 18.9064C86.0214 18.3445 86.8512 18.0463 87.7028 18.0703V14.9004C82.8277 14.9004 80.0898 18.7446 80.0898 22.7945C80.0898 27.1219 83.0207 30.9121 87.735 30.9121C90.9517 30.9121 94.147 29.1991 94.7475 26.3899C94.7714 26.2829 94.7709 26.1717 94.7459 26.065C94.7208 25.9582 94.672 25.8586 94.6031 25.7738C94.5341 25.6889 94.4469 25.621 94.3481 25.5753C94.2492 25.5296 94.1414 25.5073 94.0327 25.5099H91.7273C91.5372 25.5074 91.3494 25.5521 91.1805 25.6402C91.0115 25.7282 90.8667 25.8569 90.7587 26.0148C90.1011 26.9921 89.1325 27.5078 87.7028 27.5078C86.7975 27.5098 85.9262 27.1598 85.2699 26.5306C84.6136 25.9013 84.2228 25.0411 84.1787 24.1288H94.0005C94.9048 24.1288 95.3086 23.6347 95.3086 22.7945C95.3086 18.8456 92.9854 14.9004 87.7064 14.9004V18.0703H87.7028Z" fill="white"/>
<path fill-rule="evenodd" clip-rule="evenodd" d="M132.402 18.0703C134.189 18.0703 135.754 19.3613 135.912 21.1067H128.913C129.014 20.2525 129.428 19.4671 130.073 18.9051C130.719 18.3432 131.549 18.0454 132.402 18.0703V14.9004C127.523 14.9004 124.785 18.7446 124.785 22.7945C124.785 27.1219 127.716 30.9121 132.43 30.9121C135.647 30.9121 138.842 29.1991 139.443 26.3899C139.467 26.2829 139.466 26.1717 139.441 26.065C139.416 25.9582 139.367 25.8586 139.298 25.7738C139.229 25.6889 139.142 25.621 139.043 25.5753C138.945 25.5296 138.837 25.5073 138.728 25.5099H136.423C136.233 25.5074 136.045 25.5521 135.876 25.6402C135.707 25.7282 135.562 25.8569 135.454 26.0148C134.796 26.9921 133.828 27.5078 132.398 27.5078C131.493 27.5098 130.621 27.1598 129.965 26.5306C129.309 25.9013 128.918 25.0411 128.874 24.1288H138.678C139.579 24.1288 139.986 23.6347 139.986 22.7945C139.986 18.8456 137.663 14.9004 132.387 14.9004V18.0703H132.402Z" fill="white"/>
<path fill-rule="evenodd" clip-rule="evenodd" d="M107.748 9.92825H75.9769C75.8054 9.92778 75.6355 9.9615 75.4771 10.0275C75.3186 10.0935 75.1746 10.1904 75.0533 10.3127C74.9321 10.435 74.836 10.5803 74.7706 10.7402C74.7052 10.9002 74.6718 11.0715 74.6723 11.2445L74.7795 23.8087C74.7795 23.8087 67.935 11.3599 67.5776 10.7216C67.3663 10.364 67.0647 10.0694 66.7036 9.86792C66.3426 9.66644 65.9349 9.56529 65.5224 9.57484H62.9061C62.7347 9.57436 62.5648 9.60808 62.4063 9.67406C62.2479 9.74004 62.1038 9.83698 61.9826 9.9593C61.8614 10.0816 61.7653 10.2269 61.6999 10.3868C61.6345 10.5467 61.6011 10.7181 61.6016 10.8911V29.319C61.6016 29.4921 61.6354 29.6636 61.7012 29.8235C61.767 29.9835 61.8634 30.1287 61.9849 30.251C62.1065 30.3733 62.2507 30.4702 62.4094 30.5361C62.5681 30.602 62.7381 30.6357 62.9097 30.6353H64.5824C64.9294 30.6353 65.2621 30.4962 65.5074 30.2487C65.7527 30.0012 65.8906 29.6654 65.8906 29.3154L65.7833 16.3978C65.7833 16.3978 72.6958 28.9764 72.9924 29.4704C73.1979 29.8337 73.4973 30.1339 73.8586 30.3391C74.2199 30.5442 74.6296 30.6466 75.044 30.6353H77.4423C77.6139 30.6357 77.7839 30.602 77.9426 30.5361C78.1013 30.4702 78.2455 30.3733 78.367 30.251C78.4886 30.1287 78.585 29.9835 78.6508 29.8235C78.7165 29.6636 78.7504 29.4921 78.7504 29.319V13.0512H107.748C107.865 13.0517 107.981 13.0288 108.089 12.9839C108.198 12.939 108.296 12.873 108.379 12.7895C108.462 12.7061 108.528 12.6069 108.573 12.4978C108.618 12.3886 108.641 12.2715 108.641 12.1533V10.8262C108.641 10.7078 108.617 10.5907 108.572 10.4815C108.526 10.3723 108.46 10.2731 108.377 10.1898C108.294 10.1064 108.195 10.0404 108.086 9.99549C107.978 9.95062 107.861 9.92778 107.744 9.92825H107.748Z" fill="white"/>
<path fill-rule="evenodd" clip-rule="evenodd" d="M102.604 17.9266C103.987 17.9266 105.02 18.4315 105.392 19.3042C105.571 19.7225 105.917 19.8055 106.393 19.8055H108.298C108.476 19.8008 108.645 19.7269 108.77 19.5992C108.896 19.4715 108.967 19.2999 108.97 19.1203C108.97 16.8952 106.339 14.9082 102.608 14.9082C98.7512 14.9082 96.2172 16.7618 96.2172 19.7081C96.2172 21.9656 97.9864 23.3143 100.149 23.8805C101.142 24.1402 102.837 24.5621 103.662 24.7785C104.549 25.0129 105.346 25.287 105.346 26.0551C105.346 27.2668 104.077 27.6779 102.694 27.6779C101.385 27.6779 100.077 27.0865 99.702 26.1452C99.4875 25.6007 99.1087 25.5214 98.5332 25.5214H96.5996C96.4123 25.5285 96.2345 25.6068 96.102 25.7405C95.9694 25.8743 95.8918 26.0536 95.8848 26.2426V26.4914C95.8848 28.6552 98.7441 30.8983 102.708 30.8983C105.514 30.8983 109.424 29.7226 109.424 25.9361C109.424 23.7435 107.965 22.2216 105.592 21.6086C104.663 21.3742 102.436 20.8008 101.95 20.6746C101.085 20.451 100.277 20.1661 100.277 19.4196C100.277 18.2908 101.317 17.905 102.608 17.905L102.604 17.9266Z" fill="white"/>
<path fill-rule="evenodd" clip-rule="evenodd" d="M32.9111 5.03028C32.9118 4.90318 32.8751 4.77872 32.8056 4.67269C32.7361 4.56665 32.637 4.48381 32.5208 4.43467C32.4046 4.38554 32.2766 4.3723 32.153 4.39666C32.0293 4.42102 31.9156 4.48188 31.8263 4.5715C31.7369 4.66113 31.676 4.7755 31.6512 4.90011C31.6263 5.02473 31.6387 5.15399 31.6868 5.27149C31.7348 5.38899 31.8163 5.48945 31.921 5.56015C32.0257 5.63084 32.1489 5.66858 32.2749 5.66858C32.443 5.66859 32.6043 5.60146 32.7235 5.48186C32.8427 5.36225 32.9101 5.1999 32.9111 5.03028Z" fill="white"/>
<path fill-rule="evenodd" clip-rule="evenodd" d="M24.2578 4.00743C24.2585 3.9003 24.2277 3.79536 24.1692 3.70593C24.1107 3.6165 24.0272 3.54661 23.9293 3.50511C23.8314 3.46362 23.7235 3.45238 23.6193 3.47285C23.515 3.49331 23.4192 3.54455 23.3438 3.62005C23.2685 3.69556 23.2171 3.79193 23.1961 3.89696C23.1751 4.00199 23.1855 4.11094 23.226 4.21C23.2665 4.30905 23.3352 4.39374 23.4234 4.45334C23.5117 4.51294 23.6155 4.54476 23.7217 4.54476C23.8632 4.54476 23.9991 4.48827 24.0995 4.3876C24.1999 4.28694 24.2568 4.15027 24.2578 4.00743Z" fill="white"/>
<path fill-rule="evenodd" clip-rule="evenodd" d="M17.3097 17.7275L17.0488 17.4426C17.7637 16.7646 18.55 15.6791 18.6715 15.0444C18.793 14.4097 19.6329 14.5432 19.4721 15.1887C19.2684 16.0109 18.2676 16.9918 17.3276 17.713L17.3097 17.7275Z" fill="white"/>
<path fill-rule="evenodd" clip-rule="evenodd" d="M11.8849 4.75997C10.5481 5.34057 10.3516 6.72537 11.2916 7.5548C12.421 8.55373 14.2903 7.68463 14.108 6.15558C15.627 6.23131 16.6099 4.65178 16.3669 3.54467C17.0424 2.96046 17.1103 1.71631 16.299 1.22586C15.4304 0.702957 14.612 0.904907 14.0901 1.91465C12.6998 1.81368 11.3666 2.91358 11.8849 4.75997L11.2415 4.47507C11.0426 4.09729 10.9562 3.66953 10.9927 3.24333C11.0293 2.81713 11.1872 2.41069 11.4475 2.07299C11.7077 1.73529 12.0593 1.48075 12.4597 1.34004C12.8601 1.19933 13.2922 1.17847 13.7041 1.27995C13.8367 0.991726 14.0293 0.735723 14.2688 0.529398C14.5083 0.323072 14.7891 0.171274 15.092 0.0843408C15.395 -0.00259256 15.7129 -0.0226168 16.0242 0.0256382C16.3355 0.0738932 16.6328 0.18929 16.8958 0.363965C17.1847 0.540674 17.4264 0.786065 17.5996 1.0787C17.7729 1.37133 17.8725 1.7023 17.8898 2.04272C17.907 2.38315 17.8415 2.72267 17.6987 3.03162C17.556 3.34058 17.3405 3.60958 17.071 3.81514C17.6571 5.53531 16.4884 6.94175 14.7049 6.77947C14.494 8.9937 12.4246 9.27859 11.0843 8.22196C10.4614 7.70249 10.0338 6.98338 9.87261 6.18444C9.7225 5.5281 9.71893 4.94028 9.07558 4.26592C8.69966 3.94112 8.21941 3.76551 7.72454 3.77186C7.72454 2.16709 6.23054 0.695744 4.37913 1.40617C3.72148 0.836388 2.91015 0.778688 2.32756 1.48551C2.20694 1.6416 2.12372 1.8237 2.08441 2.01761C2.0451 2.21151 2.05075 2.41197 2.10093 2.6033C2.1511 2.79464 2.24445 2.97168 2.37366 3.12059C2.50288 3.2695 2.66447 3.38625 2.84581 3.46172C2.7922 4.92585 3.91806 5.85987 5.52286 5.73005C5.58719 6.509 6.44499 7.23385 7.20272 7.33843V7.72791C6.39138 7.64857 5.95533 7.93346 5.41563 8.60783C3.50703 8.51767 2.17387 9.37235 2.23105 10.7499C1.96593 10.7775 1.71412 10.8809 1.50517 11.0478C1.29621 11.2147 1.13878 11.4384 1.05135 11.6924C0.96392 11.9464 0.95012 12.2204 1.01157 12.482C1.07302 12.7437 1.20717 12.9823 1.39828 13.1697C1.55579 13.3366 1.75239 13.4609 1.96997 13.5311C2.18756 13.6012 2.41915 13.615 2.64342 13.5712C2.86768 13.5274 3.07742 13.4274 3.25332 13.2803C3.42922 13.1333 3.56563 12.9439 3.65 12.7298C5.0046 12.9894 6.19837 12.0085 6.25199 10.887C7.51367 10.887 8.06409 10.3857 8.27139 9.21729L8.75033 9.25334C8.88972 10.5155 8.31071 11.7092 6.80598 11.5649C6.76667 13.0687 5.31913 13.909 3.9681 13.3897C3.33547 14.5834 1.89151 15.0594 0.679867 13.8946C0.410595 13.6484 0.210959 13.3345 0.101375 12.9849C-0.00820821 12.6353 -0.023809 12.2627 0.0561722 11.905C0.136153 11.5474 0.308845 11.2176 0.556586 10.9494C0.804326 10.6812 1.11823 10.4842 1.46618 10.3785C1.50192 8.90715 2.58132 7.4935 4.68293 8.04526C4.76341 7.85769 4.89126 7.6947 5.0537 7.57257C5.21614 7.45044 5.40748 7.37343 5.60864 7.34925C5.40143 7.29239 5.21271 7.18146 5.0615 7.02763C4.91028 6.87379 4.8019 6.68247 4.74726 6.47293C4.39284 6.54906 4.02514 6.53425 3.67786 6.42985C3.33057 6.32545 3.0148 6.1348 2.75946 5.87537C2.50411 5.61595 2.31736 5.29602 2.2163 4.9449C2.11525 4.59379 2.10311 4.22269 2.18102 3.86562C0.75135 3.10831 0.729904 1.70189 1.43759 0.843601C2.14527 -0.0146837 3.40695 -0.238273 4.5078 0.71738C6.36994 -0.324822 8.47869 0.951781 8.35002 3.09028C9.65459 3.00012 10.4445 4.14691 10.2979 5.34418C10.3599 5.12332 10.4817 4.92428 10.6497 4.76947C10.8176 4.61465 11.0251 4.5102 11.2487 4.46787L11.892 4.75276L11.8849 4.75997Z" fill="white"/>
<path fill-rule="evenodd" clip-rule="evenodd" d="M15.0866 2.20312L15.4011 2.43032C14.7666 3.74253 13.8754 4.91159 12.7812 5.86706L12.4238 5.60021C13.1962 4.38255 14.0857 3.24469 15.0794 2.20312H15.0866Z" fill="white"/>
<path fill-rule="evenodd" clip-rule="evenodd" d="M5.96901 9.33008L6.17989 9.64743C5.29667 10.5205 4.30132 11.2701 3.22048 11.8761L2.92383 11.5515C3.80351 10.6384 4.83394 9.88675 5.96901 9.33008Z" fill="white"/>
<path fill-rule="evenodd" clip-rule="evenodd" d="M7.81363 5.46793L7.45622 5.93313C6.44473 5.26598 4.45034 3.47007 4 2.82095L4.31453 2.5C5.27955 2.99405 7.17386 4.68537 7.82793 5.46793H7.81363Z" fill="white"/>
<path fill-rule="evenodd" clip-rule="evenodd" d="M5.93956 22.5002C6.05393 23.0844 5.93956 23.7263 6.47926 24.3574C7.07753 25.148 7.72203 25.9018 8.40931 26.6149C7.41212 27.008 5.41416 27.8266 3.98092 28.0069C3.66559 28.0851 3.36662 28.2194 3.0981 28.4036C2.8613 28.8672 2.71106 29.3709 2.6549 29.8894C2.61052 30.3688 2.59381 30.8505 2.60487 31.3319C2.66547 32.2996 2.90806 33.2469 3.3197 34.1231C3.81651 35.0643 4.29187 35.4863 4.87803 35.7603C5.12722 35.6859 5.38679 35.653 5.64648 35.663C6.08741 35.6517 6.52495 35.7435 6.92488 35.9312C7.32481 36.1188 7.67629 36.3973 7.95181 36.7448C8.09478 36.9432 8.38429 36.9829 8.75958 36.9829C9.70725 36.9341 10.6389 36.7168 11.5117 36.3409C11.7083 36.1823 12.2587 35.8108 12.7984 35.3817C13.3381 34.9525 16.3511 32.3813 17.6843 31.7358C18.6151 32.2662 19.6577 32.5653 20.7259 32.6085C20.9083 32.6117 21.0904 32.5948 21.2691 32.558C21.6266 32.4751 22.1162 32.3056 22.7167 32.1974C23.607 32.0087 24.5083 31.8774 25.4152 31.8043C26.4052 31.8223 29.3003 31.8944 29.9865 31.8944C30.6728 31.8944 31.7343 31.8331 32.131 31.7935C33.2387 31.4698 34.325 31.076 35.3835 30.6142C36.9584 29.7929 38.45 28.8182 39.8369 27.704C40.0382 27.523 40.2214 27.3225 40.3838 27.1054C40.4374 27.0332 40.4588 27.0044 40.4588 26.9467C40.4588 26.889 40.4588 25.0246 40.4588 25.0246C40.4588 25.0246 41.1058 24.3033 41.3559 24.0509C41.3651 24.0394 41.3718 24.026 41.3755 24.0117C41.3792 23.9974 41.3798 23.9825 41.3774 23.9679C41.2094 23.077 41.1553 22.1681 41.2166 21.2633L40.5589 20.9531C40.5292 22.188 40.1659 23.3913 39.5081 24.4332C38.5324 24.5882 36.6488 25.1724 35.9911 25.9406L36.3485 26.0451C36.9782 25.6693 37.6936 25.4643 38.4251 25.4501C39.1078 25.4501 39.4116 25.6304 39.4116 25.8107C39.3803 26.0074 39.3201 26.1982 39.2329 26.3769C39.1822 26.5184 39.1098 26.651 39.0184 26.77C37.3828 28.6055 35.2489 29.9159 32.8816 30.5385C32.5027 30.6467 31.9845 30.7982 31.6449 30.9172C31.1696 30.9172 28.6784 30.8306 27.2237 30.8306C25.769 30.8306 22.7703 31.0434 21.8196 31.285C21.3871 31.3968 21.2799 31.5699 20.7759 31.5699C19.8359 31.5699 18.6064 31.0903 17.8487 30.7224C17.6237 30.8059 17.404 30.9035 17.191 31.0145C16.6549 31.2814 15.4611 32.9511 14.7642 32.457C14.4068 33.1783 12.8806 33.8815 12.3552 34.6424C12.4124 34.2421 13.0307 31.6673 13.07 31.1516C13.0917 31.0624 13.079 30.9683 13.0343 30.8883C12.4731 29.9507 10.9112 29.3521 10.032 29.179C9.77107 29.1285 9.64597 29.0888 9.47083 29.0527L8.08048 28.6272L6.79021 29.0419L8.28064 29.3268L6.3899 30.5854C6.71873 30.4592 8.75243 29.893 8.89182 29.8461C9.09706 29.7766 9.3192 29.7766 9.52444 29.8461C9.79965 29.9435 10.5967 30.1238 11.0542 30.2861C11.4126 30.4896 11.7045 30.7941 11.8941 31.1624C11.96 31.4485 11.9924 31.7414 11.9906 32.0351C11.9894 32.4232 11.9402 32.8097 11.8441 33.1855C11.6792 33.8585 11.423 34.5053 11.0828 35.1076C10.9342 35.3856 10.6883 35.5978 10.393 35.7026C9.93056 35.9152 9.42855 36.0259 8.92041 36.0272C8.5344 36.0272 8.28064 36.0092 8.11265 35.7892C7.74069 35.345 7.25978 35.007 6.71792 34.809C6.17605 34.6109 5.59218 34.5597 5.02457 34.6604C4.22754 34.1736 3.43765 32.6049 3.43765 31.3571C3.51667 30.4935 3.71021 29.6444 4.01309 28.8328C5.31408 28.6597 7.9125 27.6607 9.17775 27.0837C9.73124 26.9497 10.294 26.8581 10.8612 26.8097C12.5625 26.8097 14.2495 28.3099 15.2717 29.334C15.4061 29.0984 15.6051 28.907 15.8448 28.7829C16.0845 28.6588 16.3547 28.6072 16.6227 28.6344C17.8272 28.6344 18.5135 29.7163 18.8602 30.8667L19.4856 30.4087C19.3619 29.7038 19.0306 29.0528 18.5349 28.5407C18.0331 28.0787 17.387 27.8083 16.7085 27.7761C16.3511 27.7761 15.9508 27.8627 15.7042 27.8627C14.8464 27.8627 14.4961 27.4768 13.8635 27.0332C13.2309 26.5897 11.9013 25.8684 11.0041 25.8684C10.4216 25.8684 10.1571 26.0992 9.67456 26.0992C8.95973 26.0992 8.69881 25.8071 8.35569 25.378C8.20915 25.1941 7.48717 24.5486 7.28344 24.2961C7.11614 23.9594 6.99012 23.6034 6.90816 23.2359L5.93241 22.5146L5.93956 22.5002Z" fill="white"/>
<path fill-rule="evenodd" clip-rule="evenodd" d="M6.91686 23.2069C7.11942 23.4467 7.34182 23.6686 7.58165 23.8704C7.85626 24.0641 8.14277 24.2399 8.43945 24.3969C8.87084 24.6614 9.32695 24.8824 9.80121 25.0569C10.2733 25.1831 10.7605 25.2426 11.2487 25.2336C11.9636 25.2336 12.8071 25.0857 13.504 25.4139C13.9723 25.6339 14.0044 26.1351 14.3761 26.2758C14.9552 26.503 16.5635 26.5571 17.4571 26.5571C19.0722 26.5595 20.6833 26.3927 22.2643 26.0594L21.7139 25.4463C20.3458 25.6494 18.9677 25.7758 17.5857 25.825C16.106 25.825 14.705 25.587 14.705 24.9703C14.705 24.5412 15.1625 23.9245 16.031 23.9245C16.9638 23.9245 18.3721 24.4943 18.6365 24.57C18.7192 24.6095 18.8096 24.63 18.901 24.63C18.9925 24.63 19.0828 24.6095 19.1655 24.57L19.7124 24.2851C18.9975 23.9462 16.4635 23.0734 15.5842 23.0734C15.4099 23.0504 15.2326 23.0763 15.0718 23.1481C14.9111 23.22 14.773 23.3352 14.6728 23.4809C14.3154 23.9209 13.4326 24.3176 11.9957 24.3176C11.2668 24.3209 10.5399 24.2386 9.8298 24.0724C9.19019 23.7697 8.57994 23.4075 8.00698 22.9905C7.32783 22.5281 6.74098 21.9409 6.27708 21.2595C6.15541 21.0721 6.09195 20.8524 6.0948 20.6284C6.10696 20.4743 6.12965 20.3213 6.16271 20.1704C6.28853 20.3419 6.43366 20.498 6.59518 20.6356C7.44274 21.4243 8.4952 21.9534 9.62965 22.1611C9.93957 22.2312 10.2557 22.2699 10.5732 22.2765C11.0331 22.2538 11.47 22.0672 11.8063 21.75L11.356 21.2198C11.1413 21.2576 10.9232 21.2721 10.7055 21.2631C9.03276 21.2631 6.90971 20.1812 6.41647 18.8866C6.36644 18.7604 6.30925 18.6919 6.35571 18.5765C6.42453 18.3849 6.47363 18.1867 6.50226 17.985C6.66847 18.1585 6.85582 18.31 7.05982 18.4358C7.68173 18.8361 8.84691 19.3915 9.10067 19.5393C9.58552 19.4006 10.055 19.2121 10.5017 18.9768C10.9243 18.7482 11.3948 18.6246 11.8742 18.6161C13.0966 18.6161 14.5048 19.3193 15.8058 19.9721L16.7065 19.6114C15.5342 18.782 12.9858 17.6208 11.5704 17.6208C10.7341 17.6208 9.94775 18.2375 9.39018 18.2375C8.70394 18.2375 6.73457 17.271 6.73457 16.4668C6.73457 15.8465 8.00698 15.4967 10.055 15.2407C9.69756 15.7672 9.36516 16.3226 9.05063 16.8743L9.57246 17.1664C12.7892 12.4783 16.1168 9.44907 18.926 7.59907C19.6486 7.1986 20.2156 6.56305 20.5344 5.79595C21.4029 3.99283 22.2214 2.62967 23.6475 2.62967C23.9574 2.64094 24.2607 2.7227 24.5349 2.86882C24.8091 3.01494 25.047 3.22165 25.2309 3.47353L26.2638 3.78367L25.2201 4.50492L26.2924 4.93045C25.3895 5.22862 24.5606 5.7191 23.8619 6.36867C23.1633 7.01823 22.6111 7.81172 22.2429 8.69537C20.756 8.7747 20.0376 9.98641 19.5551 10.9998C19.2263 11.6849 18.7045 11.9554 17.9467 12.4747L11.8707 16.7409L12.707 16.8563L18.3184 13.0733C19.4264 12.3196 19.9518 11.7679 20.2163 11.2306C20.7381 10.1847 21.2886 9.4058 22.4001 9.4058C22.9935 9.42028 23.5593 9.66127 23.9835 10.0802L24.9664 10.4011L23.8941 11.0647L24.7948 11.62C22.2179 12.4314 20.6238 14.2922 19.6981 17.8408L20.3772 17.9995C20.6513 16.8735 21.0834 15.7927 21.6603 14.7899C23.1507 14.7719 24.6626 14.7178 26.1459 14.7178C30.1025 14.7178 33.3835 14.8873 35.1563 15.4138L34.5308 14.3319C32.633 14.0074 29.8844 13.8379 26.1459 13.8379C24.8913 13.8379 23.6225 13.8847 22.3608 13.8992C23.1757 13.0337 24.3481 12.3016 26.153 11.7354L24.8699 11.0142L26.2995 10.2208L24.3624 9.49956C23.998 9.15512 23.5547 8.90729 23.0721 8.77831C23.694 6.85619 25.8063 5.73464 27.8329 4.96291L26.4032 4.3787L27.8329 3.59254L25.6312 2.87129C25.4057 2.55629 25.1075 2.3014 24.7626 2.12862C24.4176 1.95584 24.0361 1.87037 23.6511 1.87958C21.6067 1.87958 20.7489 3.6827 19.9375 5.25141C19.6468 5.94393 19.1464 6.52586 18.5079 6.91389C16.5132 8.2563 14.6751 9.82171 13.0287 11.5804C12.0315 10.8591 9.98706 8.73144 9.43307 7.57383C9.25467 7.84357 9.10944 8.1342 9.0006 8.43933C9.2079 8.66291 11.6133 11.1079 12.5069 12.1465L12.3067 12.3737C11.3524 12.5649 8.87907 12.8029 8.0177 12.6875L7.54234 13.5349C8.17496 13.47 10.634 13.1743 11.6526 13.1202C11.3452 13.4989 11.0414 13.8884 10.7448 14.2886C7.58165 14.6493 5.46932 15.302 5.46932 16.4812C5.46932 16.6724 5.54438 16.8923 5.54438 17.1015C5.55874 17.2875 5.51557 17.4734 5.42083 17.6335C5.32609 17.7937 5.18444 17.9203 5.0154 17.9959C4.78666 18.1401 4.77236 18.2375 4.86886 18.3745C5.10116 18.6879 5.29778 19.0266 5.45503 19.3843C5.45503 19.6187 5.22271 19.8531 5.03327 20.0658C4.84384 20.2786 4.87601 20.3002 5.00468 20.5346L5.92324 22.4964L6.89899 23.2177L6.91686 23.2069Z" fill="white"/>
<path fill-rule="evenodd" clip-rule="evenodd" d="M46.0852 12.2754C45.8855 12.4853 45.7071 12.7148 45.5527 12.9606L45.0451 12.2393C46.7464 9.95657 51.2392 8.88552 53.8769 8.698V7.47187C53.5409 7.57645 53.1621 7.69547 52.8475 7.7748C52.4321 7.89599 52.0037 7.96621 51.5716 7.98396C51.4193 7.98833 51.268 7.95821 51.1289 7.8958C50.9897 7.83339 50.8662 7.74028 50.7674 7.62334C50.4099 7.11125 50.7424 6.34312 51.9004 5.62548L50.9854 4.86096C50.2706 5.78055 49.5879 6.79751 48.8802 7.40336C48.2369 7.95511 47.5649 8.23279 47.0216 7.82167C46.7286 7.60169 46.6213 7.50073 46.5892 6.92733C46.6321 6.08348 47.1396 4.79605 47.5899 3.96662L46.5177 3.8404C46.3197 4.99742 45.8904 6.10169 45.256 7.08601C44.6026 8.09183 43.751 8.95113 42.7541 9.61038L42.1465 9.05501C43.063 8.52539 43.8497 7.79451 44.4482 6.91652C45.1881 5.76973 45.785 4.35609 45.7886 3.07227L48.916 3.37158C48.3046 4.2147 47.8226 5.14594 47.4863 6.13396C47.3433 6.61719 47.3505 6.99946 47.522 7.12928C47.8544 7.37811 48.4334 6.97782 48.9982 6.37197C49.6891 5.53827 50.3289 4.66273 50.9139 3.75024L53.1764 5.63991C52.172 6.17723 51.1963 6.79029 51.3893 7.13649C51.5823 7.48269 52.2113 7.35647 52.919 7.13649C53.5022 6.95859 54.0643 6.71673 54.5953 6.41524V9.49497C52.9982 9.51191 51.4113 9.75469 49.881 10.2162C50.3027 10.8185 51.5179 11.0384 52.2864 11.1466L51.9004 13.6458C49.956 12.8235 48.4549 12.3439 46.0959 12.297L46.8751 11.6227C48.4205 11.6608 49.942 12.0167 51.3464 12.6685L51.4858 11.7236C50.5958 11.6046 49.4771 11.0961 48.9839 10.5191C48.2303 10.7918 47.5154 11.1628 46.8572 11.6227L46.0781 12.297L46.0852 12.2754Z" fill="white"/>
<path fill-rule="evenodd" clip-rule="evenodd" d="M36.7636 20.2138L37.4784 18.6414C36.6284 17.6265 35.8497 16.5528 35.1481 15.4283L34.5226 14.3464C33.0715 11.5732 33.6005 10.2497 32.8284 9.03081C32.1887 8.02467 29.0827 8.65216 28.568 8.76034L29.4687 7.26376L27.6816 7.40441L29.1828 5.60129C29.3877 5.27041 29.5284 4.90328 29.5974 4.51942C29.8619 3.57458 30.6696 1.95898 33.0322 1.95898C35.652 1.95898 36.4669 4.09388 37.6107 5.02429C38.9081 6.0737 40.6094 7.54865 42.1248 9.03081L42.7253 9.62584C43.5504 10.4401 44.3183 11.3113 45.0235 12.2332L45.531 12.9544C48.6906 17.5956 52.6114 26.467 54.3449 30.5276C54.5129 30.9207 54.6344 31.3174 54.7381 31.6095C53.4366 30.8883 52.1721 30.1011 50.9494 29.251L50.1703 28.6992C49.6878 28.3386 49.2053 27.978 48.7227 27.6174L47.9221 26.9863C47.4456 26.5992 46.969 26.2025 46.4925 25.7962L48.0758 35.021C48.1938 35.5655 48.6548 35.4718 49.0301 34.9921C49.4054 34.5125 49.5448 34.3863 49.3875 33.7516L47.9078 26.9538L48.7084 27.5849L50.1381 33.3549C50.2739 33.8742 50.4955 34.0401 51.0996 34.0761C51.7036 34.1122 51.8323 33.8706 51.7036 33.4667L50.1667 28.674L50.9459 29.2257L52.397 33.5316C52.7544 34.6351 52.397 34.7649 51.7429 34.7649C51.0888 34.7649 50.492 34.6099 50.1345 34.8407C49.7771 35.0715 49.3196 35.7134 48.7799 36.2832C48.3046 36.7772 47.6076 36.6438 47.4682 35.7242L45.724 25.1002C44.6035 24.0904 43.5403 23.0177 42.5394 21.887C42.1141 21.7031 41.6352 21.4795 41.2099 21.2812L40.5558 20.9747C40.4008 20.8982 40.2422 20.8296 40.0804 20.7691C39.63 21.374 39.1329 21.942 38.5936 22.4677C38.4781 22.5936 38.3374 22.6933 38.181 22.7605C38.0245 22.8276 37.8557 22.8605 37.6857 22.8571C37.5331 22.8672 37.3804 22.8374 37.2425 22.7706C37.0432 22.6325 36.878 22.4498 36.76 22.2369C36.6314 22.0385 36.4419 21.7861 36.2775 21.5156C35.9201 20.935 35.5627 20.2029 35.2231 19.6115C34.8478 18.948 34.5262 18.4503 34.4797 18.3674C34.41 18.262 34.3258 18.1673 34.2295 18.0861C34.037 18.4591 33.9284 18.8704 33.9114 19.2906L33.2538 19.067C33.3482 18.636 33.4676 18.2109 33.6112 17.794C33.5999 17.6645 33.5482 17.5419 33.4634 17.444C33.3785 17.3461 33.2651 17.278 33.1394 17.2494C32.8392 17.2494 32.5318 17.5812 32.3745 18.2123L31.7097 18.5044C31.7884 17.4838 32.1351 16.3659 33.1394 16.3659C33.9507 16.3659 34.4511 16.9862 34.8371 17.5704C35.2231 18.1546 36.4884 19.8928 36.76 20.2318L37.2604 20.8737C37.3282 21.1488 37.4497 21.4075 37.6178 21.6346C37.7894 21.9051 37.9752 21.8871 38.2433 21.6346C38.5474 21.3791 38.8384 21.1083 39.1154 20.8232C39.3966 20.528 39.6514 20.2082 39.8767 19.8676C40.2341 20.0335 40.9311 20.3652 41.4851 20.6104C39.1118 17.6678 36.8387 14.0976 35.8593 11.6706C35.4519 10.668 36.2489 10.3327 36.6314 11.31C37.675 13.993 40.7238 18.7388 42.9648 21.2271C45.5525 24.1121 50.3025 28.2665 53.3906 29.9362C52.9438 29.0563 52.3505 27.7941 51.6679 26.3299C47.8935 24.2023 44.1013 20.2606 42.3286 16.8852L43.1077 16.9754C44.7554 19.9072 48.6906 23.8272 51.0174 24.9596C48.8729 20.4157 46.1243 14.6638 43.9655 12.1863C41.2885 9.11376 38.3612 6.74085 36.9673 5.50391C35.5734 4.26697 35.023 2.75596 33.0357 2.75596C31.4023 2.75596 30.5338 3.94242 30.2157 5.13969C30.1649 5.36192 30.0727 5.57239 29.9441 5.75995L29.1721 6.69398L30.8412 6.48842L29.8762 7.85158C29.8762 7.85158 32.4925 7.26015 33.4075 8.51151C34.3975 9.86385 33.7649 11.3785 35.3804 14.3248C36.0952 15.6194 37.8144 17.949 38.3898 18.4683L37.2604 20.8557L36.76 20.2138H36.7636Z" fill="white"/>
<path fill-rule="evenodd" clip-rule="evenodd" d="M11.0374 20.6232L10.6406 20.3491C10.9687 20.0839 11.329 19.8621 11.7129 19.6892C11.9229 19.602 12.147 19.5543 12.3741 19.5485C12.7999 19.5747 13.2126 19.7073 13.575 19.9344C14.1647 20.2518 14.826 20.6232 15.3371 20.6232C15.5301 20.6232 15.7159 20.5799 15.934 20.5799C16.4379 20.5799 16.9204 20.8071 17.1956 20.8071C17.3636 20.8071 17.478 20.6556 17.5888 20.4934C17.8765 20.0869 18.2751 19.7737 18.7361 19.5918C19.3247 19.3672 19.9514 19.2618 20.5804 19.2817C21.0258 19.282 21.4701 19.3279 21.9064 19.4187C21.9064 19.4187 21.4954 19.9164 21.3917 20.0282C20.8484 20.0282 19.8084 20.0101 19.14 20.2806C18.9764 20.3226 18.8321 20.4201 18.7313 20.5566C18.6304 20.6932 18.5791 20.8605 18.586 21.0307C18.586 21.5284 19.1328 21.7195 19.744 21.907C20.1049 22.0063 20.4781 22.0524 20.852 22.044C21.5344 21.9894 22.2111 21.8772 22.875 21.7087C23.5892 21.5558 24.2954 21.3668 24.9909 21.1425L25.3483 21.7736C24.3084 22.1432 23.2473 22.4491 22.1709 22.6896C21.6423 22.8067 21.1036 22.8707 20.5625 22.8807C19.7142 22.8251 18.8872 22.5891 18.1356 22.1883C17.5209 21.8926 16.974 21.6005 16.4844 21.6005C15.9255 21.6187 15.3814 21.7867 14.9082 22.0873C14.3748 22.4398 13.8156 22.7508 13.2355 23.0177C12.7762 23.2197 12.2817 23.3276 11.7808 23.3351C11.4345 23.371 11.0869 23.2802 10.8015 23.079L11.6092 22.5814C11.7246 22.6705 11.8682 22.7141 12.0131 22.704C12.2121 22.697 12.4072 22.6466 12.585 22.5561C12.792 22.4583 12.9915 22.345 13.1819 22.2171C13.3755 22.0892 13.5594 21.947 13.7323 21.7916C13.794 21.7552 13.8456 21.7036 13.8821 21.6415C13.9186 21.5795 13.9389 21.5091 13.941 21.437C13.9432 21.3649 13.9271 21.2934 13.8943 21.2292C13.8616 21.1651 13.8132 21.1104 13.7537 21.0704C13.6015 20.9266 13.4364 20.7975 13.2605 20.6845C12.9782 20.4648 12.6305 20.3478 12.274 20.3527C11.8426 20.3445 11.4158 20.4422 11.0302 20.6376L11.0374 20.6232Z" fill="white"/>
<path fill-rule="evenodd" clip-rule="evenodd" d="M22.2739 20.9567C22.0611 20.8957 21.8451 20.8463 21.627 20.8089C21.9257 20.4059 22.2879 20.055 22.6992 19.7703C23.4046 19.2939 24.2309 19.0322 25.0796 19.0166C25.362 19.0166 25.9338 18.9444 26.2555 18.9589C26.6674 18.9705 27.0781 19.0091 27.485 19.0743C27.8031 19.1356 28.0998 19.2257 28.3464 19.2618C28.6317 19.2886 28.9189 19.2886 29.2042 19.2618C29.925 19.144 30.6254 18.923 31.2843 18.6055L31.4774 19.3267C30.4837 19.8352 29.365 20.3256 28.3392 20.3256C27.8174 20.3256 27.267 20.286 26.7452 20.2391C25.8337 20.1489 25.0439 20.0299 24.7722 20.0299C23.8591 20.0676 22.9821 20.4001 22.2703 20.9784L22.2739 20.9567Z" fill="white"/>
<path fill-rule="evenodd" clip-rule="evenodd" d="M21.5422 24.8981L20.6094 24.469C21.9085 23.8268 23.2787 23.3426 24.6911 23.0265C25.4558 22.9403 26.214 22.803 26.9607 22.6154C27.2073 23.2392 27.6755 23.9028 28.3903 23.9028C28.7707 23.8431 29.1389 23.7213 29.4804 23.5422C29.9522 23.333 30.424 23.1058 30.6706 22.994L32.5256 22.1465C32.8044 22.0203 33.5657 21.6561 33.5979 21.6309L34.0875 21.8977C33.9345 22.59 33.7105 23.2644 33.4192 23.91C33.3326 24.1036 33.2221 24.2853 33.0904 24.4509C32.7875 24.7794 32.4508 25.0744 32.086 25.3309C31.5964 25.6915 31.0138 26.0521 30.3633 26.4127C29.8736 26.6976 29.3768 26.9897 28.8728 27.2205L28.6119 26.7445C29.3943 26.2864 30.1476 25.7793 30.8672 25.2263C31.17 25.0088 31.4611 24.7753 31.7393 24.5267C31.8751 24.4067 31.9953 24.2698 32.0967 24.1192C32.3469 23.7445 32.5623 23.3473 32.7401 22.9327C32.4506 23.077 31.3569 23.5963 30.8672 23.8523C30.3168 24.1444 29.4197 24.606 28.9193 24.844C28.6088 25.0089 28.2683 25.1083 27.9185 25.1361C27.7144 25.1303 27.5161 25.0658 27.347 24.9502C27.178 24.8345 27.0452 24.6726 26.9642 24.4834C26.6068 23.8487 26.2494 23.7874 25.2343 23.7621C23.9235 23.7912 22.6454 24.1816 21.5387 24.8909L21.5422 24.8981Z" fill="white"/>
<path fill-rule="evenodd" clip-rule="evenodd" d="M26.9853 21.9646C26.9853 21.9646 26.8495 21.4093 26.7852 21.2073C26.9012 21.1725 27.0215 21.1543 27.1426 21.1532C27.5 21.1532 28.3506 21.2506 28.7045 21.2506C30.0448 21.2506 30.5416 20.8287 30.9348 20.468C31.1455 20.2659 31.3971 20.1119 31.6721 20.0167C31.9472 19.9215 32.2394 19.8872 32.5288 19.9163C33.2146 19.9419 33.8897 20.096 34.5196 20.3707L34.4625 21.1099C34.0217 20.8752 33.5312 20.7515 33.0328 20.7493C32.7453 20.7305 32.4573 20.7761 32.1893 20.8827C31.9731 21.0281 31.7709 21.1935 31.5853 21.3768C31.2892 21.611 30.9572 21.795 30.6024 21.9213C30.044 22.1149 29.4554 22.2041 28.8653 22.1846C28.2225 22.1773 27.5821 22.106 26.9531 21.9718L26.9853 21.9646Z" fill="white"/>
<path fill-rule="evenodd" clip-rule="evenodd" d="M18.4922 27.5343L19.1069 27.2783C19.7311 27.5382 20.3922 27.6964 21.0656 27.7471C21.3644 27.7347 21.657 27.6572 21.9234 27.5199C22.1021 27.437 24.1644 26.42 25.1866 26.0486C25.4478 25.9467 25.7223 25.8835 26.0015 25.861C26.2445 25.861 26.2588 25.9728 26.3303 26.0882C26.5233 26.3984 28.0423 28.5837 28.196 28.7532C29.4863 28.3529 30.8088 27.7687 31.5701 27.0295C32.3313 26.2902 33.0212 25.367 33.6609 24.6782C33.8648 24.4503 34.0994 24.2524 34.3579 24.0904C35.0191 23.7298 37.0671 23.7045 37.9321 23.7298L37.4174 24.451C35.9019 24.451 35.0513 24.6097 34.6688 24.8982C34.429 25.097 34.2142 25.3247 34.0291 25.5761C33.5108 26.2541 32.9568 27.1881 32.7174 27.3793C33.2042 27.7596 33.8029 27.9652 34.4187 27.9635C35.7089 27.9635 36.6311 27.1521 37.135 26.6941L37.5675 26.9537C37.2472 27.4008 36.8587 27.794 36.4166 28.1185C35.9365 28.4273 35.4121 28.6596 34.8619 28.8073C34.1149 28.6667 32.4707 28.3313 32.0847 28.2556C30.6551 28.8362 28.3462 29.781 27.567 30.019C27.3944 30.0611 27.2187 30.0888 27.0416 30.102C26.4268 30.1344 25.5726 30.1308 24.7934 30.12C24.3461 30.1292 23.8986 30.1123 23.4531 30.0695L22.7669 29.3483C23.2289 29.4538 23.7015 29.5046 24.1751 29.4997C25.0184 29.5103 25.8595 29.4097 26.677 29.2004C26.9165 29.1391 26.9522 28.9985 26.8843 28.7821C26.7503 28.4022 26.5412 28.0537 26.2696 27.7579C26.0648 27.5307 25.8386 27.3241 25.594 27.1413C25.4118 27.015 25.2366 26.9826 24.7255 27.1413C24.2144 27.2999 22.8026 28.0933 22.1771 28.4287C22.0094 28.5207 21.8242 28.5756 21.6338 28.5899C21.4434 28.6042 21.2521 28.5775 21.0727 28.5116C20.185 28.2721 19.3258 27.9359 18.5101 27.5091L18.4922 27.5343Z" fill="white"/>
<path fill-rule="evenodd" clip-rule="evenodd" d="M23.0462 10.7603C23.0462 10.6546 23.0151 10.5512 22.9568 10.4634C22.8985 10.3755 22.8157 10.3071 22.7189 10.2668C22.622 10.2266 22.5154 10.2162 22.4127 10.2371C22.31 10.258 22.2158 10.3092 22.1419 10.3842C22.0681 10.4592 22.018 10.5546 21.998 10.6584C21.978 10.7621 21.989 10.8696 22.0296 10.967C22.0702 11.0645 22.1385 11.1476 22.226 11.2058C22.3134 11.264 22.4161 11.2947 22.5208 11.294C22.5901 11.294 22.6587 11.2802 22.7227 11.2533C22.7867 11.2264 22.8448 11.1871 22.8936 11.1375C22.9425 11.0878 22.9811 11.029 23.0073 10.9643C23.0335 10.8995 23.0467 10.8302 23.0462 10.7603Z" fill="white"/>
</g>
<defs>
<clipPath id="clip0_134_8464">
<rect width="140" height="37" fill="white"/>
</clipPath>
</defs>
</svg>
