<svg width="118" height="31" viewBox="0 0 118 31" fill="none" xmlns="http://www.w3.org/2000/svg">
<g clip-path="url(#clip0_134_8338)">
<path d="M102.669 0.0195312L87.485 29.1273H96.1612L97.4741 26.1681H107.806L109.176 29.1273H117.795L116.653 26.9531L102.669 0.0195312ZM0.550781 0.26107V29.1273H8.65627V18.4987L21.9561 30.9993V2.3748H13.8506V12.6409L0.550781 0.26107ZM29.6619 2.3748V29.1273H37.8816V2.3748H29.6619ZM39.4228 2.3748L53.7504 30.3952L68.1349 2.37465H59.4584L53.7501 14.3316L48.1564 2.37465H39.423L39.4228 2.3748ZM69.5044 2.3748V29.1273H85.5444V22.122H77.7242V17.9552H85.5444V12.9427H77.7242V9.25902H85.5444V2.37465H69.5044V2.3748ZM102.611 14.7546L105.751 21.6994H99.5288L102.611 14.7546Z" fill="white"/>
</g>
<defs>
<clipPath id="clip0_134_8338">
<rect width="118" height="31" fill="white"/>
</clipPath>
</defs>
</svg>
