<svg width="110" height="53" viewBox="0 0 110 53" fill="none" xmlns="http://www.w3.org/2000/svg">
<g clip-path="url(#clip0_134_8446)">
<path d="M52.4991 0H0V52.8486H52.4991V0Z" fill="white"/>
<path fill-rule="evenodd" clip-rule="evenodd" d="M34.6077 38.422C34.1007 38.553 33.9754 38.7585 34.064 38.8836C34.1547 39.0043 34.6077 38.9127 34.8454 38.8018C35.0855 38.6878 35.1439 38.553 35.0621 38.4279C34.9954 38.3282 34.685 38.4033 34.6077 38.422ZM30.5806 14.5814C30.8357 14.6022 30.8154 14.5955 30.9182 14.6134C30.9774 14.5293 31.4259 13.871 31.4657 13.7332C31.5114 13.6007 31.4049 13.4987 31.3021 13.4927C31.201 13.4875 31 13.4987 30.8634 13.6245C30.7179 13.7571 30.6279 14.3512 30.5806 14.5814ZM38.281 22.6244C37.7335 22.4226 37.171 22.5343 36.6295 22.751L36.5785 22.8671C36.4743 23.092 36.331 23.264 36.1743 23.4003C36.4562 23.605 37.1043 23.8054 37.8055 23.7831C38.509 23.7667 39.1195 23.2625 39.1195 23.2625C38.9778 23.06 38.8337 22.8277 38.281 22.6244ZM37.2965 25.7191C37.0835 25.34 36.4655 25.2708 35.9442 24.853L35.9105 24.9633L35.7935 24.9916C35.3638 25.0913 35.0113 25.0653 34.7405 24.9968C34.7758 25.0823 34.8043 25.209 34.8178 25.276C35.1778 25.7205 35.687 26.0325 36.3628 26.113C37.0362 26.1889 37.2965 25.7191 37.2965 25.7191ZM36.0113 22.3091C36.3549 22.4223 36.6668 22.4796 37.5158 22.2614C38.4181 22.0261 38.5471 21.3403 38.5471 21.3403C38.1511 21.0834 37.6419 21.0864 37.3831 21.1854C37.1236 21.28 36.5348 21.28 36.2851 21.2241C36.1703 21.6948 35.9357 22.012 35.6956 22.2175C35.8141 22.2413 35.9176 22.2741 36.0113 22.3091ZM36.7371 33.2028C37.274 32.715 37.613 32.2154 37.2972 31.8787C36.983 31.5407 36.4513 31.8341 35.9113 32.3203C35.3735 32.8074 35.0353 33.3062 35.3488 33.6421C35.6398 33.9556 36.1993 33.6883 36.7371 33.2028ZM35.379 31.8438C36.0548 30.662 35.2396 29.0804 34.557 27.9783C34.4723 27.9471 34.3883 27.9084 34.3035 27.8651C34.542 28.7125 34.9973 29.7208 34.8098 30.4982C34.2151 29.8005 34.0388 27.7095 34.0388 27.7095C33.9578 27.6566 33.873 27.5971 33.7943 27.533C33.7583 27.5055 33.7268 27.4794 33.6953 27.4489C33.6953 27.5234 33.6923 27.6037 33.6855 27.682C33.7688 28.9419 33.873 30.2361 34.2705 30.8824C34.6613 31.5154 35.379 31.8438 35.379 31.8438ZM33.9244 27.3737C34.3115 27.6776 34.8335 27.9672 35.4087 27.8809C35.4087 27.8809 35.5414 27.4542 34.3955 26.4102C34.0085 26.3588 33.7175 26.2218 33.4955 26.0632C33.4483 26.1965 33.3702 26.3759 33.428 26.6313C33.4835 26.8883 33.6635 27.169 33.9244 27.3737ZM38.0768 20.4746C38.5695 20.033 38.9926 18.9444 38.9926 18.9444C38.5396 19.0017 37.6568 19.3912 37.1236 19.6853C36.6323 19.9586 35.9453 20.5275 35.6536 20.739C35.9987 20.7658 36.1997 20.8878 36.2169 20.8976L36.3339 20.9727C37.2099 21.0994 37.5676 20.9296 38.0768 20.4746ZM36.0551 27.3967L36.0296 27.3945C35.8105 27.3982 35.614 27.3647 35.4431 27.3029C35.4948 27.3915 35.5346 27.4727 35.5608 27.5427C37.4396 29.2689 37.2776 30.1207 37.2776 30.1207C36.637 29.7536 35.9276 28.7021 35.5698 28.061L35.4401 28.0803C35.2863 28.1057 35.1288 28.1057 34.9743 28.0863C35.2195 28.3134 35.5766 28.9545 36.1601 29.971C36.739 30.9912 38.152 31.4253 38.152 31.4253C38.2968 29.6992 36.775 28.1057 36.0551 27.3967ZM35.8208 26.1719C35.3603 25.8696 35.1436 25.8099 34.8293 25.699C34.7836 26.0773 34.5991 26.3156 34.5841 26.3349C34.7191 26.492 35.2043 27.3104 36.2213 27.1749C36.2213 27.1749 36.4921 26.6157 35.8208 26.1719ZM33.2503 20.4932C32.8896 20.7352 32.4936 21.2378 32.7951 21.9444C33.0966 22.6527 33.6658 23.6564 33.3239 24.0481C32.9848 24.4398 31.7751 24.6431 30.7896 24.2536C30.7896 24.2536 30.5841 24.8658 30.2249 25.2574C30.2249 25.2574 30.3929 25.5955 30.9622 25.4257C30.9622 25.4257 30.7536 25.9268 31.0372 26.4689C31.0372 26.4689 31.6986 26.3557 31.9806 25.7608C31.9806 25.7608 32.2461 26.2232 32.7772 26.393C32.7772 26.393 33.2136 26.1719 33.1176 25.3117C33.1176 25.3117 33.4371 26.0773 34.4225 26.2054C34.4225 26.2054 34.9896 25.5002 34.2509 24.55C34.2509 24.55 34.7803 25.0162 35.7448 24.7921C35.7448 24.7921 35.8963 24.3095 35.0241 23.6393C35.0241 23.6393 36.0111 23.6006 36.3898 22.7822C36.3898 22.7822 35.972 22.2781 34.9528 22.3913C34.9528 22.3913 35.8963 22.1858 36.104 21.0702C36.104 21.0702 35.4238 20.6413 34.3476 21.3294C34.3476 21.3294 34.5351 20.9772 34.9881 20.6242C35.4425 20.269 35.9924 19.2831 35.801 17.8325C35.4425 18.6122 34.8531 19.4127 33.2503 20.4932ZM33.2378 12.8887C33.4538 12.9453 33.5011 12.9297 33.6038 12.9201C33.6143 12.8754 33.6128 12.7555 33.5903 12.7071C33.5903 12.7071 33.0781 12.2149 32.6461 12.1307C32.3716 12.0771 32.2036 12.1955 32.1219 12.2595C32.1219 12.2595 32.2748 12.2447 32.5051 12.4301C32.7353 12.6125 33.021 12.8344 33.2378 12.8887ZM32.3121 14.346C32.3032 14.4816 32.2057 14.6231 32.0932 14.7384C32.0932 14.7384 32.7217 14.5932 32.7967 14.2098C32.8664 13.8687 32.7194 13.6297 32.6167 13.4397C32.5229 13.2611 32.232 12.847 32.1599 12.6735C32.0932 12.5164 32.0572 12.3853 32.0804 12.2983C31.8884 12.4881 31.7257 12.6891 31.7294 12.8649C31.7317 13.0444 31.9454 13.4986 32.0572 13.6713C32.1697 13.8441 32.3325 14.0705 32.3121 14.346ZM33.5352 13.7158C33.3665 14.0427 33.2862 14.5841 33.4279 14.9579C33.5412 15.2603 33.6312 15.6921 33.6387 15.8269C33.8734 15.4814 33.9492 15.1121 33.8997 14.7658C33.8705 14.5625 33.8449 14.2281 33.9739 13.972C34.0804 13.7568 34.3054 13.3748 34.2739 12.995C34.0872 12.8803 33.761 12.7717 33.761 12.7717C33.7917 13.1015 33.6995 13.3986 33.5352 13.7158ZM31.1999 16.0191C31.1999 16.0191 31.6139 15.7124 31.7129 15.4533C31.8141 15.1963 31.8404 15.0169 31.4264 15.142C31.4009 15.4681 31.3146 15.7913 31.1999 16.0191ZM37.7874 18.4661C38.2764 17.6216 38.0177 16.5516 38.0177 16.5516C37.0465 16.8063 36.55 17.6268 36.4104 17.8622C36.2718 18.096 36.0393 19.0015 35.9358 19.3664C35.8105 19.8147 35.6418 20.1959 35.4242 20.47C36.502 19.9651 37.3644 19.1973 37.7874 18.4661ZM34.1053 14.7385C34.1135 14.8108 34.1188 14.8823 34.1218 14.9583C34.3115 14.6343 34.8636 14.9679 34.8636 14.9679C34.5163 14.4199 34.3475 14.3603 34.0956 14.2649C34.0753 14.3968 34.0799 14.5524 34.1053 14.7385ZM39.309 18.694L39.0218 19.5154C39.8093 18.8907 40.7444 18.1959 41.328 17.764C41.7757 17.4319 42.4455 16.9583 43.1137 16.7363C43.1137 16.7363 42.4995 17.5235 42.003 17.9093C41.4323 18.3552 40.8502 18.741 40.3695 18.9986C39.945 19.2288 39.7275 19.3583 38.8658 19.7694C38.8066 19.8751 38.628 20.1238 38.5583 20.2214C40.9275 19.8327 43.5336 18.0685 44.3384 16.9747C45.1461 15.8815 44.9166 14.2507 44.9166 14.2507C44.1337 14.4034 42.4365 15.8458 41.9969 16.2806C41.5575 16.7126 40.2292 17.9852 39.309 18.694ZM37.3932 19.3244C37.5778 19.2337 37.7892 19.1361 38.003 19.0475L38.2002 18.9678C39.9507 18.0526 41.6854 16.1604 42.3874 14.8446C43.0879 13.5281 42.7998 12.0001 42.6131 11.1818C41.8181 11.8452 40.6744 13.1498 40.1756 13.8602C39.5622 14.7308 38.7777 15.9646 38.2902 16.9684V16.9982C38.294 17.1024 38.297 17.2156 38.2917 17.3355L38.2715 17.5983C38.846 16.8775 39.5344 16.0093 40.1884 15.2065C40.6384 14.657 41.0194 14.3249 41.4402 14.0576C41.0847 15.0748 40.4494 15.8872 39.9972 16.2923C39.548 16.6958 38.8969 17.3787 38.2602 17.7964L38.1972 18.0028C38.1484 18.1911 38.0728 18.3855 37.967 18.568C37.8177 18.8256 37.625 19.0788 37.3932 19.3244ZM46.4981 18.6909C44.6419 18.6418 43.1411 19.0871 41.984 19.4371C40.6317 19.8452 38.5678 20.6039 37.8463 20.9212C38.1178 20.9293 38.4133 21.0076 38.6645 21.1714C39.6717 20.7924 40.1405 20.6307 41.0562 20.3791C41.7777 20.1794 42.3117 20.14 42.7632 20.0976C42.7632 20.0976 42.1279 20.5109 41.0809 20.8392C40.0422 21.1662 39.5945 21.2213 38.7522 21.3799C38.747 21.4104 38.6217 22.0016 37.9242 22.3278C39.422 21.6837 42.3755 21.3121 43.9609 20.6628C46.1059 19.784 46.4981 18.6909 46.4981 18.6909ZM32.8996 28.857C32.8996 28.857 33.2776 28.4482 33.3863 28.1123C33.4981 27.7602 33.5386 27.3484 33.4013 26.9283C33.3241 26.6998 33.1996 26.4905 33.0915 26.3706C32.9851 26.5113 32.8831 26.5695 32.8726 26.5754L32.7953 26.6141L32.7121 26.5873C32.6423 26.5658 32.5771 26.5396 32.5148 26.5084C32.4294 26.7385 32.3979 26.8486 32.3753 27.0446C32.3468 27.3037 32.2966 27.7132 32.3934 28.0461C32.5156 28.4542 32.7608 28.7021 32.8996 28.857ZM38.4951 25.0431C38.1755 24.1101 37.5411 23.9664 36.9186 23.8517C36.3959 23.7504 35.9946 23.7564 35.5454 23.8338C35.7456 24.0535 35.8138 24.2702 35.9106 24.4102C36.2166 24.8487 36.7529 25.1071 37.3671 25.233C38.0931 25.3775 38.4951 25.0431 38.4951 25.0431ZM27.114 17.5807C27.3307 17.3693 27.5955 17.0528 27.696 16.7504C27.696 16.7504 27.2655 16.7579 27.0645 16.889C26.8043 17.0573 26.5553 17.4259 26.4615 17.8668C26.4615 17.8668 26.898 17.793 27.114 17.5807ZM25.4348 16.889C25.233 16.7579 24.801 16.7504 24.801 16.7504C24.9023 17.0528 25.1685 17.3693 25.3853 17.5807C25.5998 17.793 26.0355 17.8668 26.0355 17.8668C25.9402 17.4259 25.6935 17.0573 25.4348 16.889ZM20.2413 16.3833C20.1482 16.3833 20.0733 16.3081 20.0733 16.2135C20.0733 16.119 20.1482 16.0437 20.2413 16.0437C20.3388 16.0437 20.4167 16.119 20.4167 16.2135C20.4167 16.3081 20.3388 16.3833 20.2413 16.3833ZM20.3465 15.4682C20.114 15.4138 19.6243 15.3587 19.4075 15.6729C19.1901 15.985 19.2733 16.5762 19.7076 16.8182C19.7076 16.8182 20.3698 16.2568 21.1723 16.8153C21.1723 16.8153 21.3582 16.6961 21.7775 16.6031C21.7775 16.6031 21.5307 16.3082 21.254 16.1846C21.005 16.0736 20.4935 15.9261 20.3465 15.4682ZM22.4103 23.4442C22.6645 23.4442 23.0477 23.2401 23.5195 22.6541C24.2169 21.7895 24.376 20.6241 24.376 20.6241C23.6619 21.8014 22.9495 22.4135 22.3945 22.3815C21.9032 22.3554 21.6752 21.6569 21.6752 21.6569C21.4277 21.8542 21.385 22.4135 21.5155 22.771C21.643 23.1306 22.0277 23.4442 22.4103 23.4442ZM22.375 17.2577C22.1605 17.0879 21.8687 16.7044 21.8687 16.7044C21.4855 16.7923 21.2155 16.8415 20.9208 17.2368C20.6477 17.6039 21.022 18.167 21.022 18.167C21.2943 17.2473 22.375 17.2577 22.375 17.2577ZM31.0411 29.6344C30.7539 31.0611 31.2009 31.6464 31.2009 31.6464C31.9449 30.77 32.0064 29.8577 32.1752 28.5039C32.0934 28.6834 31.9876 28.8703 31.8444 29.0557C31.6494 30.4214 31.3779 30.6114 31.3779 30.6114C31.2729 30.0313 31.4431 29.4519 31.4431 29.4519C31.3059 29.5398 31.1679 29.6001 31.0411 29.6344ZM32.1833 26.2962C32.1113 26.2337 32.0498 26.1726 31.9951 26.119C31.8878 26.2531 31.5226 26.702 31.3434 27.1511C31.2061 27.5339 31.0606 28.0536 30.9901 28.3515C30.9144 28.6471 30.6991 29.2689 30.5678 29.4811C30.5678 29.4811 31.1461 29.5534 31.5744 29.0611C31.9936 28.5786 32.1353 28.0946 32.2036 27.5972C32.2524 27.2085 32.2388 26.6678 32.1833 26.2962ZM32.0811 16.2135C32.0811 16.119 32.1599 16.0437 32.2529 16.0437C32.3474 16.0437 32.4269 16.119 32.4269 16.2135C32.4269 16.3081 32.3474 16.3833 32.2529 16.3833C32.1599 16.3833 32.0811 16.3081 32.0811 16.2135ZM32.7877 16.8182C33.2234 16.5762 33.3089 15.985 33.09 15.6729C32.8731 15.3587 32.3842 15.4138 32.1509 15.4682C32.004 15.9261 31.4902 16.0736 31.2435 16.1846C30.9652 16.3082 30.7177 16.6031 30.7177 16.6031C31.1369 16.6961 31.3244 16.8153 31.3244 16.8153C32.1254 16.2568 32.7877 16.8182 32.7877 16.8182ZM31.4752 18.167C31.4752 18.167 31.8501 17.6039 31.5757 17.2368C31.2824 16.8415 31.0125 16.7923 30.6276 16.7044C30.6276 16.7044 30.3382 17.0879 30.1237 17.2577C30.1237 17.2577 31.2029 17.2473 31.4752 18.167ZM30.8231 21.6569C30.8231 21.6569 30.5936 22.3554 30.1031 22.3815C29.5504 22.4135 28.8364 21.8014 28.1225 20.6241C28.1225 20.6241 28.2807 21.7895 28.9782 22.6541C29.4484 23.2401 29.8332 23.4442 30.0859 23.4442C30.4684 23.4442 30.8539 23.1306 30.9837 22.771C31.1104 22.4135 31.0707 21.8542 30.8231 21.6569ZM30.6252 33.9155C30.9236 33.7294 31.2281 33.6385 31.2866 33.6206C31.0234 33.4508 30.7984 33.3399 30.6177 33.2684C30.4346 33.1954 30.1789 33.1307 30.1789 33.1307C30.0597 33.1686 29.8497 33.1879 29.8497 33.1879C30.0964 33.2408 30.3656 33.631 30.428 33.7457C30.4932 33.8663 30.6252 33.9155 30.6252 33.9155ZM30.0934 34.7787C30.1985 34.7287 30.4144 34.5366 30.3425 34.1353C30.263 33.6646 29.5715 33.194 29.5715 33.194C29.3893 33.188 29.3082 33.1493 29.261 33.1255C29.063 33.2268 28.8973 33.3832 28.8973 33.3832C29.1064 33.3482 29.4485 33.4413 29.639 33.582C29.7837 33.6885 30.0184 34.0556 29.8737 34.3095C29.7282 34.5619 29.1957 34.3885 29.1957 34.3885C29.5085 35.0244 29.9884 34.8307 30.0934 34.7787ZM31.0429 34.2111C31.1981 34.1791 31.4352 34.3243 31.4352 34.3243C31.4352 34.2044 31.3872 34.086 31.5237 33.9974C31.6527 33.9163 32.1777 34.0138 32.3982 33.9758C32.5054 33.9572 32.5466 33.8954 32.5181 33.8343C32.4499 33.678 32.3224 33.5335 32.3224 33.5335C32.0674 33.6072 31.2829 33.8143 31.0002 33.9475C30.8277 34.028 30.5405 34.182 30.4887 34.3243C30.4174 34.5172 30.5127 34.611 30.5877 34.6966C30.7061 34.3541 30.836 34.2551 31.0429 34.2111ZM33.1301 28.9165C33.3446 30.3656 32.9952 30.6262 32.9952 30.6262C32.6464 29.9493 32.7612 28.9939 32.7612 28.9939C32.6756 28.8934 32.4972 28.714 32.3937 28.5442C32.5647 31.5637 33.0469 31.9107 33.0469 31.9107C33.7512 31.2629 33.5411 29.1942 33.4797 28.4079C33.3919 28.5739 33.2194 28.8078 33.1301 28.9165ZM29.7812 37.8381C28.9532 37.4003 28.1425 36.7286 27.4097 35.6667C27.3933 35.634 27.361 35.5818 27.3452 35.5625C27.3452 35.5625 27.0699 35.6288 26.854 35.535L26.995 35.7658C27.7817 36.9468 28.6517 37.687 29.5427 38.1665L29.7812 37.8381ZM20.3128 26.2962C20.2618 26.6678 20.2416 27.2085 20.2963 27.5972C20.363 28.0946 20.5033 28.5786 20.9233 29.0611C21.3508 29.5534 21.9276 29.4811 21.9276 29.4811C21.7956 29.2689 21.5818 28.6471 21.509 28.3515C21.4371 28.0536 21.2908 27.5339 21.1565 27.1511C20.9751 26.702 20.6083 26.2531 20.4988 26.119C20.4494 26.1726 20.3856 26.2337 20.3128 26.2962ZM22.6852 24.5485C22.7654 24.3237 22.7107 23.6565 22.7107 23.6565C22.2847 23.8531 21.7762 23.5873 21.7762 23.5873C21.7814 24.0988 22.1932 24.801 22.3207 24.9932C22.5292 24.839 22.6154 24.7318 22.6852 24.5485ZM19.98 33.8343C19.95 33.8954 19.989 33.9572 20.1 33.9758C20.319 34.0138 20.844 33.9163 20.973 33.9974C21.1088 34.086 21.0592 34.2044 21.0592 34.3243C21.0592 34.3243 21.3 34.1791 21.4507 34.2111C21.6615 34.2551 21.7883 34.3541 21.9082 34.6966C21.984 34.611 22.0792 34.5172 22.0057 34.3243C21.9555 34.182 21.669 34.028 21.4988 33.9475C21.216 33.8143 20.4315 33.6072 20.1743 33.5335C20.1743 33.5335 20.046 33.678 19.98 33.8343ZM21.1063 36.8405L23.6765 40.3865L23.9794 39.933C22.9377 38.4996 21.6522 36.725 21.5217 36.5448L21.9252 36.2596L20.654 35.7801L20.6757 37.1465L21.1063 36.8405ZM19.9828 26.5084C19.9213 26.5396 19.856 26.5658 19.7826 26.5873L19.703 26.6141L19.6244 26.5754C19.6138 26.5695 19.5111 26.5113 19.4038 26.3706C19.2951 26.4905 19.1743 26.6998 19.0986 26.9283C18.9591 27.3484 18.9989 27.7602 19.1113 28.1123C19.2193 28.4482 19.5973 28.857 19.5973 28.857C19.733 28.7021 19.9828 28.4542 20.1028 28.0461C20.2003 27.7132 20.1486 27.3037 20.1223 27.0446C20.1028 26.8486 20.0675 26.7385 19.9828 26.5084ZM20.103 28.5442C20.001 28.714 19.8209 28.8934 19.7332 28.9939C19.7332 28.9939 19.8509 29.9493 19.5022 30.6262C19.5022 30.6262 19.1527 30.3656 19.3687 28.9165C19.2803 28.8078 19.1092 28.5739 19.0185 28.4079C18.9577 29.1942 18.7455 31.2629 19.4504 31.9107C19.4504 31.9107 19.9335 31.5637 20.103 28.5442ZM29.7865 23.6565C29.7865 23.6565 29.7318 24.3237 29.815 24.5485C29.8802 24.7318 29.9687 24.839 30.1742 24.9932C30.3032 24.801 30.7179 24.0988 30.7224 23.5873C30.7224 23.5873 30.2132 23.8531 29.7865 23.6565ZM19.8699 38.6811C19.4545 38.7436 19.0517 38.7652 18.6617 38.7466C18.6677 38.8099 18.6677 38.8933 18.6302 38.9543C18.6302 38.9543 18.709 39.0452 18.709 39.145C19.1027 39.1576 19.5129 39.1353 19.9314 39.0713C20.6282 38.9678 21.3587 38.8285 22.0944 38.5545L21.8507 38.2187C21.1771 38.457 20.506 38.5858 19.8699 38.6811ZM17.7569 39.3001C17.6691 39.3962 17.4299 39.6829 17.4006 39.7298C17.3743 39.7768 17.4156 39.8519 17.4914 39.8415C17.5656 39.834 17.9759 39.7931 18.2114 39.636C18.4461 39.4774 18.6029 39.1713 18.4409 39.0618C18.2789 38.9517 18.0268 39.0038 17.7569 39.3001ZM25.2761 41.7239C25.1757 41.5883 24.9064 41.216 24.5531 40.7297L24.2517 41.1788L25.3196 42.6517L26.1288 41.2361L25.8424 40.7297C25.6309 41.102 25.4044 41.5019 25.2761 41.7239ZM31.8183 37.1465L31.8445 35.7801L30.568 36.2596L30.9731 36.5448C30.7668 36.8316 27.6168 41.1765 27.2201 41.7239L25.3114 38.3201L25.0758 38.6746L23.3779 41.1996L22.9527 40.9212L22.9474 42.2638L24.2366 41.7611L23.8039 41.4797C24.0379 41.1304 24.9604 39.7625 25.2671 39.3023L27.1766 42.6517L31.39 36.8405L31.8183 37.1465ZM16.088 27.2574C16.073 27.2261 16.0633 27.1926 16.0565 27.1718C16.0385 27.1152 16.013 27.0057 16.016 26.8694C14.4155 28.5501 13.4878 28.8382 13.4878 28.8382C14.0818 27.6573 15.548 26.9267 16.0542 26.6431C16.082 26.5351 16.1368 26.4196 16.2253 26.3035C16.205 26.3095 16.1817 26.3109 16.16 26.3124C15.878 26.3467 15.653 26.296 15.4827 26.2215C14.816 26.6982 13.9077 27.4197 13.1983 28.2098C12.4881 28.9991 12.2331 29.7311 12.104 30.6575C12.104 30.6575 13.43 30.6113 14.2677 29.469C15.1048 28.3252 15.5232 27.8025 16.088 27.2574ZM15.2056 26.04C15.1515 25.9917 15.1096 25.9424 15.081 25.903C15.081 25.903 13.6163 27.1772 12.0698 27.7297C12.0698 27.7297 12.3998 27.1377 13.0125 26.7088C13.7573 26.1882 14.3146 26.0147 14.9663 25.7176L15.0202 25.6193C15.0413 25.5866 15.0585 25.5575 15.081 25.53C14.535 25.737 12.5933 26.4585 11.9655 26.7787C11.3364 27.0996 10.4273 27.8265 9.93307 29.306C9.93307 29.306 11.2433 29.4208 12.3248 28.5406C13.4063 27.6575 14.667 26.4302 15.2056 26.04ZM17.6834 38.9374C17.6196 38.8972 17.4621 38.8361 17.2987 38.8987C17.1344 38.9574 16.5397 39.3022 16.5014 39.4661C16.4594 39.6284 16.5427 39.7073 16.6349 39.7446C16.7264 39.7788 16.8374 39.8138 16.9206 39.8235C17.0692 39.8339 17.2139 39.7498 17.2911 39.6582C17.3669 39.5644 17.6459 39.2352 17.6834 39.1578C17.7239 39.0862 17.7449 38.9768 17.6834 38.9374ZM29.1182 41.1997L28.8159 40.7462L28.495 41.1841C28.5812 41.3084 28.6464 41.4119 28.6907 41.4797L28.2594 41.7611L29.5502 42.2638L29.5427 40.9212L29.1182 41.1997ZM17.2549 38.2532C17.2512 38.1013 17.1132 38.0611 16.9887 38.0611C16.865 38.0611 16.3452 38.0738 16.0669 37.869C16.0467 37.8541 16.0317 37.8414 16.016 37.8258C15.7302 37.58 15.5674 37.2017 15.5674 36.7855C15.5674 35.991 16.2244 35.3401 17.0359 35.3401C17.8459 35.3401 18.5007 35.991 18.5007 36.7855C18.5007 36.8927 18.4804 37.0714 18.4804 37.0714C18.5471 36.947 18.7879 36.3945 18.8367 36.2932C18.6176 35.5174 17.8916 34.9469 17.0359 34.9469C16.2964 34.9469 15.6575 35.3692 15.353 35.982C15.4677 35.253 15.8367 34.597 16.0977 34.3557C16.4105 34.0653 16.9406 33.9722 16.9406 33.9722C16.5927 34.0281 16.1329 33.8165 15.6192 33.3512C15.131 32.9125 14.8819 32.5268 14.8662 32.2059C14.8962 32.6593 14.8819 32.9133 14.7507 33.2827C14.5745 33.7845 14.0899 34.7146 14.264 35.7631C14.3577 36.3379 14.7822 37.195 15.4925 37.895C15.6424 38.0521 15.6979 38.2844 15.7167 38.4036C15.7167 38.4036 16.7614 38.4036 17.0089 38.4282C17.0089 38.4282 17.2579 38.4036 17.2549 38.2532ZM17.0692 38.545C16.9469 38.5256 16.5547 38.5368 16.3199 38.5695C16.0627 38.612 15.7702 38.6619 15.7387 38.8018C15.7102 38.9359 15.8032 39.0744 15.9337 39.277C16.0132 39.4013 16.2052 39.3291 16.3109 39.2896C16.4167 39.2523 17.0205 38.9329 17.1164 38.8286C17.2139 38.7244 17.2552 38.5755 17.0692 38.545ZM40.5332 26.7787C39.9062 26.4585 37.963 25.737 37.4185 25.53C37.4395 25.5575 37.4582 25.5866 37.477 25.6193L37.5332 25.7176C38.1849 26.0147 38.7407 26.1882 39.4885 26.7088C40.0974 27.1377 40.4274 27.7297 40.4274 27.7297C38.8817 27.1772 37.4185 25.903 37.4185 25.903C37.387 25.9424 37.3457 25.9917 37.2924 26.04C37.8287 26.4302 39.091 27.6575 40.1717 28.5406C41.2539 29.4208 42.5619 29.306 42.5619 29.306C42.0691 27.8265 41.1609 27.0996 40.5332 26.7787ZM41.5373 25.2313C40.8211 25.0161 39.2184 24.8262 38.5771 24.6988C38.6003 24.7443 38.6214 24.792 38.6416 24.844C39.1718 24.9789 39.8671 25.2164 40.5015 25.4762C41.0843 25.719 41.6408 26.1048 41.6408 26.1048C40.5158 26.0742 39.3804 25.6364 38.532 25.2633C38.4128 25.3355 38.1826 25.4442 37.8608 25.4658C38.2673 25.5716 38.9303 25.7763 41.058 26.7623C43.1865 27.7467 44.313 27.405 44.313 27.405C43.545 25.9617 42.2498 25.4479 41.5373 25.2313ZM30.245 13.1948H30.5247V12.7495H30.8749V12.5105H30.5247V12.1307H30.245V12.5105H29.8969V12.7495H30.245V13.1948ZM39.249 23.4204C39.2392 23.4301 39.1267 23.5187 38.9498 23.6244C39.7177 23.6922 41.3504 23.7674 42.1934 24.1897C42.1934 24.1897 40.6379 24.3922 38.5898 23.8076C38.3805 23.9029 38.2215 23.9506 37.9492 23.9789C38.0978 24.0734 38.2395 24.1926 38.3654 24.3541C39.1148 24.5686 40.3905 24.7995 42.4994 24.9492C44.6069 25.0966 45.7304 24.7183 45.7304 24.7183C44.9968 24.276 43.8269 23.827 43.0349 23.6766C42.2414 23.5254 40.1617 23.5432 39.249 23.4204ZM14.6368 25.4658C14.3143 25.4442 14.084 25.3355 13.9663 25.2633C13.1181 25.6364 11.9833 26.0742 10.8569 26.1048C10.8569 26.1048 11.4111 25.719 11.9961 25.4762C12.6276 25.2164 13.3244 24.9789 13.8538 24.844C13.8756 24.792 13.8973 24.7443 13.919 24.6988C13.2778 24.8262 11.6781 25.0161 10.9611 25.2313C10.2463 25.4479 8.95264 25.9617 8.18466 27.405C8.18466 27.405 9.31189 27.7467 11.4373 26.7623C13.5643 25.7763 14.2318 25.5716 14.6368 25.4658ZM37.0148 26.2215C36.843 26.296 36.6203 26.3467 36.3375 26.3124C36.3143 26.3109 36.2925 26.3095 36.2715 26.3035C36.3601 26.4196 36.4133 26.5351 36.444 26.6431C36.9488 26.9267 38.418 27.6573 39.0097 28.8382C39.0097 28.8382 38.0812 28.5501 36.4793 26.8694C36.4853 27.0057 36.4583 27.1152 36.4403 27.1718C36.4335 27.1926 36.4223 27.2261 36.4103 27.2574C36.9728 27.8025 37.3927 28.3252 38.229 29.469C39.0667 30.6113 40.3927 30.6575 40.3927 30.6575C40.266 29.7311 40.0094 28.9991 39.2992 28.2098C38.5898 27.4197 37.683 26.6982 37.0148 26.2215ZM35.1988 38.8987C35.0353 38.8361 34.8762 38.8972 34.8102 38.9374C34.7525 38.9768 34.7728 39.0862 34.8102 39.1578C34.8537 39.2352 35.129 39.5644 35.2062 39.6582C35.2842 39.7498 35.4275 39.8339 35.5752 39.8235C35.6577 39.8138 35.7709 39.7788 35.8609 39.7446C35.9532 39.7073 36.0349 39.6284 35.9967 39.4661C35.9547 39.3022 35.3607 38.9574 35.1988 38.8987ZM34.058 39.0618C33.8952 39.1713 34.0512 39.4774 34.2859 39.636C34.5215 39.7931 34.9295 39.834 35.0052 39.8415C35.0794 39.8519 35.1245 39.7768 35.0952 39.7298C35.0674 39.6829 34.8252 39.3962 34.7404 39.3001C34.4682 39.0038 34.2154 38.9517 34.058 39.0618ZM37.6292 32.2059C37.6172 32.5268 37.3644 32.9125 36.8769 33.3512C36.3624 33.8165 35.9027 34.0281 35.5555 33.9722C35.5555 33.9722 36.0865 34.0653 36.3984 34.3557C36.6617 34.597 37.0269 35.253 37.1416 35.982C36.8394 35.3692 36.1997 34.9469 35.461 34.9469C34.6015 34.9469 33.8762 35.5174 33.6595 36.2932C33.7067 36.3945 33.9505 36.947 34.0165 37.0714C34.0165 37.0714 33.9954 36.8927 33.9954 36.7855C33.9954 35.991 34.6517 35.3401 35.461 35.3401C36.2717 35.3401 36.9309 35.991 36.9309 36.7855C36.9309 37.2017 36.7644 37.58 36.4795 37.8258C36.4622 37.8414 36.4487 37.8541 36.4299 37.869C36.1525 38.0738 35.6304 38.0611 35.5089 38.0611C35.3829 38.0611 35.2472 38.1013 35.2427 38.2532C35.2381 38.4036 35.4849 38.4282 35.4849 38.4282C35.7346 38.4036 36.7809 38.4036 36.7809 38.4036C36.7974 38.2844 36.8544 38.0521 37.0074 37.895C37.7147 37.195 38.1391 36.3379 38.2344 35.7631C38.4061 34.7146 37.9209 33.7845 37.7424 33.2827C37.6126 32.9133 37.5999 32.6593 37.6292 32.2059ZM33.8347 38.7467C33.4484 38.7653 33.0419 38.7437 32.6257 38.6812C31.9904 38.5859 31.3192 38.4571 30.6457 38.218L30.4034 38.553C31.1377 38.8286 31.8727 38.9679 32.565 39.0714C32.9857 39.1354 33.3936 39.1577 33.7904 39.1451C33.7904 39.0453 33.8662 38.9544 33.8662 38.9544C33.8294 38.8934 33.8294 38.81 33.8347 38.7467ZM36.1767 38.5695C35.9435 38.5368 35.5512 38.5256 35.4267 38.545C35.243 38.5755 35.2842 38.7244 35.3779 38.8286C35.4762 38.9329 36.0807 39.2523 36.1873 39.2896C36.2908 39.3291 36.4812 39.4013 36.5652 39.277C36.6942 39.0744 36.7865 38.9359 36.7587 38.8018C36.7272 38.6619 36.434 38.612 36.1767 38.5695ZM43.0921 21.4664C40.8878 21.6079 39.4215 22.1165 38.3558 22.4337C38.5133 22.4918 38.6401 22.5536 38.7466 22.6146C41.13 21.9475 42.8258 22.2937 42.8258 22.2937C42.1313 22.5238 40.1858 22.8209 39.0166 22.8142C39.1336 22.9237 39.2093 23.0331 39.2746 23.1299C40.2735 23.1203 41.6408 23.3488 43.3246 22.9877C45.009 22.628 46.4804 21.6079 46.4804 21.6079C45.8783 21.4537 44.709 21.3621 43.0921 21.4664ZM25.5799 13.2239C25.5131 12.7413 25.3369 11.5789 25.1456 11.4344C25.0474 11.3615 24.9184 11.3696 24.7737 11.4143C24.6259 11.4591 24.4699 11.5558 24.4631 11.6832C24.4541 11.8954 24.7009 12.5313 25.0662 13.3906C25.2821 13.2826 25.3947 13.2581 25.5799 13.2239ZM9.99804 24.9492C12.1055 24.7995 13.3843 24.5686 14.1342 24.3541C14.2603 24.1926 14.4005 24.0734 14.549 23.9789C14.276 23.9506 14.1163 23.9029 13.9092 23.8076C11.8596 24.3922 10.3048 24.1897 10.3048 24.1897C11.1463 23.7674 12.7806 23.6922 13.5477 23.6244C13.3678 23.5187 13.2568 23.4301 13.247 23.4204C12.3358 23.5432 10.2561 23.5254 9.46412 23.6766C8.67135 23.827 7.50062 24.276 6.76638 24.7183C6.76638 24.7183 7.89136 25.0966 9.99804 24.9492ZM25.7375 13.2059C25.829 13.1947 25.925 13.1902 26.0217 13.1857C25.964 12.7233 25.8005 11.9548 25.7068 11.6525C25.61 11.3487 25.4885 11.1298 25.2867 11.0754C25.2867 11.0754 25.4435 11.4998 25.5305 11.9355C25.616 12.3718 25.6805 12.7895 25.7375 13.2059ZM25.3945 14.2267C25.3945 14.2267 24.9798 14.6527 24.5747 14.7472C24.5747 14.7472 24.7405 14.3191 25.3945 14.2267ZM25.1812 14.7095C25.4497 14.5524 25.6792 14.1964 25.7302 14.0311C25.5037 13.9998 24.9278 14.0616 24.5745 14.3111C24.222 14.5591 24.1073 14.763 23.9843 14.9842C23.9843 14.9842 24.6165 15.0304 25.1812 14.7095ZM21.9728 13.1948H22.254V12.7495H22.6028V12.5105H22.254V12.1307H21.9728V12.5105H21.621V12.7495H21.9728V13.1948ZM27.1045 14.2267C27.757 14.3191 27.9243 14.7472 27.9243 14.7472C27.5171 14.6527 27.1045 14.2267 27.1045 14.2267ZM26.7665 14.0311C26.819 14.1964 27.0493 14.5524 27.3162 14.7095C27.8802 15.0304 28.5124 14.9842 28.5124 14.9842C28.3917 14.763 28.2777 14.5591 27.9245 14.3111C27.5697 14.0616 26.9944 13.9998 26.7665 14.0311ZM29.8419 14.6134C29.9455 14.5955 29.9252 14.6022 30.1832 14.5814C30.1337 14.3512 30.0422 13.7571 29.8983 13.6245C29.761 13.4987 29.5585 13.4875 29.4587 13.4927C29.359 13.4987 29.2517 13.6007 29.2945 13.7332C29.335 13.871 29.7812 14.5293 29.8419 14.6134ZM26.1056 10.9489H26.3898V10.5014H26.7385V10.2638H26.3898V9.88477H26.1056V10.2638H25.7583V10.5014H26.1056V10.9489ZM27.431 13.3906C27.7991 12.5313 28.0429 11.8954 28.0331 11.6832C28.0279 11.5558 27.8719 11.4591 27.7272 11.4143C27.5794 11.3696 27.4474 11.3615 27.3522 11.4344C27.1617 11.5789 26.9824 12.7413 26.9172 13.2239C27.1047 13.2581 27.2172 13.2826 27.431 13.3906ZM26.7601 13.2059C26.8163 12.7895 26.8823 12.3718 26.9677 11.9355C27.0541 11.4998 27.2115 11.0754 27.2115 11.0754C27.0075 11.1298 26.886 11.3487 26.7923 11.6525C26.6963 11.9548 26.5351 12.7233 26.4765 13.1857C26.5717 13.1902 26.6671 13.1947 26.7601 13.2059ZM22.3145 14.5814C22.5717 14.6022 22.5522 14.5955 22.6542 14.6134C22.7142 14.5293 23.1604 13.871 23.2047 13.7332C23.2452 13.6007 23.1387 13.4987 23.0367 13.4927C22.9377 13.4875 22.7338 13.4987 22.5988 13.6245C22.4555 13.7571 22.3648 14.3512 22.3145 14.5814ZM14.298 18.9678L14.4946 19.0475C14.709 19.1361 14.9206 19.2337 15.105 19.3244C14.8756 19.0788 14.6798 18.8256 14.5328 18.568C14.4263 18.3855 14.3506 18.1911 14.3003 18.0028L14.2395 17.7964C13.6043 17.3787 12.9489 16.6958 12.5003 16.2923C12.0503 15.8872 11.4113 15.0748 11.0588 14.0576C11.4796 14.3249 11.8599 14.657 12.3091 15.2065C12.9646 16.0093 13.65 16.8775 14.2253 17.5983L14.2058 17.3355C14.202 17.2156 14.2058 17.1024 14.2088 16.9982L14.2065 16.9684C13.7221 15.9646 12.9346 14.7308 12.3211 13.8602C11.8231 13.1498 10.6801 11.8452 9.88512 11.1818C9.70066 12.0001 9.40592 13.5281 10.1109 14.8446C10.8144 16.1604 12.5476 18.0526 14.298 18.9678ZM13.9392 20.2214C13.8688 20.1238 13.6918 19.8751 13.6318 19.7694C12.7708 19.3583 12.5526 19.2288 12.1273 18.9986C11.6495 18.741 11.0668 18.3552 10.4938 17.9093C9.99813 17.5235 9.38236 16.7363 9.38236 16.7363C10.0506 16.9583 10.7226 17.4319 11.1711 17.764C11.7523 18.1959 12.6868 18.8907 13.4751 19.5154L13.1885 18.694C12.2683 17.9852 10.9416 16.7126 10.5006 16.2806C10.0611 15.8458 8.36237 14.4034 7.58089 14.2507C7.58089 14.2507 7.35364 15.8815 8.15912 16.9747C8.96461 18.0685 11.5701 19.8327 13.9392 20.2214ZM13.2231 23.1299C13.2876 23.0331 13.3634 22.9237 13.4803 22.8142C12.3111 22.8209 10.3679 22.5238 9.67265 22.2937C9.67265 22.2937 11.3677 21.9475 13.7496 22.6146C13.8569 22.5536 13.9844 22.4918 14.1426 22.4337C13.0739 22.1165 11.6099 21.6079 9.40423 21.4664C7.78796 21.3621 6.62173 21.4537 6.01724 21.6079C6.01724 21.6079 7.49022 22.628 9.17244 22.9877C10.8569 23.3488 12.2242 23.1203 13.2231 23.1299ZM17.0724 20.47C16.855 20.1959 16.6855 19.8147 16.561 19.3664C16.459 19.0015 16.2257 18.096 16.0877 17.8622C15.9505 17.6268 15.4525 16.8063 14.4812 16.5516C14.4812 16.5516 14.2218 17.6216 14.7107 18.4661C15.1308 19.1973 15.997 19.9651 17.0724 20.47ZM8.53571 20.6628C10.1235 21.3121 13.0739 21.6837 14.5731 22.3278C13.8756 22.0016 13.7496 21.4104 13.7443 21.3799C12.9029 21.2213 12.4537 21.1662 11.4164 20.8392C10.3702 20.5109 9.73498 20.0976 9.73498 20.0976C10.1864 20.14 10.719 20.1794 11.4434 20.3791C12.3577 20.6307 12.8271 20.7924 13.8344 21.1714C14.0841 21.0076 14.3826 20.9293 14.6504 20.9212C13.9289 20.6039 11.8672 19.8452 10.5134 19.4371C9.35695 19.0871 7.85622 18.6418 6 18.6909C6 18.6909 6.39224 19.784 8.53571 20.6628ZM21.5772 14.6134C21.6814 14.5955 21.6612 14.6022 21.9177 14.5814C21.8697 14.3512 21.7774 13.7571 21.6343 13.6245C21.4985 13.4987 21.296 13.4875 21.197 13.4927C21.0942 13.4987 20.9892 13.6007 21.0312 13.7332C21.071 13.871 21.5187 14.5293 21.5772 14.6134ZM17.5075 20.6242C17.959 20.9772 18.151 21.3294 18.151 21.3294C17.0725 20.6413 16.3915 21.0702 16.3915 21.0702C16.6008 22.1858 17.5442 22.3913 17.5442 22.3913C16.5242 22.2781 16.1088 22.7822 16.1088 22.7822C16.4852 23.6006 17.4692 23.6393 17.4692 23.6393C16.6008 24.3095 16.7537 24.7921 16.7537 24.7921C17.7152 25.0162 18.2447 24.55 18.2447 24.55C17.5075 25.5002 18.076 26.2054 18.076 26.2054C19.0577 26.0773 19.3809 25.3117 19.3809 25.3117C19.2842 26.1719 19.7192 26.393 19.7192 26.393C20.2487 26.2232 20.515 25.7608 20.515 25.7608C20.7977 26.3557 21.4584 26.4689 21.4584 26.4689C21.7434 25.9268 21.5365 25.4257 21.5365 25.4257C22.1041 25.5955 22.2744 25.2574 22.2744 25.2574C21.9129 24.8658 21.7066 24.2536 21.7066 24.2536C20.7219 24.6431 19.5107 24.4398 19.1695 24.0481C18.8335 23.6564 19.3982 22.6527 19.7027 21.9444C20.0034 21.2378 19.6067 20.7352 19.2497 20.4932C17.641 19.4127 17.0545 18.6122 16.6953 17.8325C16.5048 19.2831 17.0545 20.269 17.5075 20.6242ZM19.2586 12.8887C19.4732 12.8344 19.7596 12.6125 19.9914 12.4301C20.2224 12.2447 20.3731 12.2595 20.3731 12.2595C20.2914 12.1955 20.1241 12.0771 19.8519 12.1307C19.4199 12.2149 18.9054 12.7071 18.9054 12.7071C18.8814 12.7555 18.8814 12.8754 18.8941 12.9201C18.9984 12.9297 19.0434 12.9453 19.2586 12.8887ZM19.8821 13.4397C19.7808 13.6297 19.6315 13.8687 19.6983 14.2098C19.7763 14.5932 20.4055 14.7384 20.4055 14.7384C20.2907 14.6231 20.1933 14.4816 20.1836 14.346C20.1648 14.0705 20.329 13.8441 20.4408 13.6713C20.5517 13.4986 20.7655 13.0444 20.7685 12.8649C20.7731 12.6891 20.6081 12.4881 20.4167 12.2983C20.4408 12.3853 20.4055 12.5164 20.3388 12.6735C20.2645 12.847 19.975 13.2611 19.8821 13.4397ZM18.3768 14.9583C18.3768 14.8823 18.3806 14.8108 18.3918 14.7385C18.418 14.5524 18.4203 14.3968 18.4001 14.2649C18.1488 14.3603 17.9793 14.4199 17.6335 14.9679C17.6335 14.9679 18.1849 14.6343 18.3768 14.9583ZM18.5985 14.7658C18.5497 15.1121 18.6218 15.4814 18.8588 15.8269C18.8655 15.6921 18.9578 15.2603 19.0726 14.9579C19.2127 14.5841 19.131 14.0427 18.9608 13.7158C18.798 13.3986 18.7088 13.1015 18.7358 12.7717C18.7358 12.7717 18.4118 12.8803 18.2227 12.995C18.1928 13.3748 18.4185 13.7568 18.5258 13.972C18.6525 14.2281 18.6263 14.5625 18.5985 14.7658ZM20.7841 15.4533C20.8854 15.7124 21.2986 16.0191 21.2986 16.0191C21.1824 15.7913 21.0969 15.4681 21.0706 15.142C20.6567 15.0169 20.6814 15.1963 20.7841 15.4533ZM20.6538 29.0557C20.5084 28.8703 20.4026 28.6834 20.3238 28.5039C20.4934 29.8577 20.5518 30.77 21.2959 31.6464C21.2959 31.6464 21.7436 31.0611 21.4549 29.6344C21.3318 29.6001 21.1894 29.5398 21.0559 29.4519C21.0559 29.4519 21.2246 30.0313 21.1173 30.6114C21.1173 30.6114 20.8518 30.4214 20.6538 29.0557ZM22.7061 17.8622C22.8637 17.9888 22.9986 18.1847 23.0602 18.516C23.1509 18.9784 23.4254 19.4751 23.5079 19.6263L23.5417 19.6189C23.4921 19.3016 23.6916 18.6411 23.7464 18.5451C23.7464 18.5451 23.4532 18.3656 23.3189 18.1795C23.2207 18.0417 23.0482 17.8108 22.5675 17.5182C22.4849 17.5241 22.2629 17.574 22.1549 17.6075C22.1549 17.6075 22.5217 17.7125 22.7061 17.8622ZM27.9348 34.1291C28.1875 34.4359 28.7351 35.3228 29.5795 35.3303C29.5795 35.3303 29.4551 34.914 29.08 34.6742C28.7051 34.4359 28.2265 34.1291 28.0106 33.7598C27.7968 33.3919 27.5695 33.2214 27.4143 33.1529C27.3813 33.4224 27.2486 33.6712 27.1045 33.9318C27.1045 33.9318 27.5899 36.1352 29.3455 36.3065C29.3455 36.3065 29.308 35.8493 28.7898 35.5008C28.2686 35.1545 27.4924 34.6124 27.5478 33.794C27.5478 33.794 27.6866 33.8223 27.9348 34.1291ZM21.0324 33.564C21.0324 33.564 21.4435 33.2885 21.8935 33.1195C22.1874 33.0071 22.3307 32.7054 22.6419 32.4039C22.2925 32.5289 21.502 32.6526 21.1735 32.7486C20.8435 32.8454 20.6034 33.0115 20.2885 33.3511C20.2885 33.3511 20.773 33.4851 21.0324 33.564ZM23.6091 18.1453C23.6465 17.6754 23.4141 17.3999 23.0743 17.1638C22.8073 16.971 22.2501 16.7997 22.1368 16.7692C22.3649 17.0976 22.7975 17.4699 23.0353 17.6039C23.3376 17.7715 23.6091 18.1453 23.6091 18.1453ZM26.2492 14.3407C26.3691 14.3407 26.4644 14.2447 26.4644 14.127C26.4644 14.0094 26.3691 13.9148 26.2492 13.9148C26.1291 13.9148 26.0301 14.0094 26.0301 14.127C26.0301 14.2447 26.1291 14.3407 26.2492 14.3407ZM29.4201 15.5761C29.9781 15.6461 30.6328 15.6179 30.6328 15.6179C30.5968 15.8211 30.5128 15.9746 30.3658 16.0691C30.3305 15.6267 29.4201 15.6215 29.4201 15.6215V15.5761ZM27.6447 16.601C28.2319 16.4766 28.4186 16.1534 28.5184 16.0291C28.5184 16.0291 28.4418 16.3382 28.4771 16.4624C28.4771 16.4624 28.7351 16.4468 28.9368 16.1989C28.9368 16.1989 28.7899 16.4468 28.7599 16.6568C28.7599 16.6568 28.9211 16.6755 29.2076 16.5065C29.2076 16.5065 29.1499 16.6613 29.1401 16.8401C29.1401 16.8401 29.8151 16.6256 30.1443 16.3232C30.1443 16.3232 30.1496 16.531 30.1339 16.6509C30.1339 16.6509 31.1823 16.5459 31.2618 15.0372C31.2618 15.0372 30.5629 15.2934 29.8616 15.2606C29.1596 15.2249 27.8674 15.2115 27.4474 15.0104C27.4474 15.0104 27.5171 15.2703 27.8516 15.4192C27.8516 15.4192 27.6777 15.4192 27.5044 15.5682C27.5044 15.5682 27.6049 15.7819 27.9019 15.8943C27.9019 15.8943 27.3679 16.4401 26.7956 16.4029C26.7956 16.4029 27.0566 16.7254 27.6447 16.601ZM30.384 14.9933C30.7778 14.9933 31.0958 14.9382 31.0958 14.8689C31.0958 14.7967 30.7778 14.7424 30.384 14.7424C29.9932 14.7424 29.6737 14.7967 29.6737 14.8689C29.6737 14.9382 29.9932 14.9933 30.384 14.9933ZM30.086 25.4211C30.0785 25.4122 30.0725 25.4069 30.0687 25.3981L30.0342 25.4442C29.9082 25.5641 29.8167 25.6289 29.6022 25.7369C29.6022 25.7369 29.2903 26.3192 29.6674 27.0221C30.0425 27.7273 30.3589 28.4452 30.5128 28.8435C30.5128 28.8435 30.7145 28.8137 30.938 27.7131C31.091 26.967 31.2829 26.7801 31.4817 26.5239C31.2627 26.6319 31.0895 26.6632 31.073 26.6677L30.9237 26.6922L30.8539 26.5605C30.7182 26.3095 30.6822 26.0653 30.6822 25.8612C30.6822 25.7942 30.6852 25.7309 30.6919 25.6743C30.3425 25.6818 30.1558 25.509 30.086 25.4211ZM30.7133 13.5202C30.7133 13.3586 30.513 13.3102 30.4096 13.3102H30.3525C30.2505 13.3102 30.0503 13.3586 30.0503 13.5202C30.0503 13.684 30.3099 14.0787 30.378 14.2529H30.3848C30.4538 14.0787 30.7133 13.684 30.7133 13.5202ZM24.4841 17.9129C24.2119 17.6039 23.8639 16.8399 23.8639 16.8399C23.7522 16.8287 23.6217 16.7952 23.5167 16.7692C23.5227 16.866 23.5197 17.0641 23.5197 17.0641C23.4034 17.035 23.0539 16.9323 23.0539 16.9323C23.4686 17.2174 23.5969 17.3225 23.7964 17.5242C24.1504 17.8877 24.3484 18.3396 24.3484 18.3396C24.4999 18.082 24.4841 17.9129 24.4841 17.9129ZM23.8641 32.4143C23.4681 32.5297 23.3797 32.972 23.3797 32.972C23.5529 33.0531 23.6286 33.2616 23.9804 33.2616C24.3607 33.2616 24.7963 32.8856 25.0926 32.377C25.3019 32.0129 25.3994 31.2839 25.3994 31.1543C25.0971 31.6964 24.3516 32.2705 23.8641 32.4143ZM25.8175 23.2313C25.9825 23.4793 26.1048 23.5299 26.2488 23.5977C26.3921 23.5299 26.5128 23.4793 26.6801 23.2313C26.8068 23.0362 26.929 22.6773 26.8608 22.4204C26.7745 22.1039 26.602 21.978 26.4963 21.78C26.4108 21.8589 26.3583 21.92 26.2533 21.978H26.2488C26.1423 21.92 26.0883 21.8589 26.0012 21.78C25.8941 21.978 25.7238 22.1039 25.6353 22.4204C25.5678 22.6773 25.6893 23.0362 25.8175 23.2313ZM26.2455 21.6947H26.2538C26.4488 21.5287 26.6235 21.28 26.6805 21.1348C26.733 20.9888 26.7473 20.775 26.6168 20.6105C26.4615 20.4146 26.2657 20.1957 26.2538 20.017H26.244C26.229 20.1957 26.0355 20.4146 25.8795 20.6105C25.749 20.775 25.7625 20.9888 25.8203 21.1348C25.8735 21.28 26.049 21.5287 26.2455 21.6947ZM23.7075 35.5008C23.1878 35.8493 23.154 36.3065 23.154 36.3065C24.9068 36.1352 25.3928 33.9318 25.3928 33.9318C25.2472 33.6712 25.116 33.4224 25.0793 33.1529C24.9285 33.2214 24.7013 33.3919 24.4846 33.7598C24.2693 34.1291 23.7923 34.4359 23.4173 34.6742C23.0423 34.914 22.9156 35.3303 22.9156 35.3303C23.7646 35.3228 24.3113 34.4359 24.5595 34.1291C24.8093 33.8223 24.9473 33.794 24.9473 33.794C25.0035 34.6124 24.2273 35.1545 23.7075 35.5008ZM29.42 17.1638C29.084 17.3999 28.8522 17.6754 28.8875 18.1453C28.8875 18.1453 29.1613 17.7715 29.462 17.6039C29.702 17.4699 30.134 17.0976 30.3589 16.7692C30.2503 16.7997 29.6923 16.971 29.42 17.1638ZM28.635 16.8399C28.635 16.8399 28.2854 17.6039 28.0147 17.9129C28.0147 17.9129 27.9982 18.082 28.1497 18.3396C28.1497 18.3396 28.347 17.8877 28.6994 17.5242C28.9005 17.3225 29.0279 17.2174 29.4434 16.9323C29.4434 16.9323 29.0939 17.035 28.9784 17.0641C28.9784 17.0641 28.9716 16.866 28.9837 16.7692C28.8779 16.7952 28.7481 16.8287 28.635 16.8399ZM26.6702 11.4486C26.6702 11.2193 26.4819 11.0332 26.2494 11.0332C26.0139 11.0332 25.8264 11.2193 25.8264 11.4486C25.8264 11.7413 26.1961 12.4093 26.2419 12.7212H26.2561C26.3034 12.4093 26.6702 11.7413 26.6702 11.4486ZM29.9306 17.5182C29.4506 17.8108 29.2751 18.0417 29.1776 18.1795C29.0456 18.3656 28.7531 18.5451 28.7531 18.5451C28.8056 18.6411 29.0081 19.3016 28.9571 19.6189L28.9879 19.6263C29.0711 19.4751 29.3486 18.9784 29.4364 18.516C29.4978 18.1847 29.6359 17.9888 29.7918 17.8622C29.9741 17.7125 30.3424 17.6075 30.3424 17.6075C30.2344 17.574 30.0147 17.5241 29.9306 17.5182ZM28.6929 20.1358C28.6344 20.3458 28.6179 20.6645 28.6929 20.9661C28.7513 21.1962 28.8939 21.4948 29.1669 21.6623C29.4017 21.8076 29.9559 21.8411 30.1688 21.3242C30.1688 21.3242 29.1549 21.401 28.6929 20.1358ZM23.332 21.6623C23.6042 21.4948 23.746 21.1962 23.8037 20.9661C23.8802 20.6645 23.8615 20.3458 23.8037 20.1358C23.344 21.401 22.3277 21.3242 22.3277 21.3242C22.5385 21.8411 23.0965 21.8076 23.332 21.6623ZM19.002 26.0632C18.7815 26.2218 18.4897 26.3588 18.1027 26.4102C16.9575 27.4542 17.0902 27.8809 17.0902 27.8809C17.6663 27.9672 18.1852 27.6776 18.5775 27.3737C18.834 27.169 19.0131 26.8883 19.0725 26.6313C19.1272 26.3759 19.0514 26.1965 19.002 26.0632ZM14.0033 25.0431C14.0033 25.0431 14.4015 25.3775 15.1282 25.233C15.7455 25.1071 16.2802 24.8487 16.5884 24.4102C16.6822 24.2702 16.7489 24.0535 16.9507 23.8338C16.5051 23.7564 16.1025 23.7504 15.579 23.8517C14.9565 23.9664 14.3212 24.1101 14.0033 25.0431ZM16.2799 20.8976C16.2964 20.8878 16.4974 20.7658 16.8401 20.739C16.5522 20.5275 15.8607 19.9586 15.3754 19.6853C14.8399 19.3912 13.9564 19.0017 13.5065 18.9444C13.5065 18.9444 13.9287 20.033 14.4184 20.4746C14.9306 20.9296 15.2869 21.0994 16.1614 20.9727L16.2799 20.8976ZM17.4353 38.4279C17.3498 38.553 17.4098 38.6878 17.6506 38.8018C17.8897 38.9127 18.3421 39.0043 18.4343 38.8836C18.5205 38.7585 18.3975 38.553 17.8897 38.422C17.811 38.4033 17.5005 38.3282 17.4353 38.4279ZM13.381 23.2625C13.381 23.2625 13.9914 23.7667 14.6904 23.7831C15.3924 23.8054 16.0411 23.605 16.3231 23.4003C16.1679 23.264 16.0216 23.092 15.9189 22.8671L15.8687 22.751C15.3286 22.5343 14.7669 22.4226 14.2141 22.6244C13.6644 22.8277 13.5189 23.06 13.381 23.2625ZM13.9506 21.3403C13.9506 21.3403 14.0819 22.0261 14.9804 22.2614C15.8286 22.4796 16.1406 22.4223 16.4856 22.3091C16.5786 22.2741 16.6821 22.2413 16.7998 22.2175C16.5643 22.012 16.3266 21.6948 16.2141 21.2241C15.9629 21.28 15.3756 21.28 15.1169 21.1854C14.8559 21.0864 14.3481 21.0834 13.9506 21.3403ZM27.2287 39.302C27.3743 39.5209 27.66 39.9469 27.945 40.3691L28.2638 39.929L27.4207 38.6744L27.1822 38.3198L26.3625 39.7749L26.664 40.3052C26.9055 39.8807 27.1222 39.4979 27.2287 39.302ZM36.502 37.6074C36.3063 37.3914 36.0617 37.2462 35.839 37.2015C35.2031 37.0749 34.981 37.489 34.6136 37.617C34.2483 37.7452 34.0113 37.489 33.6634 36.6609C33.3146 35.8328 32.7026 34.7196 32.3366 34.3048C32.2159 34.1685 31.8303 34.17 31.7681 34.1693C31.7081 34.1685 31.6496 34.1894 31.6451 34.258C31.6421 34.3242 31.6421 34.6965 31.6421 34.6965C31.5161 34.6109 31.2319 34.4299 31.0894 34.4143C30.9431 34.3935 30.6221 34.7591 30.7714 34.7866C32.3681 35.0941 33.1324 36.8225 33.4428 37.4726C33.604 37.807 33.6956 38.1688 33.7796 38.5151C34.2393 38.466 34.5723 38.393 34.8925 38.174C35.209 37.9537 35.7783 37.8315 36.0805 37.8315C36.3768 37.8315 36.4458 37.7079 36.502 37.6074ZM25.1458 13.6186C25.1458 13.7444 25.64 13.8502 26.249 13.8502C26.8588 13.8502 27.3522 13.7444 27.3522 13.6186C27.3522 13.4905 26.8588 13.3863 26.249 13.3863C25.64 13.3863 25.1458 13.4905 25.1458 13.6186ZM27.3069 36.7674C27.0166 36.506 26.3551 35.5819 26.2509 35.29H26.2449C26.1436 35.5819 25.4791 36.506 25.1866 36.7674C24.8964 37.0317 24.1884 37.7295 23.8119 38.075C23.8119 38.075 24.8881 37.8129 25.4926 37.2722C25.4926 37.2722 25.9246 37.518 26.2403 37.518H26.2554C26.5696 37.518 27.0008 37.2722 27.0008 37.2722C27.6076 37.8129 28.6853 38.075 28.6853 38.075C28.3065 37.7295 27.5994 37.0317 27.3069 36.7674ZM26.2542 37.7348H26.2407C26.0015 37.7348 25.7765 37.6431 25.6505 37.5873C25.7765 37.8531 26.0157 38.2628 26.2452 38.431H26.249C26.4785 38.2628 26.7178 37.8531 26.8452 37.5873C26.7178 37.6431 26.492 37.7348 26.2542 37.7348ZM19.0536 37.4726C19.3656 36.8225 20.1298 35.0941 21.7228 34.7866C21.8735 34.7591 21.551 34.3935 21.4093 34.4143C21.2653 34.4299 20.981 34.6109 20.8565 34.6965C20.8565 34.6965 20.8565 34.3242 20.852 34.258C20.8483 34.1894 20.7883 34.1685 20.726 34.1693C20.6646 34.17 20.2798 34.1685 20.1568 34.3048C19.7946 34.7196 19.1803 35.8328 18.8339 36.6609C18.4858 37.489 18.2496 37.7452 17.8821 37.617C17.5154 37.489 17.2956 37.0749 16.6581 37.2015C16.4361 37.2462 16.1893 37.3914 15.9974 37.6074C16.0507 37.7079 16.1189 37.8315 16.4188 37.8315C16.7166 37.8315 17.2859 37.9537 17.6046 38.174C17.9241 38.393 18.2586 38.466 18.7161 38.5151C18.8001 38.1688 18.8938 37.807 19.0536 37.4726ZM22.1119 14.9933C22.5056 14.9933 22.8214 14.9382 22.8214 14.8689C22.8214 14.7967 22.5056 14.7424 22.1119 14.7424C21.7196 14.7424 21.4032 14.7967 21.4032 14.8689C21.4032 14.9382 21.7196 14.9933 22.1119 14.9933ZM23.0741 15.5761V15.6215C23.0741 15.6215 22.1674 15.6267 22.1314 16.0691C21.9851 15.9746 21.8989 15.8211 21.8659 15.6179C21.8659 15.6179 22.5199 15.6461 23.0741 15.5761ZM22.3649 16.6509C22.3491 16.531 22.3528 16.3232 22.3528 16.3232C22.6813 16.6256 23.3586 16.8401 23.3586 16.8401C23.3473 16.6613 23.2866 16.5065 23.2866 16.5065C23.5761 16.6755 23.7381 16.6568 23.7381 16.6568C23.7073 16.4468 23.5618 16.1989 23.5618 16.1989C23.762 16.4468 24.0194 16.4624 24.0194 16.4624C24.056 16.3382 23.9796 16.0291 23.9796 16.0291C24.0786 16.1534 24.2668 16.4766 24.8525 16.601C25.439 16.7254 25.703 16.4029 25.703 16.4029C25.1293 16.4401 24.5946 15.8943 24.5946 15.8943C24.8931 15.7819 24.9936 15.5682 24.9936 15.5682C24.8226 15.4192 24.6463 15.4192 24.6463 15.4192C24.98 15.2703 25.0475 15.0104 25.0475 15.0104C24.6313 15.2115 23.3376 15.2249 22.6379 15.2606C21.9351 15.2934 21.2338 15.0372 21.2338 15.0372C21.3141 16.5459 22.3649 16.6509 22.3649 16.6509ZM16.1366 26.113C16.8116 26.0325 17.3171 25.7205 17.6793 25.276C17.6929 25.209 17.7236 25.0823 17.7544 24.9968C17.4858 25.0653 17.1341 25.0913 16.7051 24.9916L16.5882 24.9633L16.5522 24.853C16.0317 25.2708 15.4144 25.34 15.2014 25.7191C15.2014 25.7191 15.4609 26.1889 16.1366 26.113ZM22.4459 13.5202C22.4459 13.3586 22.2471 13.3102 22.1444 13.3102H22.0874C21.9854 13.3102 21.7836 13.3586 21.7836 13.5202C21.7836 13.684 22.0446 14.0787 22.1121 14.2529H22.1189C22.1894 14.0787 22.4459 13.684 22.4459 13.5202ZM21.5749 26.6922L21.4249 26.6677C21.4092 26.6632 21.2336 26.6319 21.0147 26.5239C21.2157 26.7801 21.4077 26.967 21.5591 27.7131C21.7834 28.8137 21.9851 28.8435 21.9851 28.8435C22.1367 28.4452 22.4524 27.7273 22.8288 27.0221C23.2054 26.3192 22.8956 25.7369 22.8956 25.7369C22.6789 25.6289 22.5859 25.5641 22.4666 25.4442L22.4284 25.3981C22.4247 25.4069 22.4179 25.4122 22.4134 25.4211C22.3406 25.509 22.1554 25.6818 21.8059 25.6743C21.8134 25.7309 21.8186 25.7942 21.8186 25.8612C21.8186 26.0653 21.7773 26.3095 21.6432 26.5605L21.5749 26.6922ZM16.3377 29.971C16.9205 28.9545 17.2798 28.3134 17.5234 28.0863C17.3667 28.1057 17.2092 28.1057 17.0569 28.0803L16.9302 28.061C16.571 28.7021 15.8608 29.7536 15.221 30.1207C15.221 30.1207 15.0582 29.2689 16.9377 27.5427C16.9632 27.4727 17.0015 27.3915 17.0548 27.3029C16.883 27.3647 16.6865 27.3982 16.4674 27.3945L16.4427 27.3967C15.722 28.1057 14.2017 29.6992 14.3435 31.4253C14.3435 31.4253 15.7572 30.9912 16.3377 29.971ZM17.9097 26.3349C17.8977 26.3156 17.7147 26.0773 17.666 25.699C17.3532 25.8099 17.1342 25.8696 16.679 26.1719C16.0039 26.6157 16.28 27.1749 16.28 27.1749C17.2909 27.3104 17.7762 26.492 17.9097 26.3349ZM25.6894 27.3104C25.7652 27.0707 26.0884 26.6276 26.0967 25.9046C26.0974 25.6313 25.6024 25.1875 25.4644 24.8352C25.0032 25.2389 24.9409 26.0519 24.9941 26.3238C25.0992 26.851 25.6894 27.3104 25.6894 27.3104ZM15.7596 33.2028C16.3019 33.6883 16.8554 33.9556 17.1479 33.6421C17.459 33.3062 17.1224 32.8074 16.5816 32.3203C16.0447 31.8341 15.5129 31.5407 15.2001 31.8787C14.8821 32.2154 15.2212 32.715 15.7596 33.2028ZM18.2259 30.8824C18.6256 30.2361 18.7261 28.9419 18.8123 27.682C18.8048 27.6037 18.801 27.5234 18.801 27.4489C18.7703 27.4794 18.7358 27.5055 18.7058 27.533C18.6211 27.5971 18.5393 27.6566 18.4576 27.7095C18.4576 27.7095 18.2783 29.8005 17.6888 30.4982C17.4999 29.7208 17.9558 28.7125 18.1951 27.8651C18.1074 27.9084 18.0226 27.9471 17.9401 27.9783C17.2561 29.0804 16.4423 30.662 17.1159 31.8438C17.1159 31.8438 17.8359 31.5154 18.2259 30.8824ZM22.4184 32.9444C22.4184 32.9444 22.8811 33.0628 23.1751 32.9311C23.1751 32.9311 23.2816 32.4954 23.6116 32.301C23.685 32.2586 23.9153 32.1909 24.1283 32.0844C24.0473 32.0218 23.9754 31.9808 23.8786 31.8684C23.8786 31.8684 23.5043 32.0047 23.1946 32.2102C22.8849 32.4142 22.5818 32.7642 22.4184 32.9444ZM24.7386 19.6322C24.8721 19.1854 24.5863 18.7536 24.4799 18.5108C24.2391 18.7022 24.0426 18.907 24.0096 19.4372C23.9796 19.9666 24.1236 20.6554 24.1236 20.6554C24.3066 20.2733 24.6059 20.0812 24.7386 19.6322ZM26.2511 17.8928H26.2451C26.1326 17.9434 25.6691 18.1847 25.6353 18.528C25.6031 18.8705 26.2226 19.5035 26.2414 19.7671H26.2541C26.2744 19.5035 26.8923 18.8705 26.8608 18.528C26.8294 18.1847 26.3658 17.9434 26.2511 17.8928ZM24.0925 16.6061C24.2171 17.0447 24.4315 17.4572 24.6423 17.7797C24.8321 18.0768 24.9528 18.5541 24.9348 18.7165C24.9348 18.7165 25.2183 18.0991 25.075 17.6635C24.9603 17.3262 24.655 16.8191 24.0925 16.6061ZM29.0858 26.6631C28.9568 26.9431 28.6462 27.2179 28.5765 27.4629C28.4925 27.7503 28.4663 27.932 28.6065 28.2672C28.7347 28.559 28.8825 28.7318 28.9357 28.9098C28.9357 28.9098 29.34 28.3929 29.4052 28.1771C29.4773 27.964 29.4952 27.6103 29.415 27.387C29.3302 27.1606 29.184 26.8694 29.0858 26.6631ZM26.6823 19.668C26.6066 19.9859 26.6771 20.1974 26.8233 20.3917C26.9681 20.5831 27.2141 20.7924 27.4451 21.196C27.4451 21.196 27.7083 20.852 27.7413 20.6718C27.7736 20.4908 27.7219 20.0611 27.664 19.8832C27.6078 19.7 27.3791 19.1199 27.1893 18.5279C27.1893 18.5279 26.7596 19.3463 26.6823 19.668ZM30.058 25.1359C29.974 25.0652 29.7708 24.8805 29.6906 24.783C29.6906 24.783 29.35 25.3913 29.2946 25.57C29.2946 25.57 29.4618 25.6139 29.6478 25.4799C29.833 25.3474 29.8735 25.3116 30.058 25.1359ZM28.9874 23.0004C28.8456 23.2729 28.5967 23.6743 28.5967 23.6743C28.6139 23.8374 28.602 24.1189 28.6544 24.4606C28.7091 24.801 29.1614 25.3818 29.1614 25.3818C29.2739 25.0765 29.5401 24.6579 29.5956 24.2477C29.6279 23.9714 29.5679 23.5567 29.5679 23.5567C29.3842 23.471 29.1517 23.2007 28.9874 23.0004ZM27.9505 20.8148C27.8732 20.9213 27.7397 21.1759 27.7195 21.4239C27.7038 21.6688 27.7435 21.8662 27.88 22.2244C28.0525 22.6772 28.3173 23.1827 28.4387 23.4106C28.4387 23.4106 28.675 23.08 28.8055 22.7821C28.8055 22.7821 28.4387 22.2854 28.2805 21.9347C28.0983 21.5221 28.0248 21.1409 27.9505 20.8148ZM27.4259 17.6635C27.2797 18.0991 27.5662 18.7165 27.5662 18.7165C27.5437 18.5541 27.6644 18.0768 27.8556 17.7797C28.0657 17.4572 28.2786 17.0447 28.4062 16.6061C27.8414 16.8191 27.5362 17.3262 27.4259 17.6635ZM28.4873 19.4372C28.4543 18.907 28.2593 18.7022 28.0171 18.5108C27.9128 18.7536 27.6263 19.1854 27.7576 19.6322C27.8926 20.0812 28.1918 20.2733 28.3733 20.6554C28.3733 20.6554 28.5195 19.9666 28.4873 19.4372ZM24.8335 19.8832C24.7757 20.0611 24.7262 20.4908 24.7569 20.6718C24.7877 20.852 25.0532 21.196 25.0532 21.196C25.2819 20.7924 25.5302 20.5831 25.6727 20.3917C25.8197 20.1974 25.8895 19.9859 25.8144 19.668C25.7372 19.3463 25.3075 18.5279 25.3075 18.5279C25.1162 19.1199 24.8889 19.7 24.8335 19.8832ZM26.2489 34.8356C26.2962 34.9243 26.3584 35.0077 26.4401 35.0836C26.8879 35.5044 27.1736 35.4642 27.4219 35.3756C27.4219 35.3756 26.6839 35.1313 26.7237 34.485C26.7664 33.8424 27.1391 33.4551 27.2029 33.1207C27.2764 32.7522 27.2517 32.3999 26.9614 31.9748C26.7237 32.767 26.468 33.3479 26.2639 33.7425C26.2572 33.7537 26.2534 33.7656 26.2489 33.7775C26.2436 33.7656 26.2406 33.7537 26.2324 33.7425C26.0299 33.3479 25.7727 32.767 25.5372 31.9748C25.247 32.3999 25.2214 32.7522 25.2934 33.1207C25.3594 33.4551 25.7307 33.8424 25.7727 34.485C25.8131 35.1313 25.0759 35.3756 25.0759 35.3756C25.3234 35.4642 25.6077 35.5044 26.0577 35.0836C26.1401 35.0077 26.2017 34.9243 26.2489 34.8356ZM25.4995 35.7658L25.6398 35.535C25.4252 35.6288 25.1515 35.5625 25.1515 35.5625C25.135 35.5818 25.1012 35.634 25.0848 35.6667C24.3528 36.7309 23.5413 37.4003 22.714 37.8381L22.9503 38.1688C23.8443 37.6907 24.7143 36.9468 25.4995 35.7658ZM30.0786 32.9444C29.9113 32.7642 29.6106 32.4142 29.3031 32.2102C28.9941 32.0047 28.6161 31.8684 28.6161 31.8684C28.5187 31.9808 28.4504 32.0218 28.3686 32.0844C28.5816 32.1909 28.8126 32.2586 28.8832 32.301C29.2138 32.4954 29.3203 32.9311 29.3203 32.9311C29.6143 33.0628 30.0786 32.9444 30.0786 32.9444ZM28.6305 32.4143C28.1461 32.2705 27.399 31.6964 27.0953 31.1543C27.0953 31.2839 27.1928 32.0129 27.405 32.377C27.7013 32.8856 28.1348 33.2616 28.5157 33.2616C28.8691 33.2616 28.9447 33.0531 29.1165 32.972C29.1165 32.972 29.028 32.5297 28.6305 32.4143ZM22.4011 34.7787C22.5052 34.8307 22.9883 35.0244 23.301 34.3885C23.301 34.3885 22.7662 34.5619 22.6215 34.3095C22.4775 34.0556 22.7138 33.6885 22.8585 33.582C23.0475 33.4413 23.391 33.3482 23.5965 33.3832C23.5965 33.3832 23.4307 33.2268 23.2327 33.1255C23.1863 33.1493 23.1052 33.188 22.9215 33.194C22.9215 33.194 22.2323 33.6646 22.1513 34.1353C22.0845 34.5366 22.2983 34.7287 22.4011 34.7787ZM23.6917 22.7821C23.8215 23.08 24.0569 23.4106 24.0569 23.4106C24.18 23.1827 24.4477 22.6772 24.6171 22.2244C24.7536 21.8662 24.7949 21.6688 24.7762 21.4239C24.7574 21.1759 24.6231 20.9213 24.546 20.8148C24.4739 21.1409 24.3982 21.5221 24.2175 21.9347C24.0591 22.2854 23.6917 22.7821 23.6917 22.7821ZM22.44 25.1359C22.6223 25.3116 22.6651 25.3474 22.8495 25.4799C23.0355 25.6139 23.205 25.57 23.205 25.57C23.1473 25.3913 22.8105 24.783 22.8105 24.783C22.725 24.8805 22.5218 25.0652 22.44 25.1359ZM22.9305 23.5567C22.9305 23.5567 22.869 23.9714 22.9027 24.2477C22.9574 24.6579 23.223 25.0765 23.3377 25.3818C23.3377 25.3818 23.7892 24.801 23.8417 24.4606C23.8927 24.1189 23.886 23.8374 23.9032 23.6743C23.9032 23.6743 23.6512 23.2729 23.5132 23.0004C23.3474 23.2007 23.1119 23.471 22.9305 23.5567ZM22.0184 32.348C22.0184 32.348 22.5119 32.2407 22.8906 32.1156C23.3047 31.9808 23.5904 31.7999 23.7463 31.712C23.6721 31.601 23.5251 31.3993 23.5566 31.082C23.5566 31.082 22.9049 31.4894 22.7143 31.6413C22.5172 31.7999 22.1091 32.2124 22.0184 32.348ZM23.5624 28.9098C23.6127 28.7318 23.7642 28.559 23.8902 28.2672C24.0312 27.932 24.0035 27.7503 23.9217 27.4629C23.8512 27.2179 23.5415 26.9431 23.414 26.6631C23.3135 26.8694 23.1649 27.1606 23.084 27.387C22.9999 27.6103 23.0225 27.964 23.0893 28.1771C23.1575 28.3929 23.5624 28.9098 23.5624 28.9098ZM22.0683 33.7457C22.1313 33.631 22.3983 33.2408 22.6473 33.1879C22.6473 33.1879 22.4366 33.1686 22.315 33.1307C22.315 33.1307 22.0616 33.1954 21.8801 33.2684C21.7001 33.3399 21.4751 33.4508 21.2096 33.6206C21.2658 33.6385 21.5726 33.7294 21.8711 33.9155C21.8711 33.9155 22.0023 33.8663 22.0683 33.7457ZM26.9708 21.1409C26.8492 21.4022 26.8222 21.6837 26.8612 21.8498C26.9017 22.0151 27.117 22.2579 27.1395 22.5311C27.1739 22.9585 26.835 23.4791 26.835 23.4791C27.1484 23.3249 27.5047 22.9637 27.6607 22.7359C27.816 22.508 27.7012 22.179 27.6329 22.0077C27.5662 21.8349 27.0645 21.2422 26.9708 21.1409ZM24.0928 24.0431C23.9796 24.5673 24.5414 24.8793 24.8038 25.3485C24.8721 25.16 25.0903 24.6477 25.3408 24.4705C25.3408 24.4705 25.6611 23.5404 24.6291 22.9671C24.6291 22.9671 24.2046 23.521 24.0928 24.0431ZM24.8659 22.0077C24.7976 22.179 24.6821 22.508 24.8366 22.7359C24.9934 22.9637 25.3519 23.3249 25.6608 23.4791C25.6608 23.4791 25.3234 22.9585 25.3594 22.5311C25.3789 22.2579 25.5948 22.0151 25.6353 21.8498C25.6766 21.6837 25.6504 21.4022 25.5273 21.1409C25.4343 21.2422 24.9327 21.8349 24.8659 22.0077ZM23.3226 25.7705C23.3226 25.7705 23.3631 26.04 23.5671 26.4302C23.7689 26.8174 24.0501 27.09 24.2008 27.2277C24.2008 27.2277 24.5391 26.6507 24.6388 26.396C24.7506 26.1048 24.7386 25.8181 24.6914 25.7108C24.5751 25.4584 24.1799 25.0943 24.0036 24.7779C23.9639 24.9319 23.4171 25.6781 23.3226 25.7705ZM27.5021 26.3238C27.5576 26.0519 27.4946 25.2389 27.0341 24.8352C26.8954 25.1875 26.3981 25.6313 26.4019 25.9046C26.4109 26.6276 26.7311 27.0707 26.8084 27.3104C26.8084 27.3104 27.3986 26.851 27.5021 26.3238ZM27.8675 22.9671C26.8347 23.5404 27.1558 24.4705 27.1558 24.4705C27.4077 24.6477 27.6245 25.16 27.692 25.3485C27.9552 24.8793 28.5185 24.5673 28.4059 24.0431C28.292 23.521 27.8675 22.9671 27.8675 22.9671ZM28.9285 26.4302C29.1302 26.04 29.1738 25.7705 29.1738 25.7705C29.0799 25.6781 28.534 24.9319 28.4927 24.7779C28.3173 25.0943 27.9205 25.4584 27.8087 25.7108C27.7578 25.8181 27.7435 26.1048 27.8583 26.396C27.9588 26.6507 28.2955 27.2277 28.2955 27.2277C28.447 27.09 28.7275 26.8174 28.9285 26.4302ZM23.5714 29.73C23.6344 29.9846 23.9096 30.5416 23.9096 30.5416C24.0259 30.3472 24.3693 29.8938 24.4564 29.5698C24.5433 29.2496 24.2336 28.7075 24.1234 28.5489C23.5669 29.0583 23.5106 29.4768 23.5714 29.73ZM30.4783 32.348C30.3868 32.2124 29.9803 31.7999 29.7838 31.6413C29.5888 31.4894 28.9378 31.082 28.9378 31.082C28.9715 31.3993 28.8246 31.601 28.7518 31.712C28.9063 31.7999 29.1921 31.9808 29.6061 32.1156C29.984 32.2407 30.4783 32.348 30.4783 32.348ZM24.3308 27.4228C24.2115 27.6418 24.1793 27.9955 24.2633 28.2442C24.372 28.5756 24.8715 29.038 24.8715 29.038C25.0171 28.7885 25.2345 28.458 25.3028 28.2926C25.3711 28.1221 25.4108 27.921 25.3658 27.6775C25.3088 27.3655 24.9443 26.9716 24.8243 26.7325C24.7103 26.9619 24.4493 27.2009 24.3308 27.4228ZM27.7722 29.8975C27.7887 29.4588 27.0919 28.6308 27.0919 28.6308C26.7237 28.9792 26.6322 29.2004 26.5932 29.5504C26.549 29.8975 26.669 30.1603 26.8257 30.4656C26.9637 30.7396 27.3305 31.1454 27.3305 31.1454C27.3792 30.8096 27.7519 30.444 27.7722 29.8975ZM27.6261 29.038C27.6261 29.038 28.1241 28.5756 28.2335 28.2442C28.3175 27.9955 28.2853 27.6418 28.1645 27.4228C28.046 27.2009 27.7865 26.9619 27.6717 26.7325C27.5533 26.9716 27.1895 27.3655 27.1318 27.6775C27.086 27.921 27.128 28.1221 27.1925 28.2926C27.2608 28.458 27.482 28.7885 27.6261 29.038ZM28.2484 31.9168C28.2484 31.9168 28.5536 31.7046 28.6752 31.429C28.7899 31.1684 28.7246 30.983 28.6054 30.8512C28.4876 30.7164 28.2109 30.4036 28.0917 30.2011C28.0144 30.4417 27.7857 30.8884 27.755 31.0239C27.7009 31.2794 27.7737 31.5884 28.2484 31.9168ZM26.8296 31.294C26.8424 30.8785 26.4681 30.2321 26.2537 29.9842H26.2417C26.0301 30.2321 25.6544 30.8785 25.6672 31.294C25.6927 32.122 26.2214 32.9032 26.2492 33.1556C26.2747 32.9032 26.8049 32.122 26.8296 31.294ZM24.248 31.9168C24.7212 31.5884 24.7962 31.2794 24.7408 31.0239C24.7108 30.8884 24.4813 30.4417 24.4047 30.2011C24.2878 30.4036 24.0087 30.7164 23.8903 30.8512C23.7725 30.983 23.7072 31.1684 23.8198 31.429C23.942 31.7046 24.248 31.9168 24.248 31.9168ZM28.374 28.5489C28.2622 28.7075 27.9539 29.2496 28.041 29.5698C28.1317 29.8938 28.4736 30.3472 28.5877 30.5416C28.5877 30.5416 28.8622 29.9846 28.9252 29.73C28.9874 29.4768 28.9289 29.0583 28.374 28.5489ZM30.601 33.1195C31.0541 33.2885 31.4658 33.564 31.4658 33.564C31.7215 33.4851 32.2083 33.3511 32.2083 33.3511C31.8933 33.0115 31.6525 32.8454 31.3225 32.7486C30.9904 32.6526 30.2051 32.5289 29.8541 32.4039C30.1646 32.7054 30.3093 33.0071 30.601 33.1195ZM25.9089 29.5504C25.8646 29.2004 25.7724 28.9792 25.4079 28.6308C25.4079 28.6308 24.7104 29.4588 24.7262 29.8975C24.7472 30.444 25.1162 30.8096 25.1679 31.1454C25.1679 31.1454 25.5324 30.7396 25.6727 30.4656C25.8286 30.1603 25.9471 29.8975 25.9089 29.5504ZM26.2488 25.5641C26.3177 25.2543 26.9755 24.6579 26.9132 24.3317C26.8232 23.8454 26.5053 23.9482 26.2532 23.7434H26.2488C25.9945 23.9482 25.6728 23.8454 25.5813 24.3317C25.5228 24.6579 26.1768 25.2543 26.245 25.5641H26.2488ZM26.2432 29.196H26.2529C26.3046 28.9942 26.6204 28.7484 26.7502 28.3932C26.8289 28.184 26.8251 27.9383 26.7419 27.7714C26.6422 27.5748 26.2882 27.0945 26.2484 26.9568C26.2041 27.0945 25.8547 27.5748 25.7534 27.7714C25.6687 27.9383 25.6665 28.184 25.7429 28.3932C25.8756 28.7484 26.1907 28.9942 26.2432 29.196Z" fill="#242325"/>
<path fill-rule="evenodd" clip-rule="evenodd" d="M56.875 0H109.374V52.8486H56.875V0Z" fill="white"/>
<mask id="mask0_134_8446" style="mask-type:luminance" maskUnits="userSpaceOnUse" x="64" y="14" width="37" height="25">
<path fill-rule="evenodd" clip-rule="evenodd" d="M100.974 14.3125H64.5312V38.8858H100.974V14.3125Z" fill="white"/>
</mask>
<g mask="url(#mask0_134_8446)">
<path fill-rule="evenodd" clip-rule="evenodd" d="M94.9362 31.1909C95.0904 30.5416 95.2935 28.6434 95.2935 28.6434H93.4825C93.4713 28.8371 93.4319 29.4856 93.3754 30.1469C93.2914 31.1268 93.0102 32.0286 92.0314 32.0286H91.2766C91.2751 31.9467 91.2766 28.6434 91.2766 28.6434H89.4351V38.8861H91.2766V33.6854C91.2766 33.6854 92.2501 33.6869 92.3877 33.6854L94.1963 38.8831H96.1735L93.9592 32.8812C94.4191 32.532 94.7764 31.8603 94.9362 31.1909ZM74.0584 19.7142C74.0741 16.9435 74.7434 16.032 75.4492 16.0164C76.1543 16.032 76.8236 16.9435 76.8392 19.7142V19.7158C76.8236 22.4225 76.1543 23.3475 75.4492 23.3616C74.7434 23.3475 74.0741 22.4225 74.0584 19.7158V19.7142ZM75.4077 25.04C75.4159 25.04 75.4248 25.0415 75.433 25.0415C75.4383 25.0415 75.4434 25.04 75.4494 25.04C75.4546 25.04 75.4598 25.0415 75.4651 25.0415C75.4732 25.0415 75.4822 25.04 75.4904 25.04C76.7093 25.0169 77.8762 24.2753 78.3819 22.1775C78.5761 21.4642 78.675 20.5796 78.6757 19.6666C78.6757 19.6651 78.672 19.3382 78.672 19.336C78.64 17.872 78.3946 16.8228 78.0138 16.0759C77.4137 14.8026 76.4579 14.3259 75.471 14.314C75.4695 14.314 75.4672 14.3125 75.4651 14.3125C75.4598 14.3125 75.4546 14.3133 75.4494 14.3133C75.4434 14.3133 75.4383 14.3125 75.433 14.3125C75.4308 14.3125 75.4286 14.314 75.4271 14.314C74.4402 14.3259 73.4844 14.8026 72.8843 16.0759C72.5034 16.8228 72.258 17.872 72.2261 19.336C72.2261 19.3382 72.2216 19.6651 72.2216 19.6666C72.2223 20.5796 72.322 21.4642 72.5161 22.1775C73.0218 24.2753 74.1895 25.0169 75.4077 25.04ZM66.9997 37.3015C66.8211 37.3015 66.3712 37.2598 66.3712 37.2598V33.6542C66.3712 33.6542 66.5162 33.6199 66.6739 33.6199C67.6073 33.6199 68.7102 33.5633 68.7102 35.4592C68.7102 37.1958 67.498 37.3015 66.9997 37.3015ZM67.2229 31.9943C66.906 31.9943 66.6242 32.0018 66.3713 32.0152V30.3472H69.6728V28.6434H64.5312V38.8831H67.324C70.1078 38.8831 70.5392 36.349 70.5392 35.4115C70.5392 34.3028 70.1108 31.9943 67.2229 31.9943ZM85.1716 31.9162H82.6458V28.6434H80.8096V38.8861H82.6458V33.6184H85.1716V38.8861H87.0086V28.6434H85.1716V31.9162ZM91.2641 24.8167V16.2807H92.7925V14.5777H87.8727V16.2807H89.4018V24.8167H89.4241H91.241H91.2641ZM83.9924 19.873V24.8167H85.8339V14.5777H83.9924V18.1438H82.9913C82.5771 18.1438 82.2699 18.0493 82.0744 17.8579C81.936 17.7247 81.8683 17.5444 81.8683 17.3106V14.5777H80.0246V17.5012C80.0246 18.1752 80.2849 18.7448 80.7988 19.1975C81.3061 19.6466 81.9263 19.873 82.647 19.873H83.9924ZM66.3713 16.2807H68.6508V24.8167H70.4938V14.5777H64.5312V24.8167H66.3713V16.2807ZM74.3762 32.2086C74.3807 32.0009 74.4186 30.5443 74.4216 30.347L74.7473 30.3254C76.0883 30.3254 76.3337 30.589 76.4579 32.2086H74.3762ZM75.184 28.6434H72.6858L72.3466 38.8854H74.1666C74.1666 38.8854 74.3347 34.136 74.3443 33.9104C74.5444 33.9104 76.4551 33.9118 76.6447 33.9118C76.6656 34.1189 77.0091 38.8854 77.0091 38.8854H78.8886C78.8886 38.8854 78.2422 31.8507 78.1902 31.4001C77.9805 29.5877 77.1483 28.6434 75.184 28.6434ZM96.463 18.1439C96.4677 17.9361 96.5053 16.4774 96.5082 16.2815H96.8551C98.1948 16.2815 98.4195 16.5228 98.5446 18.1439H96.463ZM100.276 17.3344C100.066 15.5219 99.2346 14.5777 97.2706 14.5777H94.7726L94.4323 24.8189H96.2534C96.2534 24.8189 96.4207 20.0695 96.4311 19.8454C96.6304 19.8454 98.5417 19.8462 98.7307 19.8462C98.7523 20.0524 99.0955 24.8189 99.0955 24.8189H100.975C100.975 24.8189 100.328 17.7849 100.276 17.3344Z" fill="#242325"/>
</g>
</g>
<defs>
<clipPath id="clip0_134_8446">
<rect width="110" height="53" fill="white"/>
</clipPath>
</defs>
</svg>
