<svg width="172" height="42" viewBox="0 0 172 42" fill="none" xmlns="http://www.w3.org/2000/svg">
<g clip-path="url(#clip0_134_8341)">
<path d="M135.663 30.2382L141.646 36.7591H137.759L133.132 31.7334V36.7591H129.911V24.6001H133.132V29.0126L137.683 24.6001H141.493L135.663 30.2382ZM39.2627 27.8862C41.6152 27.8862 42.6885 26.8076 42.6885 25.1898C42.6885 23.572 41.6152 22.4934 39.2627 22.4934H34.6095V27.8862H39.2627ZM39.3652 19.6004C43.4043 19.6004 46.0634 21.5862 46.0634 25.1898C46.0634 28.7934 43.4043 30.7783 39.3652 30.7783H34.6095V36.7591H31.2363V19.5996H39.367M53.6832 34.2089C55.5757 34.2089 57.3394 32.9102 57.3394 30.6809C57.3394 28.4515 55.5757 27.1529 53.6832 27.1529C51.7907 27.1529 50.0271 28.4524 50.0271 30.6809C50.0271 32.9094 51.7916 34.2089 53.6832 34.2089ZM53.6832 24.2574C57.1607 24.2574 60.6118 26.4145 60.6118 30.6792C60.6118 34.9439 57.1607 37.1018 53.6832 37.1018C50.2058 37.1018 46.7529 34.9447 46.7529 30.6792C46.7529 26.4137 50.204 24.2574 53.6815 24.2574M68.8388 34.2097C66.8955 34.2097 65.4639 32.8657 65.4639 30.6817C65.4639 28.5246 66.9463 27.1537 68.8388 27.1537C69.9892 27.1537 70.9863 27.6686 71.7792 28.8211L74.5408 27.3007C73.6164 25.4107 71.6267 24.2574 68.8607 24.2574C65.2554 24.2574 62.188 26.8068 62.188 30.6792C62.188 34.5516 65.102 37.1018 68.8607 37.1018C71.5706 37.1018 73.386 35.9258 74.6643 33.8418L72.0052 32.4449C71.2386 33.4739 70.4203 34.2089 68.8353 34.2089M103.136 31.4881C102.983 33.3504 102.599 33.767 101.934 33.767C101.603 33.7733 101.273 33.7308 100.956 33.641L100.972 36.7877C100.972 36.7877 101.372 36.9053 102.111 36.9053C104.847 36.9053 105.869 35.2135 106.125 31.6133L106.433 27.373H110.062V36.7339H113.284V24.6001H103.673L103.136 31.4881ZM97.1944 29.0605C96.8878 27.541 95.6866 26.6094 93.8966 26.6094C92.2092 26.6094 90.9309 27.688 90.47 29.0605H97.1944ZM93.9983 24.2566C97.629 24.2566 100.186 26.7816 100.186 30.3356V31.4142H90.4192C90.6233 33.2773 92.0042 34.4533 93.8966 34.4533C95.6095 34.4533 96.3253 33.7427 97.1173 32.7868L99.6748 34.0123C98.3965 36.0955 96.632 37.101 93.8449 37.101C90.3167 37.101 87.3255 34.5272 87.3255 30.6784C87.3255 26.8295 90.3167 24.2566 93.9983 24.2566ZM124.959 29.0605C124.652 27.541 123.451 26.6094 121.661 26.6094C119.973 26.6094 118.695 27.688 118.234 29.0605H124.959ZM121.763 24.2566C125.393 24.2566 127.951 26.7816 127.951 30.3356V31.4142H118.183C118.388 33.2773 119.769 34.4533 121.661 34.4533C123.374 34.4533 124.09 33.7427 124.882 32.7868L127.437 34.0132C126.159 36.0964 124.394 37.1018 121.608 37.1018C118.079 37.1018 115.088 34.5281 115.088 30.6792C115.088 26.8303 118.079 24.2574 121.762 24.2574M75.6649 27.2965H79.449V36.7583H82.6706V27.2965H86.4546V24.601H75.6666L75.6649 27.2965ZM148.04 34.2097C149.932 34.2097 151.696 32.9102 151.696 30.6817C151.696 28.4532 149.932 27.1537 148.04 27.1537C146.148 27.1537 144.384 28.4532 144.384 30.6817C144.384 32.9102 146.147 34.2097 148.04 34.2097ZM148.04 24.2574C151.516 24.2574 154.968 26.4145 154.968 30.68C154.968 34.9456 151.516 37.1018 148.04 37.1018C144.563 37.1018 141.111 34.9447 141.111 30.68C141.111 26.4154 144.562 24.2574 148.04 24.2574ZM167.786 24.5984L164.291 33.1135L160.794 24.5984H156.583V36.7348H159.65V29.0513L163.045 36.7348H165.545L168.939 29.0513V36.7348H172.006V24.5984H167.786Z" fill="white"/>
<path d="M9.57645 30.7658L26.4037 14.7336L10.9976 0L2.27114 8.34708C-0.336278 10.8385 0.0159344 12.4698 0.0159344 15.8164V38.7164C0.0159344 40.4863 1.54744 42 3.47672 42H21.3002L20.799 41.5195L9.57645 30.7658ZM3.47847 41.7178C0.962173 41.7178 0.556517 39.3658 1.62804 38.341L9.3618 30.9708L20.5905 41.7178H3.47847Z" fill="white"/>
</g>
<defs>
<clipPath id="clip0_134_8341">
<rect width="172" height="42" fill="white"/>
</clipPath>
</defs>
</svg>
