<svg width="148" height="51" viewBox="0 0 148 51" fill="none" xmlns="http://www.w3.org/2000/svg">
<g clip-path="url(#clip0_134_8397)">
<path fill-rule="evenodd" clip-rule="evenodd" d="M75.5358 46.6392C75.5899 46.5059 75.6138 46.3623 75.6058 46.2187C75.5978 46.0752 75.558 45.9351 75.4894 45.8085L75.1926 45.0701H72.393L72.0937 45.8085C71.9183 46.2495 71.9828 46.5213 72.0602 46.6392H70.8242C71.034 46.393 71.1982 46.1117 71.3093 45.8085L73.4019 40.596L73.3761 40.5498C73.2953 40.3054 73.1553 40.0844 72.9684 39.9062H74.4831L76.844 45.8034C76.9532 46.1069 77.1167 46.3883 77.3265 46.6341L75.5358 46.6392ZM73.7993 41.5754L72.682 44.3471H74.8985L73.7993 41.5754Z" fill="white"/>
<path fill-rule="evenodd" clip-rule="evenodd" d="M65.9667 42.4882C66.2247 42.4626 66.5989 42.4267 66.8621 42.4267C67.3136 42.4267 68.8411 42.4267 68.8411 43.9497C68.8411 44.6061 68.5831 45.6983 67.0633 45.6957C66.6952 45.6964 66.3279 45.6612 65.9667 45.5906V42.4882ZM64.127 38.4474C64.3006 38.5828 64.4364 38.7602 64.5213 38.9627C64.6063 39.1651 64.6375 39.3859 64.612 39.6037V45.3958C64.6367 45.6141 64.6054 45.8351 64.5211 46.0381C64.4367 46.2412 64.302 46.4198 64.1295 46.5572H66.9678C67.5974 46.5572 70.0513 46.4829 70.0513 43.9676C70.0513 42.4446 69.0553 41.5754 67.3472 41.5754C66.9988 41.5754 66.315 41.6344 65.9667 41.6549V39.373H68.178C68.3818 39.3485 68.5886 39.3727 68.7812 39.4436C68.9737 39.5145 69.1464 39.6301 69.2849 39.7807V38.4141C69.161 38.4394 69.0347 38.4515 68.9082 38.45L64.127 38.4474Z" fill="white"/>
<path fill-rule="evenodd" clip-rule="evenodd" d="M83.4223 42.3181V40.7515C83.4377 40.5639 83.4051 40.3755 83.3275 40.2038C83.2499 40.0321 83.1299 39.8827 82.9785 39.7695H85.0814C84.9289 39.8818 84.8078 40.0309 84.7296 40.2028C84.6515 40.3747 84.6189 40.5636 84.6351 40.7515V45.5769C84.6195 45.7652 84.6523 45.9543 84.7303 46.1265C84.8084 46.2987 84.9292 46.4484 85.0814 46.5615H82.9811C83.1326 46.4485 83.2528 46.2991 83.3305 46.1274C83.4081 45.9556 83.4406 45.7671 83.4249 45.5795V43.3001H80.344V45.5795C80.3282 45.7674 80.3609 45.9562 80.439 46.1281C80.5171 46.2999 80.6381 46.4491 80.7904 46.5615H78.6875C78.8396 46.4487 78.9606 46.2996 79.0391 46.1279C79.1176 45.9562 79.1511 45.7675 79.1365 45.5795V40.749C79.1514 40.5613 79.118 40.3729 79.0394 40.2016C78.9609 40.0302 78.8398 39.8816 78.6875 39.7695H80.7879C80.6362 39.8818 80.5158 40.0307 80.4381 40.2021C80.3605 40.3734 80.3281 40.5617 80.344 40.749V42.3156L83.4223 42.3181Z" fill="white"/>
<path fill-rule="evenodd" clip-rule="evenodd" d="M88.9597 39.7715C88.8089 39.8846 88.6892 40.0336 88.6117 40.2048C88.5341 40.3759 88.5012 40.5638 88.5159 40.7509V45.5789C88.5009 45.7662 88.5335 45.9542 88.6105 46.1258C88.6876 46.2973 88.8068 46.4469 88.9571 46.5609H86.8594C87.0113 46.4476 87.1317 46.2979 87.2094 46.1256C87.287 45.9534 87.3193 45.7644 87.3032 45.5763V40.7509C87.3191 40.5636 87.2868 40.3754 87.2091 40.204C87.1314 40.0326 87.0111 39.8838 86.8594 39.7715H88.9597ZM90.1699 41.2099C90.6137 40.6535 90.7066 40.4022 90.7066 40.2304C90.698 40.1358 90.6665 40.0447 90.6148 39.9648C90.5632 39.8849 90.4928 39.8186 90.4098 39.7715H92.487L90.0512 42.7508C90.2367 42.916 90.4006 43.1038 90.5389 43.3098L92.2341 45.5379C92.5183 45.9284 92.8602 46.2742 93.2482 46.5635H92.7527C91.4781 46.6019 91.4445 46.6352 91.0111 46.0507L88.7739 42.9739L90.1699 41.2099Z" fill="white"/>
<path fill-rule="evenodd" clip-rule="evenodd" d="M124.376 17.4828C124.59 17.1289 124.687 16.7175 124.655 16.3059V10.978L120.34 16.0547V16.3111C120.311 16.7266 120.418 17.1404 120.645 17.4905H118.064C118.286 17.1393 118.388 16.7268 118.356 16.3136V9.13451C118.356 8.44736 118.188 8.10892 118.064 7.95508H120.645C120.413 8.30311 120.305 8.71832 120.338 9.13451V14.4214L124.66 9.34475V9.13451C124.66 8.44992 124.5 8.10892 124.381 7.95508H126.907C126.692 8.30962 126.595 8.72208 126.628 9.13451V16.3136C126.598 16.725 126.696 17.1356 126.907 17.4905L124.376 17.4828Z" fill="white"/>
<path fill-rule="evenodd" clip-rule="evenodd" d="M108.583 9.12865C108.555 8.71463 108.658 8.3022 108.877 7.94922H106.312C106.533 8.30165 106.636 8.71451 106.607 9.12865V16.3078C106.633 16.7208 106.53 17.1318 106.312 17.4846H108.877C108.662 17.13 108.559 16.7189 108.583 16.3052V9.12608V9.12865ZM115.411 17.4821C115.005 17.1199 114.629 16.7264 114.286 16.3052L110.792 12.1029L113.94 9.12865C114.357 8.70659 114.802 8.31258 115.271 7.94922H112.652C112.854 8.22356 112.91 8.55175 112.325 9.12865L108.689 12.5541L111.824 16.3026C112.353 16.9385 112.353 17.1975 112.149 17.4821H115.411Z" fill="white"/>
<path fill-rule="evenodd" clip-rule="evenodd" d="M134.312 6.45927C132.65 6.45927 131.961 5.8234 131.961 5.24138C131.968 5.07456 132.008 4.91072 132.079 4.75934C132.15 4.60795 132.25 4.47201 132.374 4.35938H133.251C133.099 4.56052 133.017 4.8052 133.017 5.05678C133.017 5.38496 133.411 5.99006 134.307 5.99006C135.202 5.99006 135.597 5.38496 135.597 5.05678C135.603 4.80592 135.524 4.56039 135.372 4.35938H136.242C136.489 4.58997 136.634 4.90768 136.647 5.24395C136.647 5.8234 135.968 6.45927 134.309 6.45927H134.312ZM136.188 17.4844C136.4 17.1299 136.499 16.7191 136.469 16.3075V10.9821L132.147 16.0588V16.3152C132.125 16.7273 132.223 17.1371 132.431 17.4946H129.887C130.104 17.1409 130.205 16.7286 130.176 16.3152V9.13606C130.209 8.72231 130.108 8.30889 129.887 7.95663H132.439C132.227 8.31244 132.127 8.72329 132.152 9.13606V14.423L136.474 9.3463V9.13862C136.508 8.72503 136.41 8.3114 136.193 7.95663H138.729C138.51 8.30961 138.407 8.72204 138.435 9.13606V16.3152C138.409 16.7279 138.51 17.1388 138.727 17.492L136.188 17.4844Z" fill="white"/>
<path fill-rule="evenodd" clip-rule="evenodd" d="M69.3197 14.0456H67.7509V16.0967C67.7509 16.8941 67.9444 17.289 68.0709 17.4787H65.248C65.5101 17.0677 65.6348 16.5849 65.6041 16.0993V7.68691C65.634 7.20541 65.5093 6.72693 65.248 6.32031H69.3172C72.2174 6.32031 73.9875 7.75614 73.9875 10.0637C73.9875 12.7969 71.74 14.043 69.3172 14.043L69.3197 14.0456ZM68.783 7.52538H67.7509V12.8149H68.9766C70.3957 12.8149 71.7581 12.2687 71.7607 10.0432C71.7607 8.01253 70.2796 7.52538 68.783 7.52538Z" fill="white"/>
<path fill-rule="evenodd" clip-rule="evenodd" d="M100.962 8.68073C98.7922 8.68073 97.8426 10.7063 97.8426 12.6933C97.8426 15.6111 99.5766 16.7419 100.96 16.7419C102.343 16.7419 103.194 16.0957 103.883 15.2035L104.229 15.9727C103.811 16.5103 103.271 16.9421 102.653 17.2326C102.035 17.5232 101.357 17.6643 100.673 17.6444C97.4246 17.6444 95.7474 15.4112 95.75 12.678C95.75 9.73452 97.7033 7.74744 100.843 7.75C102.028 7.75 102.735 8.06794 103.364 8.06794C103.668 8.08621 103.971 8.02707 104.244 7.89615L103.47 9.66016C102.908 8.97558 102.074 8.66534 100.962 8.66534V8.68073Z" fill="white"/>
<path fill-rule="evenodd" clip-rule="evenodd" d="M84.3667 9.12328L80.9117 17.1357C79.9003 19.4689 79.0178 20.8227 77 20.8227C76.0429 20.8038 75.1325 20.4082 74.4688 19.7227L75.0132 18.5664C75.5292 19.4663 76.2079 19.8638 77.0619 19.8638C78.2256 19.8638 78.9739 18.8382 79.7274 17.0434L76.0995 9.11302C75.8595 8.57715 75.6273 8.14128 75.3538 7.93359H78.1921C78.0915 8.18999 78.0915 8.40537 78.3882 9.11302L80.7775 14.6127L83.0714 9.11559C83.3294 8.53613 83.3836 8.26947 83.2675 7.93359H85.0041C84.7224 8.28736 84.5034 8.6862 84.3564 9.11302L84.3667 9.12328Z" fill="white"/>
<path fill-rule="evenodd" clip-rule="evenodd" d="M91.1464 8.67877C88.9661 8.67877 88.0113 10.7069 88.0113 12.6914C88.0113 15.6092 89.7505 16.7399 91.1438 16.7399C92.5372 16.7399 93.368 16.0938 94.0621 15.2015L94.4053 15.9707C93.9898 16.509 93.4513 16.9414 92.8344 17.232C92.2175 17.5227 91.5398 17.6634 90.8574 17.6424C87.6037 17.6424 85.9316 15.4092 85.9316 12.676C85.9316 9.73256 87.8901 7.74549 91.0225 7.74805C92.2095 7.74805 92.9165 8.06598 93.5409 8.06598C93.8482 8.08288 94.1549 8.02386 94.4337 7.8942L93.6596 9.65821C93.1048 8.97363 92.2637 8.66339 91.149 8.66339L91.1464 8.67877Z" fill="white"/>
<path fill-rule="evenodd" clip-rule="evenodd" d="M69.8197 22.3737C67.2755 22.3737 66.0034 24.7505 66.0034 27.0915C66.0034 30.5067 68.1941 31.8425 69.8171 31.8425C71.4401 31.8425 72.4464 31.0938 73.254 30.0477L73.6643 30.9605C73.1763 31.5905 72.5454 32.097 71.823 32.4388C71.1007 32.7805 70.3072 32.9478 69.5074 32.9271C65.6938 32.9271 63.6992 30.2964 63.6992 27.0915C63.6992 23.6301 66.006 21.2969 69.6855 21.2969C71.0814 21.2969 71.9071 21.6533 72.6554 21.6533C73.0132 21.6772 73.3715 21.6157 73.7004 21.4738L72.787 23.5506C72.1239 22.7532 71.1511 22.3737 69.8326 22.3737H69.8197Z" fill="white"/>
<path fill-rule="evenodd" clip-rule="evenodd" d="M82.949 24.7525C82.5516 24.2397 81.9762 24.2397 81.4499 24.2397H79.9017V31.5393C79.8731 31.9511 79.9741 32.3615 80.1907 32.7136H77.6233C77.85 32.3642 77.9577 31.9516 77.9304 31.5368V24.2295H76.6247C75.9074 24.2295 75.2185 24.1397 74.3438 24.7422L75.0378 23.168H83.6302L82.9413 24.7448L82.949 24.7525Z" fill="white"/>
<path fill-rule="evenodd" clip-rule="evenodd" d="M90.9657 32.7068C91.0715 32.535 91.1644 32.1658 90.8754 31.5325L90.429 30.4813H86.0425L85.5755 31.5325C85.302 32.1684 85.3949 32.5376 85.511 32.7068H83.6016C83.9155 32.3608 84.1669 31.9635 84.3447 31.5325L87.6242 24.1662L87.5881 24.0995C87.4556 23.7451 87.2355 23.4295 86.9482 23.1816H89.3117L92.9886 31.5325C93.172 31.9678 93.4344 32.3659 93.7627 32.7068H90.9657ZM88.2358 25.5508L86.4915 29.4711H89.9594L88.2358 25.5508Z" fill="white"/>
<path fill-rule="evenodd" clip-rule="evenodd" d="M101.821 32.7094C102.032 32.3547 102.131 31.946 102.108 31.5351V28.3173H98.0772V31.5325C98.0513 31.9445 98.1512 32.3547 98.3636 32.7094H95.7988C96.0211 32.3595 96.1234 31.9475 96.0904 31.5351V24.3688C96.0904 23.6816 95.9201 23.3432 95.7988 23.1816H98.3662C98.1491 23.5383 98.0482 23.9529 98.0772 24.3688V27.2686H102.108V24.3713C102.133 23.9562 102.033 23.543 101.821 23.1842H104.401C104.173 23.5375 104.064 23.9546 104.092 24.3739V31.5376C104.065 31.952 104.174 32.3638 104.401 32.7119L101.821 32.7094Z" fill="white"/>
<path fill-rule="evenodd" clip-rule="evenodd" d="M113.287 32.7113H109.401C108.405 32.7381 107.436 33.038 106.602 33.5779V32.2011C108.286 31.4319 108.643 30.4243 108.643 28.6295V24.3707C108.674 23.953 108.568 23.5365 108.341 23.1836H115.191C115.065 23.3503 114.895 23.6964 114.895 24.3733V30.5858C114.895 31.2678 115.171 31.8498 116.094 32.1421V33.5805C115.257 33.0378 114.284 32.7368 113.285 32.7113H113.287ZM112.916 24.2502H110.433C110.36 24.2475 110.287 24.2592 110.219 24.2848C110.151 24.3104 110.088 24.3493 110.035 24.3991C109.982 24.449 109.939 24.509 109.91 24.5754C109.88 24.6418 109.864 24.7135 109.863 24.7861V28.632C109.863 30.0268 109.659 31.0345 109.061 31.6627H112.363C112.436 31.6623 112.508 31.6476 112.576 31.6194C112.643 31.5912 112.704 31.5501 112.755 31.4983C112.806 31.4466 112.846 31.3853 112.873 31.318C112.901 31.2507 112.914 31.1788 112.913 31.1063V24.2374L112.916 24.2502Z" fill="white"/>
<path fill-rule="evenodd" clip-rule="evenodd" d="M125.342 32.714C125.456 32.5422 125.559 32.1756 125.27 31.5397L124.829 30.4885H120.442L119.983 31.5397C119.702 32.1756 119.794 32.5448 119.913 32.7166H117.988C118.32 32.3787 118.583 31.9798 118.762 31.5423L122.026 24.176L121.998 24.1093C121.866 23.7527 121.643 23.4363 121.35 23.1914H123.693L127.391 31.5448C127.566 31.9802 127.822 32.3786 128.147 32.7191L125.342 32.714ZM122.63 25.5605L120.886 29.4783H124.367L122.63 25.5605Z" fill="white"/>
<path fill-rule="evenodd" clip-rule="evenodd" d="M133.831 29.7968H132.466V31.5429C132.45 31.9541 132.552 32.3612 132.76 32.7172H130.203C130.415 32.3622 130.514 31.952 130.487 31.5403V24.3766C130.516 23.9614 130.417 23.5474 130.203 23.1895H133.834C136.326 23.1895 137.828 24.4022 137.828 26.3842C137.828 28.7071 135.895 29.7968 133.834 29.7968H133.831ZM133.377 24.2253H132.466V28.7507H133.539C134.732 28.7507 135.82 28.261 135.82 26.3637C135.82 24.6355 134.659 24.2253 133.382 24.2253H133.377Z" fill="white"/>
<path fill-rule="evenodd" clip-rule="evenodd" d="M147.311 24.7687C146.919 24.2559 146.333 24.2559 145.822 24.2559H144.429V31.5556C144.399 31.9691 144.505 32.3809 144.73 32.7299H142.15C142.374 32.3805 142.479 31.9688 142.45 31.5556V24.2457H141.319C140.589 24.2457 139.916 24.1585 139.033 24.7585L139.72 23.1816H147.995L147.303 24.7585L147.311 24.7687Z" fill="white"/>
<path d="M26.0301 49.3899C12.7048 49.3899 1.90755 38.6927 1.90755 25.5112C1.90755 12.3099 12.7048 1.61282 26.0301 1.61282C39.3554 1.61282 50.1526 12.31 50.1526 25.5112C50.1526 38.6928 39.3554 49.3899 26.0301 49.3899ZM26.0301 0C11.8034 0 0.28125 11.4151 0.28125 25.5099C0.28125 39.5847 11.8036 51 26.0301 51C40.2566 51 51.7789 39.5849 51.7789 25.5099C51.7789 11.4153 40.2568 0 26.0301 0Z" fill="white"/>
<path d="M37.7484 12.6801C37.67 13.1651 37.435 13.204 37.043 13.01C36.6903 12.7962 36.5531 12.7189 36.3572 12.6801C36.1417 12.6412 35.9457 12.7189 36.1025 13.01C36.2788 13.3011 36.5531 14.1166 36.4356 14.6794C36.4356 14.6794 35.5146 12.9322 34.3976 12.0586C33.7313 11.5149 35.005 11.6705 35.2794 11.6897C36.1417 11.7676 36.2396 11.8838 36.514 11.9814C36.7883 12.0586 37.3958 12.1945 37.6113 10.5832H37.7289C37.8073 11.3598 37.8268 12.2531 37.7484 12.6801ZM31.3014 4.81746C30.8508 5.3612 30.2629 6.2929 30.1845 6.62285C30.1061 6.95276 30.1453 7.03059 30.3609 7.10843C30.5572 7.20546 30.5572 7.39952 30.263 7.43838C29.9885 7.47725 29.3226 7.59353 28.6758 7.8072C28.1665 8.00126 28.0879 7.69056 28.2056 7.4773C29.205 5.84624 30.6355 4.97255 30.9881 4.77865C31.3018 4.56497 31.4193 4.66253 31.3018 4.81751L31.3014 4.81746ZM25.6775 15.6111C26.0498 15.4757 26.1482 15.7858 26.0893 16.0189C25.717 17.087 25.2075 18.6785 25.4035 19.3773C25.5994 20.0766 27.363 20.5036 27.363 20.5036C27.0299 20.523 25.1095 20.6197 24.6393 20.7168C24.1886 20.8335 23.444 20.9113 23.6007 20.018C23.7771 18.9312 24.3454 16.9893 24.3454 16.9893C23.8163 17.145 22.7385 17.6497 22.3662 17.8827C21.9743 18.1156 21.8763 18.0767 21.9743 17.8048C23.5027 14.2912 26.7165 10.5441 28.6759 8.97178L28.7151 9.08842C26.1481 12.0002 24.502 16.0189 24.502 16.0189C24.7763 15.8638 25.3055 15.7668 25.6778 15.6112L25.6775 15.6111ZM40.4924 14.5631C39.9241 14.2715 38.9639 13.9416 38.8659 11.7286C38.807 9.53471 38.0429 8.37019 35.2995 5.96289C35.2995 5.96289 35.2603 6.4096 35.3387 6.66172C35.3387 6.66172 34.4764 5.69105 32.4777 5.20547C32.4777 5.20547 32.7127 4.33183 32.7715 3.80792C32.8107 3.40018 32.4972 2.9732 31.8113 3.12829C31.0667 3.30305 28.48 4.25458 27.5788 4.4875C26.6774 4.70065 20.7204 6.7395 17.1342 10.1371C17.1342 10.1371 17.8985 8.02099 19.6425 5.84619C18.31 6.19587 17.1342 6.64258 15.9192 7.26346C13.9988 9.82628 11.5885 14.8735 11.5885 19.1444C11.5885 19.1444 10.4322 15.6501 11.3925 10.2723L11.3729 10.292C10.1385 11.3597 9.06069 12.544 8.12001 13.8834C7.88491 16.9121 7.86539 20.9305 10.354 26.5217C10.354 26.5217 7.8457 24.7357 5.55298 18.7173L5.53345 18.7367C4.82798 20.6784 4.39683 22.697 4.29883 24.8327C6.33692 28.5405 9.3939 32.2293 15.5469 35.5293C15.5469 35.5293 10.491 34.7916 4.78883 30.5401C5.31788 32.8503 6.23903 34.986 7.47366 36.9663C10.5698 38.286 15.3709 40.0142 22.2685 39.6255C22.2685 39.6255 18.5453 41.7221 10.9225 41.1005C10.9225 41.1005 12.2356 42.7119 15.7433 44.3818C18.918 45.8763 23.0329 44.9446 24.4242 44.0518C26.0702 42.9645 27.8731 40.3046 27.0109 36.9658C27.0109 36.9658 26.3251 38.2664 24.6791 38.7712C24.6791 38.7712 25.992 37.7617 25.992 35.9176C25.992 34.0732 24.4635 32.8306 22.5432 32.6559C21.0343 32.5393 18.487 32.7337 17.6833 32.7337C16.8995 32.7337 15.8413 32.7337 15.0967 31.8212C15.0967 31.8212 16.1548 31.8015 17.2915 31.5494C18.2124 31.3554 20.1328 30.6561 21.2498 30.7147C21.2498 30.7147 20.8578 30.1903 19.9368 30.21C19.3882 30.21 19.2706 30.3848 18.8787 30.501C18.3496 30.6178 17.3894 30.6562 16.8604 29.6275C16.8604 29.6275 17.6441 30.2293 18.3104 30.0352C18.8785 29.8801 18.9374 29.6472 19.1529 29.4916C19.388 29.3168 19.7995 29.1617 20.1914 29.1617C20.5833 29.1617 20.9557 29.2587 21.3084 29.5498C21.6416 29.8215 22.3274 29.7635 21.9158 29.3753C21.5239 28.9867 20.9556 28.5987 20.1326 28.5789C18.6826 28.5596 16.1156 28.8706 15.2141 29.3166C14.5674 29.6274 14.0972 30.0351 13.8618 30.3071C13.7835 30.404 13.6071 30.4232 13.6267 30.249C13.6659 29.3754 14.0186 27.0264 15.1356 26.0169C16.2723 24.9684 19.2704 24.2307 20.4657 23.9979C20.4657 23.9979 20.1718 23.3182 20.5049 22.8913C21.034 22.2506 22.6998 21.0663 32.6348 21.0663C32.6348 21.0663 32.0861 21.474 31.851 21.8236C31.851 21.8236 35.7309 22.0177 37.9061 23.1045C38.2394 23.2603 38.9251 23.3375 39.1407 21.8237L38.5138 21.4351C38.5138 21.4351 38.5725 21.2022 38.6313 20.9303C38.69 20.6394 38.6313 20.5813 38.4157 20.6975C38.2001 20.8141 38.1218 20.9304 38.1218 20.9304C38.1218 20.9304 37.5729 21.1441 37.5144 20.8143C37.4555 20.4838 36.8285 19.6299 35.5939 19.4742C35.5939 19.4742 36.2014 18.6203 37.6319 18.8342C37.6319 18.8342 37.7496 19.2414 38.0435 19.1054C38.357 18.9893 38.7685 18.7365 38.8077 19.086C38.8468 19.4161 38.9839 19.9598 39.7874 19.1055C39.7874 19.1055 40.5713 19.533 41.2963 19.2612C42.0016 18.9894 42.5112 18.5428 42.6875 17.3972C42.7267 17.145 42.7267 17.0672 42.9031 16.8535C43.0991 16.6205 43.2362 16.2906 42.9031 16.0188C42.4524 15.6499 41.0611 14.8733 40.4928 14.5631L40.4924 14.5631Z" fill="white"/>
<path d="M35.2777 34.4034C34.729 33.7436 33.9061 32.7921 33.9061 32.7921C34.7095 33.2579 36.1988 33.4717 36.1988 33.4717C35.8068 33.1412 34.8466 32.0155 34.4743 31.5688C33.4357 30.3264 31.6133 28.9288 30.2613 28.327C27.6159 27.1426 24.8333 26.9875 24.461 26.9097C24.0887 26.8318 23.2853 26.9875 23.7948 26.2498C24.265 25.4924 27.1262 23.2989 27.1262 23.2989C26.5383 23.2989 23.8929 23.512 23.1088 23.6289C22.3251 23.745 22.1291 23.4733 22.0899 22.9492C22.0899 22.9492 20.5023 24.4438 21.2666 25.2012C21.3843 25.2984 21.7173 25.3372 22.129 25.1624C22.5403 24.9684 23.3829 24.6965 23.677 24.6773C23.677 24.6773 22.9913 25.7252 22.8539 26.1719C22.6972 26.6186 22.6579 26.8318 23.3634 27.0648C24.0884 27.2785 27.694 28.4047 29.9281 29.8992C32.1423 31.3746 34.435 33.2966 36.1201 36.7913C37.825 40.3049 36.904 42.9646 36.6297 43.4503C37.8445 42.6737 38.9615 41.8 39.9805 40.8097H39.9608C39.0791 37.8785 36.6298 36.0149 35.2775 34.4036L35.2777 34.4034Z" fill="white"/>
</g>
<defs>
<clipPath id="clip0_134_8397">
<rect width="148" height="51" fill="white"/>
</clipPath>
</defs>
</svg>
