<svg width="174" height="18" viewBox="0 0 174 18" fill="none" xmlns="http://www.w3.org/2000/svg">
    <path fill-rule="evenodd" clip-rule="evenodd"
        d="M150.3 18C150.081 18 149.859 17.9903 149.636 17.9694C146.154 17.6489 143.427 14.6189 143.427 11.0715V2.2573C143.427 1.18632 144.317 0.315456 145.412 0.315456H146.64V11.1285C146.64 13.0328 148.087 14.6629 149.935 14.839C150.058 14.851 150.179 14.8561 150.3 14.8561L150.459 14.8538C152.39 14.7764 153.96 13.1292 153.959 11.1813L153.956 2.25776C153.956 1.73895 154.162 1.25071 154.537 0.883834C154.912 0.517423 155.411 0.315456 155.941 0.315456H157.169L157.171 11.406C157.124 13.9139 155.687 16.1309 153.327 17.3343C152.46 17.7763 151.442 18 150.3 18ZM46.9309 17.685L45.8039 14.0255H37.9713L36.8439 17.685H33.4877L37.8383 3.55711L38.0291 2.95491C38.3766 1.606 39.4415 0.536879 40.8114 0.158424C40.8175 0.156571 41.3871 0 41.8871 0C42.3933 0 42.9047 0.141747 42.9615 0.157497C44.3328 0.536878 45.3977 1.60369 45.7419 2.94194L45.937 3.55896L50.2865 17.685H46.9309ZM41.8871 3.14298C41.5368 3.14298 41.2669 3.37089 41.1262 3.78409L38.9391 10.8821H44.8361L42.658 3.81142C42.5595 3.4867 42.3067 3.14298 41.8871 3.14298ZM28.0032 17.685C27.2726 17.685 26.6031 17.294 26.2555 16.6645L23.3923 11.4671H20.0906V17.6804H16.8774L16.8793 2.25591C16.8793 1.18539 17.7695 0.31453 18.8637 0.314067L24.7664 0.313604C27.8365 0.380309 30.3361 2.88173 30.3361 5.88991C30.3361 8.03001 29.0515 10.008 27.0624 10.9284L26.8105 11.0456L30.4692 17.685H28.0032ZM20.0906 3.45705V8.32462H24.5708C25.7853 8.32462 26.836 7.51444 27.0695 6.39807C27.2229 5.66756 27.0377 4.92223 26.5628 4.35293C26.0874 3.7827 25.3843 3.4552 24.6347 3.4552L20.0906 3.45705ZM161.559 17.6822V16.4806C161.559 15.4101 162.449 14.5388 163.544 14.5388H168.758C169.878 14.5388 170.788 13.6485 170.788 12.5543C170.788 11.4597 169.878 10.5694 168.758 10.5694H165.865C162.975 10.5694 160.623 8.26949 160.623 5.44243C160.623 2.61491 162.975 0.31453 165.865 0.31453H172.837V1.51567C172.837 2.58619 171.947 3.45705 170.853 3.45705H165.865C164.746 3.45705 163.835 4.34737 163.835 5.44243C163.835 6.53657 164.746 7.42642 165.865 7.42642H168.758C171.649 7.42642 174 9.7268 174 12.5543C174 15.3814 171.649 17.6822 168.758 17.6822H161.559ZM72.7792 17.6822V16.4806C72.7792 15.4101 73.6693 14.5388 74.7636 14.5388H79.9783C81.0976 14.5388 82.0077 13.6485 82.0077 12.5543C82.0077 11.4597 81.0976 10.5694 79.9783 10.5694H77.0847C74.1945 10.5694 71.8426 8.26949 71.8426 5.44243C71.8426 2.61491 74.1945 0.31453 77.0847 0.31453H84.057V1.51567C84.057 2.58619 83.1668 3.45705 82.0725 3.45705H77.0847C75.9658 3.45705 75.0553 4.34737 75.0553 5.44243C75.0553 6.53657 75.9658 7.42642 77.0847 7.42642H79.9783C82.869 7.42642 85.2204 9.7268 85.2204 12.5543C85.2204 15.3814 82.869 17.6822 79.9783 17.6822H72.7792ZM129.037 17.6804V2.2573C129.037 1.18632 129.928 0.315456 131.022 0.315456H132.251V14.5374H140.655V15.7385C140.655 16.8095 139.765 17.6804 138.67 17.6804H129.037ZM112.203 17.6804V2.25637C112.203 1.18539 113.093 0.31453 114.188 0.314067L120.092 0.313604C121.611 0.347883 123.082 0.992692 124.124 2.08266C125.214 3.22358 125.756 4.711 125.649 6.27207C125.45 9.18529 122.858 11.4671 119.75 11.4671H115.417V17.6804H112.203ZM115.417 3.45705V8.32462H119.897C121.111 8.32462 122.162 7.51444 122.396 6.39807C122.549 5.66756 122.364 4.92223 121.889 4.35293C121.413 3.7827 120.71 3.4552 119.96 3.4552L115.417 3.45705ZM100.444 17.6804V3.45705H95.3262V2.25637C95.3262 1.18539 96.2169 0.31453 97.3111 0.31453H108.776V1.51567C108.776 2.58619 107.886 3.45705 106.792 3.45705H103.658V17.6804H100.444ZM88.6864 17.6804V2.2573C88.6864 1.18632 89.577 0.315456 90.6708 0.315456H91.8995V15.7385C91.8995 16.8095 91.0089 17.6804 89.9146 17.6804H88.6864ZM64.7472 17.6804L56.9728 5.5536V15.7385C56.9728 16.8095 56.0826 17.6804 54.9879 17.6804H53.7597V2.28926C53.7597 1.21875 54.6503 0.347419 55.745 0.347419H57.4293L65.2032 12.4747V2.28926C65.2032 1.21875 66.0934 0.347419 67.1881 0.347419H68.4159V15.7385C68.4159 16.8095 67.5262 17.6804 66.4314 17.6804H64.7472ZM5.11852 17.6804V3.45705H0V2.25637C0 1.18539 0.890656 0.31453 1.98539 0.31453H13.4502V1.51567C13.4502 2.58619 12.56 3.45705 11.4653 3.45705H8.33216V17.6804H5.11852Z"
        fill="#242325" />
</svg>