<svg width="70" height="72" viewBox="0 0 70 72" fill="none" xmlns="http://www.w3.org/2000/svg">
    <path fill-rule="evenodd" clip-rule="evenodd"
        d="M34.9592 72C33.9878 72 33.0439 71.8051 32.1525 71.4195C12.7011 63.0174 0.132812 43.9404 0.132812 22.82C0.132812 20.1849 0.335204 17.5156 0.734365 14.8868C1.01609 13.029 2.01118 11.391 3.53474 10.2737C12.6998 3.55245 23.5671 0 34.9598 0C46.3518 0 57.2185 3.55245 66.3848 10.2737C67.9078 11.3904 68.9022 13.029 69.1852 14.8868C69.5831 17.5156 69.7861 20.1843 69.7861 22.82C69.7861 43.9404 57.2179 63.0174 37.7664 71.4195C36.875 71.8051 35.9305 72 34.9592 72Z"
        fill="#F6D700" />
    <path fill-rule="evenodd" clip-rule="evenodd"
        d="M68.0364 22.8201C68.0364 20.2118 67.8353 17.6509 67.4549 15.1485C67.2437 13.7565 66.4841 12.5091 65.3466 11.6758C56.8362 5.4353 46.3318 1.74023 34.956 1.74023C23.5809 1.74023 13.0759 5.4353 4.56543 11.6758C3.42854 12.5091 2.66833 13.7565 2.45781 15.1479C2.07739 17.6509 1.875 20.2118 1.875 22.8201C1.875 43.8751 14.625 61.9525 32.8422 69.8228C34.1908 70.4051 35.7219 70.4051 37.0693 69.8228C55.2876 61.9525 68.0364 43.8751 68.0364 22.8201Z"
        fill="#242325" />
    <path fill-rule="evenodd" clip-rule="evenodd"
        d="M42.2332 49.0446C42.8391 49.3242 43.1127 50.0311 42.8528 50.6446L41.4386 53.9797C41.2387 54.4493 40.7765 54.7538 40.2649 54.7538H29.6549C29.1439 54.7538 28.6829 54.4493 28.4824 53.9797L27.0682 50.6446C26.8083 50.0311 27.0813 49.3242 27.6878 49.0446C27.6878 49.0446 33.6022 46.7415 42.2332 49.0446ZM48.834 26.858C49.33 26.5603 49.1189 25.7992 48.5398 25.7992H39.6439C38.8743 25.7992 38.4021 26.6381 38.8025 27.2939L40.5047 30.0791C40.9451 30.7978 41.884 31.0276 42.6086 30.5935L48.834 26.858ZM31.1185 27.2939C31.5189 26.6381 31.0454 25.7992 30.2765 25.7992H21.3818C20.8009 25.7992 20.5898 26.5603 21.0858 26.858L27.313 30.5935C28.0364 31.0276 28.9759 30.7978 29.415 30.0791L31.1185 27.2939ZM44.1478 15.0547C44.9767 15.0547 45.7507 15.4651 46.2123 16.1502L53.2766 26.6064C53.8126 27.4017 53.7832 28.4486 53.2023 29.2122L47.7465 36.385C47.6109 36.5637 47.4029 36.6727 47.1799 36.6833C46.9438 36.697 46.8757 36.6658 46.5665 36.527C46.3135 36.4142 45.6039 36.1333 45.0236 35.9054C44.745 35.797 44.4845 36.0935 44.6344 36.3507C45.319 37.5191 46.5552 39.6397 46.7476 40.0501C47.0681 40.7427 47.1749 41.4384 46.8619 42.0998L44.7375 46.5895C44.4083 47.2846 43.5793 47.5854 42.8797 47.2634L36.9872 44.5536C36.5781 44.363 36.3126 43.9513 36.3126 43.5017V41.1388C36.3126 40.8405 36.455 40.5602 36.6968 40.3833L39.3678 38.424C39.7358 38.1537 39.9538 37.7258 39.9538 37.27V36.948C39.9538 36.5481 39.6283 36.2237 39.2273 36.2237H30.6944C30.2933 36.2237 29.9666 36.5481 29.9666 36.948V37.27C29.9666 37.7258 30.1846 38.1537 30.5526 38.424L33.2242 40.3833C33.466 40.5602 33.6072 40.8405 33.6072 41.1388V43.5017C33.6072 43.9513 33.3436 44.363 32.9338 44.5536L27.0413 47.2634C26.3411 47.5854 25.5128 47.2846 25.1836 46.5895L23.0584 42.0998C22.7467 41.4384 22.8523 40.7427 23.174 40.0501C23.3645 39.6397 24.6001 37.5191 25.2854 36.3507C25.4359 36.0935 25.1748 35.797 24.8968 35.9054C24.3159 36.1333 23.6075 36.4142 23.3539 36.527C23.0453 36.6658 22.976 36.697 22.7411 36.6833C22.5175 36.6727 22.3101 36.5637 22.1745 36.385L16.7193 29.2122C16.1378 28.4486 16.1078 27.4017 16.645 26.6064L23.7075 16.1502C24.1703 15.4651 24.9443 15.0547 25.772 15.0547H44.1478Z"
        fill="#F6D700" />
</svg>