<svg width="132" height="8" viewBox="0 0 132 8" fill="none" xmlns="http://www.w3.org/2000/svg">
    <path fill-rule="evenodd" clip-rule="evenodd"
        d="M6.75636 0V7.88598H5.66714V0.839558H2.7585L2.75351 3.71587C2.75351 5.16 2.56348 6.21609 2.18397 6.88415C1.80447 7.55222 1.17399 7.88598 0.293084 7.88598H0V7.05185H0.227153C0.73575 7.05185 1.10196 6.79515 1.3269 6.28013C1.55183 5.76565 1.66596 4.9109 1.66984 3.71587L1.67538 0H6.75636ZM8.05217 4.90178C8.05217 4.03563 8.29152 3.32143 8.7713 2.76028C9.24943 2.19859 9.9004 1.91747 10.7226 1.91747C11.5514 1.91747 12.2074 2.1975 12.6877 2.75703C13.1686 3.31709 13.4096 4.03183 13.4096 4.90178V5.02117C13.4096 5.89492 13.1692 6.60966 12.6905 7.16592C12.2118 7.72165 11.5592 7.99951 10.7337 7.99951C9.90816 7.99951 9.25441 7.72056 8.77352 7.16267C8.29262 6.60531 8.05217 5.89112 8.05217 5.02117V4.90178ZM9.14139 5.02117C9.14139 5.64202 9.27491 6.15487 9.5414 6.55919C9.80899 6.9635 10.2068 7.16592 10.7337 7.16592C11.2528 7.16592 11.6478 6.9635 11.9171 6.55919C12.1852 6.15487 12.3204 5.64202 12.3204 5.02117V4.90178C12.3204 4.28798 12.1847 3.7773 11.9143 3.36919C11.6428 2.96108 11.2461 2.75703 10.7226 2.75703C10.2029 2.75703 9.80899 2.96108 9.5414 3.36919C9.27491 3.7773 9.14139 4.28798 9.14139 4.90178V5.02117ZM18.4439 2.87089H15.7298V7.88598H14.6405V2.0259H18.4439V2.87089ZM23.0807 2.02585H24.1699V7.88592H23.0807V3.72667L23.0475 3.71582L20.4048 7.88592H19.3211V2.02585H20.4048V6.18565L20.438 6.19596L23.0807 2.02585ZM28.002 7.16587C28.3366 7.16587 28.6303 7.05679 28.8813 6.83808C29.1311 6.61991 29.2569 6.35128 29.2569 6.0338H30.2408L30.2569 6.06636C30.2724 6.57216 30.0508 7.02043 29.5943 7.41226C29.1367 7.80409 28.6059 8 28.002 8C27.161 8 26.5128 7.71997 26.0546 7.1599C25.5981 6.60038 25.3698 5.90409 25.3698 5.06942V4.84203C25.3698 4.01549 25.5992 3.32192 26.0579 2.76023C26.5167 2.19853 27.1649 1.91796 28.002 1.91796C28.6685 1.91796 29.2148 2.11984 29.6414 2.52415C30.0663 2.92847 30.2724 3.42504 30.2569 4.01332L30.2469 4.04589H29.2569C29.2569 3.68825 29.1378 3.38433 28.8995 3.13361C28.6624 2.88288 28.3621 2.75697 28.002 2.75697C27.4668 2.75697 27.0773 2.96048 26.8325 3.36642C26.587 3.77291 26.4651 4.26405 26.4651 4.84203V5.06942C26.4651 5.65825 26.5848 6.15482 26.8269 6.55913C27.0679 6.96344 27.4596 7.16587 28.002 7.16587ZM35.9861 2.8545H34.0122V7.88587H32.9229V2.8545H30.9761V2.02579H35.9861V2.8545ZM40.776 2.02585H41.8652V7.88592H40.776V3.72667L40.7433 3.71582L38.1 7.88592H37.0164V2.02585H38.1V6.18565L38.1333 6.19596L40.776 2.02585ZM47.8815 7.88587H46.7928V5.78996C46.5823 5.84423 46.3668 5.88439 46.1457 5.91261C45.9247 5.9392 45.6887 5.95223 45.4382 5.95223C44.7158 5.95223 44.149 5.76663 43.7379 5.39542C43.3263 5.02313 43.1213 4.47229 43.1213 3.7429V2.02037H44.2105V3.7429C44.2105 4.21179 44.3136 4.55695 44.5208 4.77728C44.7263 4.99762 45.0316 5.10779 45.4382 5.10779C45.6809 5.10779 45.9136 5.09422 46.1346 5.06709C46.3557 5.03995 46.5751 4.99979 46.7928 4.94552V2.02579H47.8815V7.88587ZM51.856 7.99978C50.9973 7.99978 50.3275 7.7306 49.8466 7.19279C49.3657 6.65497 49.1247 5.94675 49.1247 5.06974V4.8315C49.1247 3.99031 49.3734 3.29403 49.8687 2.74319C50.3651 2.19289 50.9701 1.91774 51.6848 1.91774C52.4848 1.91774 53.0849 2.16141 53.4843 2.64876C53.8849 3.1361 54.0843 3.78409 54.0843 4.59325V5.15603H50.2582L50.2421 5.18371C50.2421 5.772 50.3746 6.24903 50.6399 6.61644C50.9048 6.98222 51.3109 7.16565 51.856 7.16565C52.225 7.16565 52.548 7.1141 52.8267 7.01098C53.1048 6.90841 53.3436 6.76677 53.543 6.58659L53.9685 7.27908C53.7547 7.48205 53.4727 7.65246 53.1225 7.79139C52.7724 7.93032 52.3508 7.99978 51.856 7.99978ZM51.6848 2.75676C51.3053 2.75676 50.9906 2.90057 50.7424 3.18766C50.4937 3.47475 50.3419 3.84216 50.2859 4.28988L50.2976 4.31702H52.9957V4.23019C52.9957 3.80417 52.8882 3.4525 52.6749 3.17355C52.4605 2.89569 52.1308 2.75676 51.6848 2.75676ZM57.6321 7.16587C57.9673 7.16587 58.2604 7.05679 58.5114 6.83808C58.7612 6.61991 58.8876 6.35128 58.8876 6.0338H59.871L59.8876 6.06636C59.9031 6.57216 59.6809 7.02043 59.2244 7.41226C58.7673 7.80409 58.2366 8 57.6321 8C56.7917 8 56.1429 7.71997 55.6853 7.1599C55.2282 6.60038 55 5.90409 55 5.06942V4.84203C55 4.01549 55.2293 3.32192 55.6881 2.76023C56.1474 2.19853 56.795 1.91796 57.6321 1.91796C58.2992 1.91796 58.8455 2.11984 59.2715 2.52415C59.697 2.92847 59.9031 3.42504 59.8876 4.01332L59.8771 4.04589H58.8876C58.8876 3.68825 58.7685 3.38433 58.5302 3.13361C58.292 2.88288 57.9928 2.75697 57.6321 2.75697C57.0975 2.75697 56.7075 2.96048 56.4626 3.36642C56.2172 3.77291 56.0953 4.26405 56.0953 4.84203V5.06942C56.0953 5.65825 56.2155 6.15482 56.4571 6.55913C56.6975 6.96344 57.0898 7.16587 57.6321 7.16587ZM62.7645 5.40025H62.206V7.88582H61.1168V2.02574H62.206V4.50099H62.6703L64.8099 2.02574H66.0881L66.0986 2.05342L63.616 4.83693L66.2859 7.85868L66.2754 7.88582H64.9374L62.7645 5.40025ZM70.701 7.88587C70.6645 7.70949 70.6362 7.55319 70.6157 7.41806C70.5958 7.28239 70.583 7.14617 70.5797 7.00887C70.3764 7.28999 70.1127 7.52606 69.7863 7.71546C69.4606 7.90541 69.1093 7.99984 68.7331 7.99984C68.1093 7.99984 67.6356 7.84354 67.3087 7.53094C66.9829 7.21889 66.8195 6.78853 66.8195 6.23932C66.8195 5.67979 67.0511 5.24183 67.5137 4.92653C67.9763 4.61013 68.604 4.45221 69.3969 4.45221H70.5797V3.87314C70.5797 3.52961 70.4728 3.25826 70.2589 3.05801C70.0445 2.85721 69.7431 2.75681 69.352 2.75681C68.9985 2.75681 68.7121 2.84364 68.4954 3.01731C68.2777 3.19043 68.1691 3.39774 68.1691 3.63978L67.1348 3.65118L67.1237 3.61808C67.0982 3.19206 67.3015 2.8024 67.7348 2.44856C68.1686 2.09417 68.727 1.91779 69.4129 1.91779C70.091 1.91779 70.6368 2.08657 71.0501 2.42413C71.4628 2.76169 71.6689 3.24795 71.6689 3.88346V6.7055C71.6689 6.91444 71.68 7.11686 71.7016 7.31224C71.7243 7.50707 71.7648 7.6981 71.8235 7.88587H70.701ZM68.8932 7.10601C69.2877 7.10601 69.6439 7.00724 69.9603 6.80861C70.2772 6.60998 70.4839 6.38205 70.5797 6.12589V5.17237H69.3575C68.9193 5.17237 68.568 5.28145 68.3049 5.49745C68.0406 5.71453 67.9093 5.96905 67.9093 6.26157C67.9093 6.52098 67.9913 6.72721 68.1581 6.87862C68.3237 7.03057 68.5686 7.10601 68.8932 7.10601ZM77.9413 2.02585V7.88592H76.8521V5.61147H75.375L73.9595 7.88592H72.7877L74.303 5.45408C73.9229 5.32112 73.6315 5.11001 73.4265 4.82075C73.221 4.53204 73.1196 4.19773 73.1196 3.81839C73.1196 3.29142 73.3229 2.86106 73.7307 2.52676C74.1373 2.193 74.6986 2.02585 75.4138 2.02585H77.9413ZM74.2138 3.82978C74.2138 4.08919 74.3052 4.31116 74.4852 4.49568C74.6653 4.67965 74.9368 4.77191 75.298 4.77191H76.8521V2.85455H75.4138C75.0199 2.85455 74.7213 2.95115 74.5185 3.14435C74.3152 3.33755 74.2138 3.56549 74.2138 3.82978ZM83.5281 5.40025H82.9702V7.88582H81.8804V2.02574H82.9702V4.50099H83.4344L85.5741 2.02574H86.8517L86.8628 2.05342L84.3796 4.83693L87.05 7.85868L87.0395 7.88582H85.7015L83.5281 5.40025ZM89.9776 1.91747C90.807 1.91747 91.4624 2.1975 91.9433 2.75703C92.4242 3.31709 92.6652 4.03183 92.6652 4.90178V5.02117C92.6652 5.89492 92.4253 6.60966 91.9466 7.16592C91.4674 7.72165 90.8148 7.99951 89.9893 7.99951C89.1638 7.99951 88.5106 7.72056 88.0286 7.16267C87.5482 6.60531 87.3078 5.89112 87.3078 5.02117V4.90178C87.3078 4.03563 87.5471 3.32143 88.0263 2.76028C88.5056 2.19859 89.1566 1.91747 89.9776 1.91747ZM89.9776 2.75703C89.4585 2.75703 89.0651 2.96108 88.7975 3.36919C88.53 3.7773 88.397 4.28798 88.397 4.90178V5.02117C88.397 5.64202 88.53 6.15487 88.7975 6.55919C89.0651 6.9635 89.4624 7.16592 89.9893 7.16592C90.5089 7.16592 90.9028 6.9635 91.1727 6.55919C91.4414 6.15487 91.576 5.64202 91.576 5.02117V4.90178C91.576 4.28798 91.4402 3.7773 91.1699 3.36919C90.8984 2.96108 90.5012 2.75703 89.9776 2.75703ZM97.2738 6.4888H97.3081L99.2649 2.02563H100.625V7.88571H99.5359V3.81871L99.5026 3.80786L97.6666 7.88571H96.9153L95.046 3.7156L95.0128 3.72645V7.88571H93.9236V2.02563H95.328L97.2738 6.4888ZM107.03 7.88587H105.941V2.87078H103.27V7.88587H102.181V2.02579H107.03V7.88587ZM110.864 1.91779C111.542 1.91779 112.087 2.08657 112.5 2.42413C112.914 2.76169 113.119 3.24795 113.119 3.88346V6.7055C113.119 6.91444 113.131 7.11686 113.152 7.31224C113.175 7.50707 113.216 7.6981 113.274 7.88587H112.152C112.116 7.70949 112.087 7.55319 112.067 7.41806C112.047 7.28239 112.034 7.14617 112.031 7.00887C111.827 7.28999 111.563 7.52606 111.237 7.71546C110.911 7.90541 110.56 7.99984 110.183 7.99984C109.56 7.99984 109.086 7.84354 108.76 7.53094C108.434 7.21889 108.27 6.78853 108.27 6.23932C108.27 5.67979 108.502 5.24183 108.965 4.92653C109.427 4.61013 110.055 4.45221 110.848 4.45221H112.031V3.87314C112.031 3.52961 111.924 3.25826 111.709 3.05801C111.495 2.85721 111.194 2.75681 110.802 2.75681C110.449 2.75681 110.163 2.84364 109.946 3.01731C109.729 3.19043 109.62 3.39774 109.62 3.63978L108.586 3.65118L108.575 3.61808C108.549 3.19206 108.752 2.8024 109.186 2.44856C109.619 2.09417 110.178 1.91779 110.864 1.91779ZM112.031 5.17237H110.808C110.37 5.17237 110.019 5.28145 109.755 5.49745C109.491 5.71453 109.36 5.96905 109.36 6.26157C109.36 6.52098 109.442 6.72721 109.609 6.87862C109.774 7.03057 110.019 7.10601 110.344 7.10601C110.738 7.10601 111.094 7.00724 111.411 6.80861C111.728 6.60998 111.934 6.38205 112.031 6.12589V5.17237ZM119.443 7.88587H118.354V5.39542H115.689V7.88587H114.6V2.02579H115.689V4.56075H118.354V2.02579H119.443V7.88587ZM124.707 2.02585H125.797V7.88592H124.707V3.72667L124.674 3.71582L122.031 7.88592H120.948V2.02585H122.031V6.18565L122.064 6.19596L124.707 2.02585ZM132 2.02585V7.88592H130.911V5.61147H129.434L128.018 7.88592H126.846L128.362 5.45408C127.982 5.32112 127.69 5.11001 127.485 4.82075C127.28 4.53204 127.178 4.19773 127.178 3.81839C127.178 3.29142 127.382 2.86106 127.789 2.52676C128.196 2.193 128.757 2.02585 129.473 2.02585H132ZM130.911 2.85455H129.473C129.079 2.85455 128.78 2.95115 128.577 3.14435C128.374 3.33755 128.273 3.56549 128.273 3.82978C128.273 4.08919 128.363 4.31116 128.544 4.49568C128.724 4.67965 128.995 4.77191 129.357 4.77191H130.911V2.85455Z"
        fill="#242325" />
</svg>