<svg width="400" height="400" viewBox="0 0 400 400" fill="none" xmlns="http://www.w3.org/2000/svg">
    <path
        d="M326.309 307.876H334.007L345.217 303.542L352.243 297.712L344.395 293.078L343.797 296.74L326.309 307.876Z"
        fill="#DFE3E2" />
    <path
        d="M297.236 335.531C301.884 335.489 306.562 336.497 310.122 338.553C317.094 342.578 317.13 349.089 310.204 353.115C306.789 355.099 302.321 356.107 297.833 356.137H280.793L289.463 353.765L295.741 347.637L297.236 335.531Z"
        fill="#DFE3E2" />
    <path
        d="M284.562 353.65C291.533 357.675 291.57 364.187 284.643 368.212C281.229 370.197 276.761 371.205 272.273 371.235H255.232L263.902 368.863L270.18 362.734L271.675 350.628L275.262 353.467L284.562 353.65Z"
        fill="#DFE3E2" />
    <path d="M238.939 356.287H228.925L237.594 353.915L238.353 353.175L238.939 356.287Z"
        fill="#DFE3E2" />
    <path
        d="M348.132 295.17H355.83L367.041 290.835L374.066 285.006L366.219 280.372L365.621 284.034L348.132 295.17Z"
        fill="#DFE3E2" />
    <path
        d="M370.03 282.69H377.728L388.939 278.355L395.965 272.525L388.117 267.892L387.519 271.554L370.03 282.69Z"
        fill="#DFE3E2" />
    <path
        d="M281.54 354.064V327.009L288.416 325.664L296.039 319.983V348.235L289.462 353.765L281.54 354.064Z"
        fill="#B8B8B8" />
    <path
        d="M254.635 369.012V341.957L261.511 340.612L267.116 338.033L269.134 334.932V363.183L262.557 368.713L254.635 369.012Z"
        fill="#B8B8B8" />
    <path
        d="M228.626 354.102V326.486L235.502 325.702L241.107 323.123L243.125 320.021L243.088 327.495L240.397 331.307L239.949 350.141L236.548 353.803L228.626 354.102Z"
        fill="#B8B8B8" />
    <path
        d="M255.644 324.58V310.814L262.519 310.029L268.125 307.45L270.143 304.349L270.105 311.822L267.415 315.634L266.966 328.168L263.566 326.262L255.644 324.58Z"
        fill="#B8B8B8" />
    <path
        d="M78.7747 297.488L91.9287 288.071L93.2976 270.365C95.1675 271.043 96.9367 271.853 98.566 272.794C110.225 279.525 110.286 290.414 98.7028 297.145C93.0367 300.438 85.6372 302.124 78.1913 302.199H63.0049L78.7747 297.488Z"
        fill="#DFE3E2" />
    <path
        d="M18.5215 312.13C26.0409 316.471 38.1827 316.461 45.6531 312.12C53.1237 307.779 53.0842 300.755 45.5648 296.414L43.8723 299.282L42.7512 307.503L34.1563 312.137L18.5215 312.13"
        fill="#DFE3E2" />
    <path d="M122.273 360.941L122.198 368.489L129.523 364.08L129.896 356.83L122.273 360.941Z"
        fill="#B8B8B8" />
    <path
        d="M121.601 370.806H127.131L134.755 366.322L130.719 355.858L129.074 364.827L121.645 369.199L121.601 370.806Z"
        fill="#DFE3E2" />
    <path d="M140.883 371.853H151.047L191.107 348.534L174.067 338.669L140.883 371.853Z"
        fill="#DFE3E2" />
    <path
        d="M140.733 369.461C140.733 369.012 140.733 353.915 140.733 353.915L178.999 330.896L179.149 347.786L140.733 369.461Z"
        fill="#5E5E5E" />
    <path
        d="M326.719 306.419L326.495 296.89L335.464 287.361L344.32 286.352L344.657 296.105L326.719 306.419Z"
        fill="#5E5E5E" />
    <path
        d="M348.469 293.19L348.581 283.998L356.877 274.917L366.63 273.684L366.518 283.101L348.469 293.19Z"
        fill="#5E5E5E" />
    <path
        d="M370.218 280.858L370.33 271.665L379.074 261.912L388.828 260.679L388.379 269.984L370.218 280.858Z"
        fill="#5E5E5E" />
    <path
        d="M26.9814 302.794V313.108L37.7438 311.762L44.0218 303.84L43.5734 295.918L36.548 300.552L26.9814 302.794Z"
        fill="#5E5E5E" />
    <path
        d="M62.2578 280.298V300.477L79.7466 298.459L91.1816 288.594L91.8542 266.845L81.7645 276.038L69.4327 279.849L62.2578 280.298Z"
        fill="#B8B8B8" />
    <path
        d="M62.8184 261.688V267.406L66.5179 265.388L66.63 260.903L68.648 260.119V258.213L62.8184 261.688Z"
        fill="#B8B8B8" />
    <path d="M329.373 189.191L355.943 204.588L306.952 233.586H292.781L329.373 189.191Z"
        fill="#DFE3E2" />
    <path
        d="M329.373 251.076L334.7 243.122L303.367 225.081L292.9 230.298L292.601 223.721L273.05 213.108L273.02 220.014H188.386L127.101 254.992L189.462 290.687H295.591L295.441 279.775L304.41 270.657L313.877 269.253L318.76 271.404L318.773 267.711L327.728 258.4L338.482 257.407L334.903 255.261L329.373 251.076Z"
        fill="#DFE3E2" />
    <path d="M296.675 265.051L335.8 286.912L343.424 286.015L305.307 264.154L296.675 265.051Z"
        fill="#B8B8B8" />
    <path d="M318.536 252.383L357.662 274.244L365.285 273.347L327.168 251.486L318.536 252.383Z"
        fill="#B8B8B8" />
    <path d="M339.836 239.827L378.962 261.688L386.585 260.791L348.468 238.93L339.836 239.827Z"
        fill="#B8B8B8" />
    <path d="M293.199 209.819L293.498 229.849L339.686 202.345L339.537 182.614L293.199 209.819Z"
        fill="#B8B8B8" />
    <circle cx="179.351" cy="243.265" r="9.38039" fill="#F6D700" stroke="#8C8C8C" />
    <path d="M179.351 252.906V263.724" stroke="#8C8C8C" stroke-linecap="round"
        stroke-linejoin="round" />
    <circle cx="206.652" cy="227.551" r="9.38039" fill="#F6D700" stroke="#8C8C8C" />
    <path d="M206.652 237.192V248.011" stroke="#8C8C8C" stroke-linecap="round"
        stroke-linejoin="round" />
    <circle cx="123.693" cy="229.703" r="10.4702" fill="#F6D700" />
    <path
        d="M115.306 235.156C116.257 235.451 117.267 235.61 118.315 235.61C123.903 235.61 128.433 231.08 128.433 225.492C128.433 223.56 127.892 221.755 126.952 220.22C126.952 220.22 120.237 217.209 115.065 224.133C109.893 231.057 115.297 234.916 115.306 235.156Z"
        fill="white" />
    <circle cx="123.693" cy="229.703" r="10.4702" stroke="#8C8C8C" />
    <path d="M123.872 242.258V252.539" stroke="#8C8C8C" stroke-width="2" stroke-linecap="round"
        stroke-linejoin="round" />
    <ellipse cx="154.036" cy="212.184" rx="10.4702" ry="10.4702" fill="#F6D700" />
    <path
        d="M145.649 217.637C146.599 217.933 147.61 218.092 148.658 218.092C154.246 218.092 158.776 213.562 158.776 207.974C158.776 206.042 158.234 204.236 157.295 202.701C157.295 202.701 150.58 199.691 145.408 206.615C140.236 213.539 145.64 217.397 145.649 217.637Z"
        fill="white" />
    <ellipse cx="154.036" cy="212.184" rx="10.4702" ry="10.4702" stroke="#8C8C8C" />
    <path d="M154.125 223.842V235.02" stroke="#8C8C8C" stroke-width="1.5" stroke-linecap="round"
        stroke-linejoin="round" />
    <ellipse cx="184.379" cy="194.666" rx="10.4702" ry="10.4702" fill="#F6D700" />
    <path
        d="M175.993 200.118C176.943 200.414 177.954 200.573 179.001 200.573C184.59 200.573 189.12 196.043 189.12 190.455C189.12 188.523 188.578 186.718 187.639 185.182C187.639 185.182 180.924 182.172 175.752 189.096C170.579 196.02 175.983 199.879 175.993 200.118Z"
        fill="white" />
    <ellipse cx="184.379" cy="194.666" rx="10.4702" ry="10.4702" stroke="#8C8C8C" />
    <path d="M184.379 205.427V217.502" stroke="#8C8C8C" stroke-linecap="round"
        stroke-linejoin="round" />
    <path d="M130.693 268.87L121.512 273.889L97.6709 260.124" stroke="#B8B8B8"
        stroke-linecap="round" stroke-linejoin="round" />
    <path d="M97.6012 259.994L91.9795 263.268" stroke="#B8B8B8" stroke-linecap="round"
        stroke-linejoin="round" />
    <path d="M151.808 280.872L130.31 293.284" stroke="#B8B8B8" stroke-linecap="round"
        stroke-linejoin="round" />
    <path d="M150.118 304.878L128.619 317.29" stroke="#B8B8B8" stroke-linecap="round"
        stroke-linejoin="round" />
    <path d="M150.16 304.878L130.503 293.454" stroke="#B8B8B8" stroke-linecap="round"
        stroke-linejoin="round" />
    <path d="M279.193 222.845L271.968 227.016" stroke="#B8B8B8" stroke-linecap="round"
        stroke-linejoin="round" />
    <path d="M286.506 235.566L259.736 251.022" stroke="#B8B8B8" stroke-linecap="round"
        stroke-linejoin="round" />
    <path d="M286.548 235.566L272.161 227.186" stroke="#B8B8B8" stroke-linecap="round"
        stroke-linejoin="round" />
    <path d="M176.152 295.072L163.592 302.324" stroke="#B8B8B8" stroke-linecap="round"
        stroke-linejoin="round" />
    <path d="M210.339 304.793L189.287 316.947" stroke="#B8B8B8" stroke-linecap="round"
        stroke-linejoin="round" />
    <path d="M188.931 317.003L163.688 302.41" stroke="#B8B8B8" stroke-linecap="round"
        stroke-linejoin="round" />
    <path d="M219.882 310.35L210.401 304.869" stroke="#B8B8B8" stroke-linecap="round"
        stroke-linejoin="round" />
    <path d="M278.75 262.191L227.831 291.589" stroke="#B8B8B8" stroke-linecap="round"
        stroke-linejoin="round" />
    <path d="M227.475 291.645L217.755 286.025" stroke="#B8B8B8" stroke-linecap="round"
        stroke-linejoin="round" />
    <path
        d="M57.071 184.109C53.0352 186.576 65.4757 206.06 65.4757 206.06C65.4757 206.06 50.3446 206.979 55.95 218.414L42.0486 209.446L31.9589 205.41L28.5957 196.217L33.5284 188.145L45.6361 184.782L57.071 184.109Z"
        fill="#B8B8B8" />
    <path d="M291.799 269.777L278.812 262.269" stroke="#B8B8B8" stroke-linecap="round"
        stroke-linejoin="round" />
    <path d="M116.011 251.251L73.6885 226.816L87.693 218.678" stroke="#B8B8B8"
        stroke-linecap="round" stroke-linejoin="round" />
    <path
        d="M119.802 206.613C119.932 206.089 120.004 205.525 120.004 204.919C120.004 198.921 111.515 195.649 103.569 195.901C101.146 195.977 98.748 195.494 96.5672 194.436C93.4835 192.939 88.0618 191.097 80.0552 191.097C72.1825 191.097 67.2112 192.849 64.4369 194.308C62.4059 195.375 60.1575 195.94 57.8638 196.001C53.1787 196.126 47.1573 197.554 44.0677 200.367C41.4419 202.758 40.1486 205.776 40.9661 208.616L41.2637 209.405"
        stroke="#8C8C8C" stroke-linecap="round" stroke-linejoin="round" />
    <path
        d="M98.3192 218.534L98.9092 217.98C99.6873 217.242 100.591 216.637 101.569 216.187C103.179 215.446 104.912 214.096 104.912 211.719C104.912 207.913 99.5249 205.836 94.4822 205.996C92.9445 206.045 91.4225 205.738 90.0385 205.066C88.0815 204.116 84.6407 202.947 79.5595 202.947C74.5632 202.947 71.4082 204.059 69.6475 204.985C68.3586 205.663 66.9317 206.021 65.476 206.06C62.5027 206.139 58.6813 207.045 56.7205 208.831C54.0778 211.237 53.5618 214.644 57.1431 217.015L57.7466 217.456"
        stroke="#8C8C8C" stroke-linecap="round" stroke-linejoin="round" />
    <path fill-rule="evenodd" clip-rule="evenodd"
        d="M47.0194 213.252C52.415 217.824 63.2164 219.139 70.9064 217.022C74.7084 215.976 78.7364 215.872 82.4895 217.082C95.2355 221.192 110.805 218.596 116.677 210.676C118.631 208.04 121.275 205.962 124.257 204.59C127.541 203.079 131.077 200.326 131.077 195.476C131.077 187.711 120.086 183.475 109.799 183.801C106.662 183.9 103.557 183.274 100.734 181.904C96.7411 179.966 89.7218 177.581 79.3558 177.581C69.1632 177.581 62.7269 179.85 59.135 181.738C56.5056 183.12 53.5946 183.852 50.6249 183.931C44.5592 184.092 36.7635 185.942 32.7634 189.584C26.1278 195.626 26.0646 204.76 40.0684 209.238C42.6442 210.061 44.9561 211.504 47.0194 213.252Z"
        stroke="#8C8C8C" stroke-width="2" stroke-linecap="round" stroke-linejoin="round" />
    <path
        d="M128.241 254.669V76.9102L188.593 111.904L248.691 77.1637V254.923L188.847 289.663L128.241 254.669Z"
        fill="#B8B8B8" />
    <path d="M189.354 112.157V122.3L248.015 88.4899V78.1777L189.354 112.157" fill="#5E5E5E" />
    <path d="M40.6547 242.751V251.221" stroke="#8C8C8C" stroke-linecap="round"
        stroke-linejoin="round" />
    <path d="M82.2416 266.968V294.735" stroke="#8C8C8C" stroke-linecap="round"
        stroke-linejoin="round" />
    <path d="M128.944 236.474L139.419 261.397L127.508 254.582L128.944 236.474Z" fill="white" />
    <path d="M188.991 190.273L145.359 87.0068L163.867 97.6847L188.954 157.376L188.991 190.273Z"
        fill="white" />
    <path
        d="M160.628 273.81L128.521 197.527L128.511 112.246L188.855 254.497L188.313 290.043L160.628 273.81Z"
        fill="white" />
    <path d="M128.307 88.5941L187.959 122.935L187.833 111.778L128.876 77.9248L128.307 88.5941"
        fill="white" />
    <path fill-rule="evenodd" clip-rule="evenodd"
        d="M335.432 287.436L296.519 264.822L305.605 263.68L344.518 286.294L335.432 287.436Z"
        stroke="#8C8C8C" stroke-linecap="round" stroke-linejoin="round" />
    <path fill-rule="evenodd" clip-rule="evenodd"
        d="M326.388 305.172L287.474 282.558L287.45 274.161L326.364 296.775L326.388 305.172Z"
        stroke="#8C8C8C" stroke-linecap="round" stroke-linejoin="round" />
    <path d="M335.431 287.437L326.363 296.776" stroke="#8C8C8C" stroke-linecap="round"
        stroke-linejoin="round" />
    <path d="M287.45 274.161L296.518 264.822" stroke="#8C8C8C" stroke-linecap="round"
        stroke-linejoin="round" />
    <path d="M344.518 286.294L344.542 294.69L326.387 305.172L326.363 296.775" stroke="#8C8C8C"
        stroke-linecap="round" stroke-linejoin="round" />
    <path d="M339.857 297.051L339.846 290.897L331.657 295.625" stroke="#8C8C8C"
        stroke-linecap="round" stroke-linejoin="round" />
    <path d="M331.657 295.625L331.668 301.779" stroke="#8C8C8C" stroke-linecap="round"
        stroke-linejoin="round" />
    <path d="M335.744 293.476V299.74" stroke="#8C8C8C" stroke-linecap="round"
        stroke-linejoin="round" />
    <path fill-rule="evenodd" clip-rule="evenodd"
        d="M357.291 274.816L318.377 252.202L327.463 251.06L366.377 273.674L357.291 274.816Z"
        stroke="#8C8C8C" stroke-linecap="round" stroke-linejoin="round" />
    <path d="M309.32 265.666L309.309 261.541L348.222 284.155L348.246 292.552L344.727 290.506"
        stroke="#8C8C8C" stroke-linecap="round" stroke-linejoin="round" />
    <path d="M357.291 274.816L348.223 284.155" stroke="#8C8C8C" stroke-linecap="round"
        stroke-linejoin="round" />
    <path d="M309.309 261.541L318.377 252.202" stroke="#8C8C8C" stroke-linecap="round"
        stroke-linejoin="round" />
    <path d="M366.377 273.674L366.401 282.07L348.246 292.552L348.223 284.155" stroke="#8C8C8C"
        stroke-linecap="round" stroke-linejoin="round" />
    <path d="M361.715 284.431L361.704 278.277L353.516 283.005" stroke="#8C8C8C"
        stroke-linecap="round" stroke-linejoin="round" />
    <path d="M353.516 283.005L353.526 289.158" stroke="#8C8C8C" stroke-linecap="round"
        stroke-linejoin="round" />
    <path d="M357.602 280.855V287.12" stroke="#8C8C8C" stroke-linecap="round"
        stroke-linejoin="round" />
    <path fill-rule="evenodd" clip-rule="evenodd"
        d="M379.15 262.197L340.236 239.583L349.323 238.44L388.236 261.055L379.15 262.197Z"
        stroke="#8C8C8C" stroke-linecap="round" stroke-linejoin="round" />
    <path d="M331.18 253.08L331.168 248.922L370.082 271.536L370.105 279.932L366.643 277.92"
        stroke="#8C8C8C" stroke-linecap="round" stroke-linejoin="round" />
    <path d="M379.15 262.197L370.082 271.536" stroke="#8C8C8C" stroke-linecap="round"
        stroke-linejoin="round" />
    <path d="M331.168 248.922L340.236 239.583" stroke="#8C8C8C" stroke-linecap="round"
        stroke-linejoin="round" />
    <path d="M388.236 261.055L388.26 269.451L370.106 279.933L370.082 271.536" stroke="#8C8C8C"
        stroke-linecap="round" stroke-linejoin="round" />
    <path d="M383.575 271.812L383.564 265.658L375.375 270.386" stroke="#8C8C8C"
        stroke-linecap="round" stroke-linejoin="round" />
    <path d="M375.375 270.386L375.386 276.539" stroke="#8C8C8C" stroke-linecap="round"
        stroke-linejoin="round" />
    <path d="M379.461 268.236V274.501" stroke="#8C8C8C" stroke-linecap="round"
        stroke-linejoin="round" />
    <path d="M281.615 197.413L292.901 208.923L338.865 182.316L327.28 170.208L281.615 197.413Z"
        fill="#B8B8B8" />
    <path fill-rule="evenodd" clip-rule="evenodd"
        d="M268.176 195.495L280.473 197.279L327.652 169.84L315.355 168.057L268.176 195.495Z"
        stroke="#8C8C8C" stroke-linecap="round" stroke-linejoin="round" />
    <path fill-rule="evenodd" clip-rule="evenodd"
        d="M292.714 230.168L339.893 202.73L339.925 182.242L292.746 209.68L292.714 230.168Z"
        stroke="#8C8C8C" stroke-linecap="round" stroke-linejoin="round" />
    <path d="M280.474 197.278L292.746 209.68" stroke="#8C8C8C" stroke-linecap="round"
        stroke-linejoin="round" />
    <path d="M339.925 182.242L327.652 169.84" stroke="#8C8C8C" stroke-linecap="round"
        stroke-linejoin="round" />
    <path d="M268.176 195.494L268.144 215.982L292.714 230.167L292.746 209.68" stroke="#8C8C8C"
        stroke-linecap="round" stroke-linejoin="round" />
    <path d="M298.224 167.808L288.016 161.906" stroke="#8C8C8C" stroke-width="2"
        stroke-linecap="round" stroke-linejoin="round" />
    <path d="M298.224 160.535L288.016 154.634" stroke="#8C8C8C" stroke-width="2"
        stroke-linecap="round" stroke-linejoin="round" />
    <path d="M290.234 180.192L291.105 163.669" stroke="#8C8C8C" stroke-width="2"
        stroke-linecap="round" stroke-linejoin="round" />
    <path d="M295.24 177.147L294.733 166.04" stroke="#8C8C8C" stroke-width="2"
        stroke-linecap="round" stroke-linejoin="round" />
    <path d="M248.712 255.262L188.706 290.134L128.307 255.262" stroke="#8C8C8C"
        stroke-linecap="round" stroke-linejoin="round" />
    <path d="M248.712 88.5938L188.706 123.466L128.307 88.5943" stroke="#8C8C8C"
        stroke-linecap="round" stroke-linejoin="round" />
    <path
        d="M146.215 71.8674C140.805 75.0115 140.833 80.1062 146.271 83.2454L186.962 106.739C188.696 107.74 190.769 108.422 192.965 108.786L247.339 77.333L234.998 69.7256L197.638 91.7024L188.34 93.562L180.056 91.8715L146.215 71.8674"
        fill="#DFE3E2" />
    <path d="M235.977 69.7933L248.712 77.146L188.706 112.018L128.307 77.1465L141.276 69.6094"
        stroke="#8C8C8C" stroke-linecap="round" stroke-linejoin="round" />
    <path d="M249.193 245.226L268.155 256.173L188.768 302.308L108.862 256.174L127.673 245.243"
        stroke="#8C8C8C" stroke-linecap="round" stroke-linejoin="round" />
    <path d="M128.306 77.373V255.148" stroke="#8C8C8C" stroke-linecap="round"
        stroke-linejoin="round" />
    <path d="M248.711 77.3682V255.143" stroke="#8C8C8C" stroke-linecap="round"
        stroke-linejoin="round" />
    <path d="M188.723 111.983V289.758" stroke="#8C8C8C" stroke-linecap="round"
        stroke-linejoin="round" />
    <path fill-rule="evenodd" clip-rule="evenodd"
        d="M238.853 56.145C244.299 59.2891 244.328 64.3837 238.917 67.5279L198.499 91.0168C193.088 94.1609 184.293 94.161 178.847 91.0169L138.155 67.5235C132.718 64.3843 132.689 59.2896 138.1 56.1455L178.519 32.6566C183.929 29.5124 192.724 29.5124 198.162 32.6517L238.853 56.145Z"
        stroke="#8C8C8C" stroke-linecap="round" stroke-linejoin="round" />
    <path d="M106.204 311.128L136.809 328.841L141.406 326.15L114.164 309.895L106.204 311.128Z"
        fill="#B8B8B8" />
    <path d="M129.447 341.659L140.658 353.467L178.027 331.195L167.19 319.984L129.447 341.659Z"
        fill="#B8B8B8" />
    <path fill-rule="evenodd" clip-rule="evenodd"
        d="M129.055 341.92L167.559 319.504L156.107 318.064L117.603 340.48L129.055 341.92Z"
        stroke="#8C8C8C" stroke-linecap="round" stroke-linejoin="round" />
    <path d="M178.958 346.943L178.988 331.274L140.484 353.69L140.454 369.333" stroke="#8C8C8C"
        stroke-linecap="round" stroke-linejoin="round" />
    <path d="M178.987 347.069L140.483 369.485" stroke="#8C8C8C" stroke-linecap="round"
        stroke-linejoin="round" />
    <path d="M140.484 353.691L129.055 341.92" stroke="#8C8C8C" stroke-linecap="round"
        stroke-linejoin="round" />
    <path d="M178.988 331.275L167.559 319.504" stroke="#8C8C8C" stroke-linecap="round"
        stroke-linejoin="round" />
    <path d="M130.381 363.518L140.454 369.333" stroke="#8C8C8C" stroke-linecap="round"
        stroke-linejoin="round" />
    <path d="M117.603 340.48L117.578 353.363" stroke="#8C8C8C" stroke-linecap="round"
        stroke-linejoin="round" />
    <path d="M130.052 363.343L121.778 368.151L113.449 363.343" stroke="#8C8C8C"
        stroke-linecap="round" stroke-linejoin="round" />
    <path fill-rule="evenodd" clip-rule="evenodd"
        d="M130.052 355.867L121.778 360.676L113.449 355.867L121.724 351.059L130.052 355.867Z"
        stroke="#8C8C8C" stroke-linecap="round" stroke-linejoin="round" />
    <path d="M113.45 355.899V363.328" stroke="#8C8C8C" stroke-linecap="round"
        stroke-linejoin="round" />
    <path d="M130.052 355.898V363.327" stroke="#8C8C8C" stroke-linecap="round"
        stroke-linejoin="round" />
    <path d="M121.781 360.672V368.101" stroke="#8C8C8C" stroke-linecap="round"
        stroke-linejoin="round" />
    <path d="M298.542 219.014L298.533 222.392" stroke="#8C8C8C" stroke-linecap="round"
        stroke-linejoin="round" />
    <path d="M298.542 211.044L298.533 214.422" stroke="#8C8C8C" stroke-linecap="round"
        stroke-linejoin="round" />
    <path d="M304.496 215.558L304.487 218.936" stroke="#8C8C8C" stroke-linecap="round"
        stroke-linejoin="round" />
    <path d="M304.496 207.588L304.487 210.966" stroke="#8C8C8C" stroke-linecap="round"
        stroke-linejoin="round" />
    <path d="M310.45 212.101L310.441 215.479" stroke="#8C8C8C" stroke-linecap="round"
        stroke-linejoin="round" />
    <path d="M310.45 204.131L310.441 207.509" stroke="#8C8C8C" stroke-linecap="round"
        stroke-linejoin="round" />
    <path d="M322.357 205.188L322.349 208.567" stroke="#8C8C8C" stroke-linecap="round"
        stroke-linejoin="round" />
    <path d="M322.357 197.219L322.349 200.597" stroke="#8C8C8C" stroke-linecap="round"
        stroke-linejoin="round" />
    <path d="M328.311 201.731L328.303 205.11" stroke="#8C8C8C" stroke-linecap="round"
        stroke-linejoin="round" />
    <path d="M328.311 193.762L328.303 197.14" stroke="#8C8C8C" stroke-linecap="round"
        stroke-linejoin="round" />
    <path d="M334.265 198.275L334.257 201.654" stroke="#8C8C8C" stroke-linecap="round"
        stroke-linejoin="round" />
    <path d="M334.265 190.306L334.257 193.684" stroke="#8C8C8C" stroke-linecap="round"
        stroke-linejoin="round" />
    <path d="M279.805 213.399L279.813 216.778" stroke="#8C8C8C" stroke-linecap="round"
        stroke-linejoin="round" />
    <path d="M279.805 205.43L279.813 208.808" stroke="#8C8C8C" stroke-linecap="round"
        stroke-linejoin="round" />
    <path d="M316.451 208.551L316.442 211.929" stroke="#8C8C8C" stroke-linecap="round"
        stroke-linejoin="round" />
    <path d="M316.451 200.581L316.442 203.96" stroke="#8C8C8C" stroke-linecap="round"
        stroke-linejoin="round" />
    <path d="M292.983 164.442V158.253" stroke="#8C8C8C" stroke-width="2" stroke-linecap="round"
        stroke-linejoin="round" />
    <path fill-rule="evenodd" clip-rule="evenodd"
        d="M211.97 75.7473C225.314 67.9926 225.23 55.4371 211.825 47.6825C198.393 39.9429 176.717 39.9355 163.373 47.6902C150.042 55.4374 150.113 68.0005 163.531 75.7475C176.949 83.4946 198.638 83.4946 211.97 75.7473ZM209.094 74.0872C203.214 77.5047 195.503 79.2097 187.77 79.2022C180.037 79.2097 172.307 77.5049 166.388 74.0874C160.469 70.67 157.5 66.1982 157.475 61.7114C157.45 57.2396 160.368 52.7678 166.249 49.3503C172.129 45.9329 179.84 44.2279 187.573 44.2203C195.306 44.2278 203.036 45.9327 208.955 49.3501C214.874 52.7675 217.843 57.2393 217.868 61.7111C217.893 66.198 214.975 70.6697 209.094 74.0872Z"
        fill="#F6D700" />
    <path
        d="M208.384 60.3803L185.428 73.7211L180.765 71.029L190.802 65.1962L181.658 59.9168L171.621 65.7496L166.958 63.0576L189.914 49.7168L194.577 52.4088L185.544 57.6584L194.688 62.9378L203.721 57.6882L208.384 60.3803Z"
        fill="#F6D700" />
    <path d="M159.883 272.927V264.808L155.523 262.311V270.898" stroke="#8C8C8C"
        stroke-linecap="round" stroke-linejoin="round" />
    <path d="M148.028 359.169L148.016 364.535" stroke="#8C8C8C" stroke-linecap="round"
        stroke-linejoin="round" />
    <path d="M153.226 356.088L153.214 361.454" stroke="#8C8C8C" stroke-linecap="round"
        stroke-linejoin="round" />
    <path d="M158.424 353.007L158.412 358.373" stroke="#8C8C8C" stroke-linecap="round"
        stroke-linejoin="round" />
    <path d="M32.3851 283.023V262.852" stroke="#8C8C8C" stroke-linecap="round"
        stroke-linejoin="round" />
    <path
        d="M91.8795 262.979V282.401C91.9043 286.806 89.0239 291.211 83.2324 294.577C72.5151 300.805 55.5966 301.283 43.8926 295.987"
        stroke="#8C8C8C" stroke-linecap="round" stroke-linejoin="round" />
    <path
        d="M40.2568 251.046C29.4539 257.806 29.7713 268.384 41.1652 274.963C52.8237 281.694 71.6493 281.679 83.2319 274.948C94.8148 268.216 94.7535 257.327 83.095 250.596C73.8005 245.23 59.9507 244.132 48.8472 247.318L46.6645 247.949"
        stroke="#8C8C8C" stroke-linecap="round" stroke-linejoin="round" />
    <path
        d="M43.3059 293.466V302.782C43.32 305.279 41.6873 307.776 38.4045 309.684C31.8392 313.499 21.1684 313.508 14.5601 309.693C11.3099 307.816 9.64986 305.365 9.58301 302.905V293.213"
        stroke="#8C8C8C" stroke-linecap="round" stroke-linejoin="round" />
    <path fill-rule="evenodd" clip-rule="evenodd"
        d="M38.3271 285.897C44.9354 289.712 44.9702 295.885 38.4047 299.7C31.8394 303.516 21.1686 303.524 14.5602 299.709C7.95186 295.893 7.91702 289.704 14.4823 285.889C21.0478 282.073 31.7187 282.082 38.3271 285.897Z"
        stroke="#8C8C8C" stroke-linecap="round" stroke-linejoin="round" />
    <path d="M135.999 328.862L105.873 311.329L114.959 310.187L141.464 325.611" stroke="#8C8C8C"
        stroke-linecap="round" stroke-linejoin="round" />
    <path d="M116.932 342.793L96.8285 331.093L96.8047 320.668L123.461 336.181" stroke="#8C8C8C"
        stroke-linecap="round" stroke-linejoin="round" />
    <path d="M96.8047 320.668L105.873 311.329" stroke="#8C8C8C" stroke-linecap="round"
        stroke-linejoin="round" />
    <path d="M65.701 265.687L63.0615 267.221L63.0896 261.356L68.7387 258.073L68.735 260.984"
        stroke="#8C8C8C" stroke-linecap="round" stroke-linejoin="round" />
    <path d="M63.0613 267.221L54.0596 262.024L54.0877 256.159L63.0894 261.356" stroke="#8C8C8C"
        stroke-linecap="round" stroke-linejoin="round" />
    <path d="M54.0879 256.159L59.7369 252.876L68.7387 258.073" stroke="#8C8C8C"
        stroke-linecap="round" stroke-linejoin="round" />
    <path d="M81.4507 274.55L66.4619 265.896V260.089L81.4507 268.743" stroke="#8C8C8C"
        stroke-linecap="round" stroke-linejoin="round" />
    <path d="M75.7998 297.271V283.385L78.2911 284.823" stroke="#8C8C8C" stroke-linecap="round"
        stroke-linejoin="round" />
    <path d="M56.1159 254.108L40.7568 245.24V251.047L53.6188 258.473" stroke="#8C8C8C"
        stroke-linecap="round" stroke-linejoin="round" />
    <path d="M14.4096 309.137V304.319" stroke="#8C8C8C" stroke-linecap="round"
        stroke-linejoin="round" />
    <path d="M40.7308 280.204V287.507" stroke="#8C8C8C" stroke-linecap="round"
        stroke-linejoin="round" />
    <path d="M266.445 327.067V317.921" stroke="#8C8C8C" stroke-linecap="round"
        stroke-linejoin="round" />
    <path
        d="M295.842 317.983V344.901C295.854 347.078 294.431 349.255 291.569 350.918C285.846 354.244 276.544 354.251 270.783 350.925C270.642 350.844 270.504 350.761 270.37 350.677"
        stroke="#8C8C8C" stroke-linecap="round" stroke-linejoin="round" />
    <path fill-rule="evenodd" clip-rule="evenodd"
        d="M291.502 311.865C297.263 315.191 297.293 320.572 291.57 323.898C285.847 327.224 276.545 327.232 270.784 323.906C265.023 320.58 264.993 315.184 270.716 311.858C276.439 308.532 285.742 308.539 291.502 311.865Z"
        stroke="#8C8C8C" stroke-linecap="round" stroke-linejoin="round" />
    <path
        d="M295.839 334.975C295.919 337.201 294.497 339.44 291.57 341.141C285.847 344.467 276.544 344.474 270.784 341.148C270.425 340.941 270.089 340.726 269.774 340.504"
        stroke="#8C8C8C" stroke-linecap="round" stroke-linejoin="round" />
    <path d="M292.01 331.835L289.592 330.438V351.705" stroke="#8C8C8C" stroke-linecap="round"
        stroke-linejoin="round" />
    <path fill-rule="evenodd" clip-rule="evenodd"
        d="M289.295 315.817L285.306 318.136L281.29 315.818L285.28 313.499L289.295 315.817Z"
        stroke="#8C8C8C" stroke-linecap="round" stroke-linejoin="round" />
    <path
        d="M239.754 350.555C239.565 350.678 239.368 350.799 239.164 350.918C233.441 354.244 224.138 354.251 218.378 350.926C215.544 349.29 214.097 347.153 214.039 345.009V317.921"
        stroke="#8C8C8C" stroke-linecap="round" stroke-linejoin="round" />
    <path d="M243.437 317.983V327.403" stroke="#8C8C8C" stroke-linecap="round"
        stroke-linejoin="round" />
    <path fill-rule="evenodd" clip-rule="evenodd"
        d="M239.096 311.865C244.857 315.191 244.887 320.572 239.164 323.898C233.441 327.224 224.138 327.232 218.378 323.906C212.617 320.58 212.586 315.184 218.31 311.858C224.033 308.532 233.335 308.539 239.096 311.865Z"
        stroke="#8C8C8C" stroke-linecap="round" stroke-linejoin="round" />
    <path
        d="M239.981 340.626C239.723 340.803 239.451 340.975 239.164 341.141C233.44 344.467 224.138 344.475 218.378 341.149C215.497 339.486 214.049 337.305 214.037 335.125"
        stroke="#8C8C8C" stroke-linecap="round" stroke-linejoin="round" />
    <path d="M239.604 331.835L237.186 330.438V351.705" stroke="#8C8C8C" stroke-linecap="round"
        stroke-linejoin="round" />
    <path fill-rule="evenodd" clip-rule="evenodd"
        d="M236.889 315.817L232.899 318.136L228.884 315.818L232.873 313.499L236.889 315.817Z"
        stroke="#8C8C8C" stroke-linecap="round" stroke-linejoin="round" />
    <path
        d="M269.555 333.122V360.04C269.567 362.217 268.144 364.394 265.282 366.057C259.559 369.383 250.257 369.39 244.496 366.064C241.663 364.428 240.215 362.292 240.157 360.147V333.06"
        stroke="#8C8C8C" stroke-linecap="round" stroke-linejoin="round" />
    <path fill-rule="evenodd" clip-rule="evenodd"
        d="M265.214 327.004C270.975 330.33 271.005 335.711 265.282 339.037C259.559 342.363 250.257 342.37 244.496 339.044C238.735 335.718 238.705 330.323 244.428 326.997C250.151 323.671 259.454 323.678 265.214 327.004Z"
        stroke="#8C8C8C" stroke-linecap="round" stroke-linejoin="round" />
    <path
        d="M269.551 350.113C269.631 352.34 268.209 354.578 265.282 356.28C259.559 359.606 250.256 359.613 244.496 356.287C241.615 354.624 240.168 352.444 240.155 350.263"
        stroke="#8C8C8C" stroke-linecap="round" stroke-linejoin="round" />
    <path d="M265.722 346.973L263.304 345.577V366.844" stroke="#8C8C8C" stroke-linecap="round"
        stroke-linejoin="round" />
    <path fill-rule="evenodd" clip-rule="evenodd"
        d="M263.007 330.956L259.018 333.275L255.002 330.956L258.992 328.638L263.007 330.956Z"
        stroke="#8C8C8C" stroke-linecap="round" stroke-linejoin="round" />
    <path d="M240.327 311.852V302.706" stroke="#8C8C8C" stroke-linecap="round"
        stroke-linejoin="round" />
    <path d="M269.724 302.769V312.18" stroke="#8C8C8C" stroke-linecap="round"
        stroke-linejoin="round" />
    <path fill-rule="evenodd" clip-rule="evenodd"
        d="M265.383 296.651C271.144 299.976 271.174 305.357 265.451 308.683C259.728 312.009 250.425 312.017 244.665 308.691C238.904 305.365 238.874 299.969 244.597 296.643C250.32 293.317 259.622 293.325 265.383 296.651Z"
        stroke="#8C8C8C" stroke-linecap="round" stroke-linejoin="round" />
    <path d="M265.891 316.62L263.473 315.224V325.367" stroke="#8C8C8C" stroke-linecap="round"
        stroke-linejoin="round" />
    <path fill-rule="evenodd" clip-rule="evenodd"
        d="M263.176 300.603L259.187 302.921L255.171 300.603L259.16 298.284L263.176 300.603Z"
        stroke="#8C8C8C" stroke-linecap="round" stroke-linejoin="round" />
    <path d="M188.508 94.2383V103.536" stroke="#8C8C8C" stroke-linecap="round"
        stroke-linejoin="round" />
    <path d="M234.187 70.8809V77.1639" stroke="#8C8C8C" stroke-linecap="round"
        stroke-linejoin="round" />
    <path d="M142.83 70.7402V77.1642" stroke="#8C8C8C" stroke-linecap="round"
        stroke-linejoin="round" />
    <ellipse cx="193.966" cy="270.275" rx="10.4702" ry="10.4702" fill="#F6D700" />
    <path
        d="M185.58 275.728C186.53 276.023 187.541 276.183 188.588 276.183C194.176 276.183 198.707 271.653 198.707 266.064C198.707 264.133 198.165 262.327 197.226 260.792C197.226 260.792 190.511 257.782 185.338 264.706C180.166 271.63 185.57 275.488 185.58 275.728Z"
        fill="white" />
    <ellipse cx="193.966" cy="270.275" rx="10.4702" ry="10.4702" stroke="#8C8C8C" />
    <path d="M193.966 281.754V293.111" stroke="#8C8C8C" stroke-width="2" stroke-linecap="round"
        stroke-linejoin="round" />
    <circle cx="224.309" cy="252.756" r="10.4702" fill="#F6D700" />
    <path
        d="M215.922 258.209C216.873 258.505 217.883 258.664 218.931 258.664C224.519 258.664 229.049 254.134 229.049 248.546C229.049 246.614 228.508 244.809 227.569 243.273C227.569 243.273 220.853 240.263 215.681 247.187C210.509 254.111 215.913 257.97 215.922 258.209Z"
        fill="#DFE3E2" />
    <circle cx="224.309" cy="252.756" r="10.4702" stroke="#8C8C8C" />
    <path d="M224.309 264.235V275.593" stroke="#8C8C8C" stroke-width="2" stroke-linecap="round"
        stroke-linejoin="round" />
    <ellipse cx="254.653" cy="235.238" rx="10.4702" ry="10.4702" fill="#F6D700" />
    <path
        d="M246.266 240.691C247.217 240.986 248.227 241.146 249.275 241.146C254.863 241.146 259.393 236.615 259.393 231.027C259.393 229.096 258.852 227.29 257.912 225.755C257.912 225.755 251.197 222.744 246.025 229.668C240.853 236.592 246.257 240.451 246.266 240.691Z"
        fill="#DFE3E2" />
    <ellipse cx="254.653" cy="235.238" rx="10.4702" ry="10.4702" stroke="#8C8C8C" />
    <path d="M254.653 247.793V258.074" stroke="#8C8C8C" stroke-width="2" stroke-linecap="round"
        stroke-linejoin="round" />
    <path fill-rule="evenodd" clip-rule="evenodd"
        d="M286.499 282.932V273.963L296.028 263.986L305.782 262.696L308.416 264.21V261.183L318.001 251.318L327.586 250.14L330.277 251.654V248.571L339.806 238.762L349.447 237.528L389.021 260.398V269.759L370.187 280.97L367.329 279.344V282.427L348.102 293.638L345.412 291.957V295.152L326.353 306.25L286.499 282.932Z"
        stroke="#8C8C8C" stroke-width="2" stroke-linecap="round" stroke-linejoin="round" />
    <path
        d="M296.743 317.508C296.579 315.248 295.046 313.015 292.147 311.287C286.292 307.799 276.993 307.641 270.875 310.828"
        stroke="#8C8C8C" stroke-width="2" stroke-linecap="round" stroke-linejoin="round" />
    <path
        d="M270.674 310.567V302.635C270.661 300.25 269.123 297.864 266.063 296.041C259.944 292.395 250.063 292.387 243.984 296.033C240.844 297.916 239.334 300.404 239.452 302.872V309.521"
        stroke="#8C8C8C" stroke-width="2" stroke-linecap="round" stroke-linejoin="round" />
    <path
        d="M270.674 352.166V360.098C270.661 362.484 269.123 364.87 266.063 366.692C259.944 370.338 250.063 370.346 243.984 366.7C240.844 364.817 239.334 362.33 239.452 359.861V353.212"
        stroke="#8C8C8C" stroke-width="2" stroke-linecap="round" stroke-linejoin="round" />
    <path
        d="M239.072 310.984C232.925 307.644 223.432 307.738 217.526 311.279C214.451 313.123 213.119 315.548 213.168 317.966V344.872"
        stroke="#8C8C8C" stroke-width="2" stroke-linecap="round" stroke-linejoin="round" />
    <path
        d="M213.213 345.174C213.263 347.534 214.8 349.888 217.822 351.689C223.632 355.15 232.833 355.318 238.951 352.206L239.358 351.897"
        stroke="#8C8C8C" stroke-width="2" stroke-linecap="round" stroke-linejoin="round" />
    <path
        d="M270.483 351.889C276.623 355.334 286.252 355.259 292.218 351.681C295.258 349.859 296.77 347.473 296.757 345.087V317.742"
        stroke="#8C8C8C" stroke-width="2" stroke-linecap="round" stroke-linejoin="round" />
    <path
        d="M116.6 343.751L95.8604 331.419V320.32L105.502 310.455L114.919 309.222L142.385 325.141L155.838 317.406L167.833 318.863L179.493 330.971V347.45L140.591 370.32L130.053 364.267L121.645 369.199L112.452 363.706V355.186L116.645 352.832V343.796"
        stroke="#8C8C8C" stroke-width="2" stroke-linecap="round" stroke-linejoin="round" />
    <path
        d="M44.249 297.263L44.2489 303.103C44.2957 305.75 42.5809 308.403 39.1008 310.426C32.2038 314.434 20.9941 314.443 14.0519 310.434C10.4457 308.352 8.70293 305.597 8.82753 302.868L8.82138 292.464C8.80658 289.836 10.5217 287.209 13.9701 285.205C18.7186 282.445 25.5114 281.59 31.5482 282.633"
        stroke="#8C8C8C" stroke-width="2" stroke-linecap="round" stroke-linejoin="round" />
    <path
        d="M45.5216 297.612C57.4083 302.146 73.5149 301.378 83.9253 295.328C89.9287 291.839 92.8869 287.263 92.8061 282.697L92.8065 262.272C92.7386 257.78 89.7293 253.295 83.7847 249.863C73.6619 244.019 58.2788 243.103 46.5752 247.136L46.0286 247.282L40.5166 243.975"
        stroke="#8C8C8C" stroke-width="2" stroke-linecap="round" stroke-linejoin="round" />
    <path d="M31.7022 282.292L31.6916 262.37C31.6675 258.089 34.3053 253.808 39.6103 250.434"
        stroke="#8C8C8C" stroke-width="2" stroke-linecap="round" stroke-linejoin="round" />
    <path d="M39.7504 242.383V250.421" stroke="#8C8C8C" stroke-width="2" stroke-linecap="round"
        stroke-linejoin="round" />
    <path fill-rule="evenodd" clip-rule="evenodd"
        d="M136.427 56.2257L178.187 31.9575C183.777 28.709 192.864 28.709 198.482 31.9524L240.524 56.2252C241.899 56.9794 243.767 58.9226 243.767 61.7627C243.767 64.6027 242.422 65.948 240.927 67.0691C239.433 68.1902 237.34 69.4607 237.34 69.4607L249.448 76.5609V224.991C249.448 224.991 255.277 221.927 260.957 225.813C266.637 229.7 266.563 236.352 264.769 240.313C262.631 245.035 257.669 246.591 255.427 246.591H253.708L269.627 256.008L188.835 303.317L106.996 256.157L127.4 244.423V240.686C127.4 240.686 125.681 241.06 123.588 241.06C121.495 241.06 118.172 240.495 114.918 237.024C111.555 233.437 111.555 226.71 114.545 223.048C117.534 219.386 122.467 217.069 127.25 219.012V76.7851L139.657 69.4607L137.116 67.9659C131.735 64.6027 132.002 59.2089 136.427 56.2257Z"
        stroke="#8C8C8C" stroke-width="2" stroke-linecap="round" stroke-linejoin="round" />
    <path fill-rule="evenodd" clip-rule="evenodd"
        d="M267.272 216.285V194.648L315.142 167.182L328.035 168.975L340.703 181.868V202.944L292.609 231.307L267.272 216.285Z"
        stroke="#8C8C8C" stroke-width="2" stroke-linecap="round" stroke-linejoin="round" />
</svg>